<?xml version="1.0" encoding="UTF-8"?>
<svg width="32px" height="32px" viewBox="0 0 32 32" version="1.1" xmlns="http://www.w3.org/2000/svg" xmlns:xlink="http://www.w3.org/1999/xlink">
	<!-- Generator: Sketch 52.2 (67145) - http://www.bohemiancoding.com/sketch -->
	<title>ico/24px/facebook/green/no-outline</title>
	<desc>Created with Sketch.</desc>
	<g id="ico/24px/facebook/green/no-outline" stroke="none" stroke-width="1" fill="none" fill-rule="evenodd">
		<path d="m 12.012561,24.593862
c -1.315703,-0.192308 -3.1520258,-1.772374 -3.5898698,-3.088907 -0.554914,-1.668547 0.7738816,-3.029789 3.4684068,-3.553092 0.148025,-0.02875 0.13504,-0.0431 -0.01747,-0.01932
C 9.2992131,18.333998 7.0522014,17.044912 6.6591514,14.94106 6.539379,14.299967 6.3502936,12.336376 6.19381,10.108657 6.0050476,7.4214117 7.2865432,6.7224765 9.7340967,8.1777644 11.600666,9.2876064 14.5094,12.715487 15.794631,15.319977
c 0.11299,0.22897 0.100978,0.225574 0.183878,0.05199 0.500515,-1.048024 1.69633,-2.814878 2.82285,-4.170852 3.608832,-4.343895 7.028641,-5.0651154 6.82301,-1.4389389 -0.120142,2.1186399 -0.390813,4.8620829 -0.533413,5.4065109 -0.524832,2.003754 -2.745996,3.171861 -5.234351,2.752739 -0.146469,-0.02467 -0.03667,0.01303 0.148981,0.05116 3.794293,0.779199 4.606375,3.117863 1.906309,5.489863 -2.480933,2.179494 -4.449233,1.253301 -5.841644,-2.748815 -0.164515,-0.472854 -0.172248,-0.480159 -0.255502,-0.24139 -1.057081,3.031639 -2.269278,4.345675 -3.802188,4.121618
z" id="Fill-1" fill="#84B414"></path>
	</g>
</svg>
