<svg width="32px" height="32px" viewBox="0 0 32 32" version="1.1" xmlns="http://www.w3.org/2000/svg" xmlns:xlink="http://www.w3.org/1999/xlink">
	<g id="Symbols" stroke="none" stroke-width="1" fill="none" fill-rule="evenodd">
		<g id="ico/24px/instagram/green/outline">
			<rect id="Rectangle-11" stroke="#84B414" x="0.5" y="0.5" width="31" height="31"></rect>
			<path d="M12.8589667,9.88041297 C11.2439133,9.88041297 9.92992874,11.1606849 9.92992874,12.7341566 L9.92992874,19.2656987 C9.92992874,20.8394597 11.2439133,22.119587 12.8589667,22.119587 L19.1410333,22.119587 C20.7562352,22.119587 22.0700713,20.8394597 22.0700713,19.2656987 L22.0700713,12.7341566 C22.0700713,11.1606849 20.7562352,9.88041297 19.1410333,9.88041297 L12.8589667,9.88041297 Z M19.1410333,24 L12.8589667,24 C10.1797803,24 8,21.8762905 8,19.2656987 L8,12.7341566 C8,10.1238541 10.1797803,8 12.8589667,8 L19.1410333,8 C21.8203682,8 24,10.1238541 24,12.7341566 L24,19.2656987 C24,21.8762905 21.8203682,24 19.1410333,24 L19.1410333,24 Z M15.9045576,13.5518325 C15.3010837,13.5518325 14.7262619,13.7825447 14.2792607,14.2056376 C13.7908403,14.6677853 13.5107037,15.3142134 13.5107037,15.9787224 C13.5107037,17.31613 14.6273901,18.4043105 16.0000148,18.4043105 C17.3653652,18.4043105 18.4588925,17.3298714 18.4896229,15.9583272 C18.5228771,14.4761278 17.6052702,13.5992768 15.9718082,13.552845 C15.9493913,13.5522664 15.926826,13.5518325 15.9045576,13.5518325 M16.0000148,20.2847235 C13.5632571,20.2847235 11.5807749,18.3529607 11.5807749,15.9787224 C11.5807749,14.8088162 12.0742429,13.6708771 12.9345457,12.8566583 C13.7755493,12.0608097 14.8753118,11.6374275 16.028073,11.6732999 C18.7108224,11.749529 20.4755196,13.4881878 20.4191063,15.9992623 C20.3652167,18.4022854 18.4241538,20.2847235 16.0000148,20.2847235 Z M21.2236787,11.8170503 C21.2236787,12.3383586 20.7898901,12.7610176 20.2548545,12.7610176 C19.7196704,12.7610176 19.2858818,12.3383586 19.2858818,11.8170503 C19.2858818,11.2957419 19.7196704,10.873083 20.2548545,10.873083 C20.7898901,10.873083 21.2236787,11.2957419 21.2236787,11.8170503 Z" id="Fill-1" fill="#84B414"></path>
		</g>
	</g>
</svg>
