<?xml version="1.0" encoding="UTF-8" standalone="no"?>
<svg
	xmlns:inkscape="http://www.inkscape.org/namespaces/inkscape"
	xmlns:sodipodi="http://sodipodi.sourceforge.net/DTD/sodipodi-0.dtd"
	width="32"
	height="32"
	version="1.1"
	id="svg8"
	sodipodi:docname="linkedin.svg"
	inkscape:version="1.1.1 (3bf5ae0d25, 2021-09-20)"
	xmlns="http://www.w3.org/2000/svg"
>
	<defs
		id="defs12"/>
	<sodipodi:namedview
		id="namedview10"
		pagecolor="#ffffff"
		bordercolor="#666666"
		borderopacity="1.0"
		inkscape:pageshadow="2"
		inkscape:pageopacity="0.0"
		inkscape:pagecheckerboard="0"
		showgrid="false"
		inkscape:zoom="22.46875"
		inkscape:cx="10.770515"
		inkscape:cy="17.001391"
		inkscape:window-width="1920"
		inkscape:window-height="1043"
		inkscape:window-x="0"
		inkscape:window-y="0"
		inkscape:window-maximized="1"
		inkscape:current-layer="g6"/>
	<g
		id="g6">
		<path
			fill="none"
			stroke-width="1"
			d="M.5.5h31v31H.5z"
			id="path2"/>
		<g
			id="XMLID_801_"
			transform="matrix(0.04795797,0,0,0.04795797,8.566514,8.566514)">
			<path
				id="XMLID_802_"
				d="M 72.16,99.73 H 9.927 c -2.762,0 -5,2.239 -5,5 v 199.928 c 0,2.762 2.238,5 5,5 H 72.16 c 2.762,0 5,-2.238 5,-5 V 104.73 c 0,-2.761 -2.238,-5 -5,-5 z"/>
			<path
				id="XMLID_803_"
				d="M 41.066,0.341 C 18.422,0.341 0,18.743 0,41.362 0,63.991 18.422,82.4 41.066,82.4 63.692,82.4 82.099,63.99 82.099,41.362 82.1,18.743 63.692,0.341 41.066,0.341 Z"/>
			<path
				id="XMLID_804_"
				d="m 230.454,94.761 c -24.995,0 -43.472,10.745 -54.679,22.954 V 104.73 c 0,-2.761 -2.238,-5 -5,-5 h -59.599 c -2.762,0 -5,2.239 -5,5 v 199.928 c 0,2.762 2.238,5 5,5 h 62.097 c 2.762,0 5,-2.238 5,-5 V 205.74 c 0,-33.333 9.054,-46.319 32.29,-46.319 25.306,0 27.317,20.818 27.317,48.034 v 97.204 c 0,2.762 2.238,5 5,5 H 305 c 2.762,0 5,-2.238 5,-5 V 194.995 C 310,145.43 300.549,94.761 230.454,94.761 Z"/>
		</g>
	</g>
</svg>
