<?xml version="1.0" encoding="UTF-8" standalone="no"?>
<svg
	xmlns:inkscape="http://www.inkscape.org/namespaces/inkscape"
	xmlns:sodipodi="http://sodipodi.sourceforge.net/DTD/sodipodi-0.dtd"
	xmlns:rdf="http://www.w3.org/1999/02/22-rdf-syntax-ns#"
	xmlns:cc="http://creativecommons.org/ns#"
	xmlns:dc="http://purl.org/dc/elements/1.1/"
	width="32px"
	height="32px"
	viewBox="0 0 32 32"
	version="1.1"
	id="svg9"
	sodipodi:docname="link.svg"
	inkscape:version="1.1.1 (3bf5ae0d25, 2021-09-20)"
	xmlns="http://www.w3.org/2000/svg">
	<defs
		id="defs13"/>
	<sodipodi:namedview
		id="namedview11"
		pagecolor="#ffffff"
		bordercolor="#666666"
		borderopacity="1.0"
		inkscape:pageshadow="2"
		inkscape:pageopacity="0.0"
		inkscape:pagecheckerboard="0"
		showgrid="false"
		inkscape:zoom="4.8778749"
		inkscape:cx="8.8153142"
		inkscape:cy="24.293366"
		inkscape:window-width="1280"
		inkscape:window-height="656"
		inkscape:window-x="0"
		inkscape:window-y="0"
		inkscape:window-maximized="1"
		inkscape:current-layer="svg9"
		showguides="true"
		inkscape:guide-bbox="true">
		<sodipodi:guide
			position="24,16"
			orientation="1,0"
			id="guide995"/>
		<sodipodi:guide
			position="15.785563,8.0141451"
			orientation="0,-1"
			id="guide997"/>
		<sodipodi:guide
			position="16.195577,24.209722"
			orientation="0,-1"
			id="guide999"/>
		<sodipodi:guide
			position="7.995285,8.0141451"
			orientation="1,0"
			id="guide1003"/>
	</sodipodi:namedview>
	<!-- Generator: Sketch 52.2 (67145) - http://www.bohemiancoding.com/sketch -->
	<title
		id="title2">ico/24px/email/green copy
	</title>
	<desc
		id="desc4">Created with Sketch.
	</desc>
	<metadata
		id="metadata830">
		<rdf:RDF>
			<cc:Work
				rdf:about="">
				<dc:title>ico/24px/email/green copy</dc:title>
			</cc:Work>
		</rdf:RDF>
	</metadata>
	<g
		id="g1087"
		transform="matrix(1.0653695,0,0,1.0654658,-1.0229203,-1.0231391)">
		<path
			d="m 11.244281,14.595925 -1.9772174,1.977217 a 4.323727,4.323727 0 1 0 6.1146734,6.114673 l 2.634368,-2.635808 a 4.3233606,4.3233606 0 0 0 -1.193247,-6.957729 l -0.844497,0.844497 a 1.4440024,1.4440024 0 0 0 -0.221932,0.286783 2.8822404,2.8822404 0 0 1 1.240804,4.809018 l -2.632926,2.634367 a 2.8838434,2.8838434 0 1 1 -4.078371,-4.07837 l 1.142809,-1.141367 a 5.790421,5.790421 0 0 1 -0.184464,-1.854722 z"
			id="path2-3"
			style="stroke-width:1.44112"/>
		<path
			d="m 13.940617,11.901031 a 4.3233606,4.3233606 0 0 0 1.193248,6.957728 l 1.116868,-1.118309 a 2.8822404,2.8822404 0 0 1 -1.291244,-4.821988 l 2.632927,-2.634368 a 2.8838434,2.8838434 0 1 1 4.07837,4.07837 l -1.142808,1.141367 c 0.161405,0.605271 0.223373,1.232158 0.184463,1.854722 l 1.977217,-1.977217 A 4.3237269,4.3237269 0 1 0 16.574985,9.266663 Z"
			id="path4"
			style="stroke-width:1.44112"/>
	</g>
</svg>
