<?xml version="1.0" encoding="UTF-8" standalone="no"?>
<svg
	xmlns:inkscape="http://www.inkscape.org/namespaces/inkscape"
	xmlns:sodipodi="http://sodipodi.sourceforge.net/DTD/sodipodi-0.dtd"
	xmlns:rdf="http://www.w3.org/1999/02/22-rdf-syntax-ns#"
	xmlns:cc="http://creativecommons.org/ns#"
	xmlns:dc="http://purl.org/dc/elements/1.1/"
	width="32px"
	height="32px"
	viewBox="0 0 32 32"
	version="1.1"
	id="svg9"
	sodipodi:docname="telegram.svg"
	inkscape:version="1.1.1 (3bf5ae0d25, 2021-09-20)"
	xmlns="http://www.w3.org/2000/svg">
	<defs
		id="defs13"/>
	<sodipodi:namedview
		id="namedview11"
		pagecolor="#ffffff"
		bordercolor="#666666"
		borderopacity="1.0"
		inkscape:pageshadow="2"
		inkscape:pageopacity="0.0"
		inkscape:pagecheckerboard="0"
		showgrid="false"
		inkscape:zoom="4.8778749"
		inkscape:cx="8.7128106"
		inkscape:cy="24.293366"
		inkscape:window-width="1280"
		inkscape:window-height="656"
		inkscape:window-x="0"
		inkscape:window-y="0"
		inkscape:window-maximized="1"
		inkscape:current-layer="svg9"/>
	<!-- Generator: Sketch 52.2 (67145) - http://www.bohemiancoding.com/sketch -->
	<title
		id="title2">ico/24px/email/green copy
	</title>
	<desc
		id="desc4">Created with Sketch.
	</desc>
	<metadata
		id="metadata830">
		<rdf:RDF>
			<cc:Work
				rdf:about="">
				<dc:title>ico/24px/email/green copy</dc:title>
			</cc:Work>
		</rdf:RDF>
	</metadata>
	<path
		d="m 24,16 a 8,8.0000005 0 1 1 -16,0 8,8.0000005 0 0 1 16,0 z m -7.713,-2.093999 c -0.777999,0.324 -2.333999,0.994 -4.665999,2.01 -0.378,0.149999 -0.577,0.297999 -0.595,0.442 -0.03,0.243 0.275,0.339 0.69,0.47 l 0.175,0.055 c 0.408,0.132999 0.958,0.288 1.243,0.294 0.26,0.006 0.549,-0.1 0.868,-0.32 2.178999,-1.471 3.303999,-2.214 3.373999,-2.23 0.05,-0.012 0.12,-0.026 0.166,0.016 0.047,0.041 0.042,0.12 0.037,0.141 -0.03,0.129 -1.227,1.240999 -1.845999,1.817 -0.193,0.179999 -0.33,0.306999 -0.358,0.336 a 8.1539995,8.154 0 0 1 -0.188,0.186 c -0.38,0.366 -0.664,0.64 0.015,1.088 0.327,0.216 0.589,0.393 0.849999,0.571 0.284,0.194 0.568,0.387 0.936,0.629 0.093,0.06 0.183,0.125 0.27,0.187 0.331,0.236 0.63,0.448 0.997,0.414 0.214,-0.02 0.435,-0.22 0.547,-0.82 C 19.067,17.775 19.588,14.706 19.708,13.441 A 1.4259999,1.426 0 0 0 19.695,13.126001 0.33699998,0.337 0 0 0 19.581,12.909 0.52599997,0.526 0 0 0 19.271,12.816 c -0.3,0.005 -0.763,0.166001 -2.984,1.090001 z"
		id="path2"/>
</svg>
