<?xml version="1.0" encoding="UTF-8"?>
<svg xmlns:xlink="http://www.w3.org/1999/xlink" width="64px" height="64px" viewBox="0 0 64 64" version="1.1"
		 xmlns="http://www.w3.org/2000/svg">
	<!-- Generator: Sketch 50.2 (55047) - http://www.bohemiancoding.com/sketch -->
	<title>ico/64px/testimony</title>
	<desc>Created with Sketch.</desc>
	<defs></defs>
	<g id="ico/64px/testimony" stroke="none" stroke-width="1" fill="none" fill-rule="evenodd">
		<g id="Group" transform="translate(0.886996, 8.208251)" fill-rule="nonzero">
			<path
				d="M0,19.9341811 C3.61174974e-16,14.7163348 1.25921014,13.0586264 16.0811802,13.0586264 C27.3061607,13.0586264 35.2528202,5.95167542 37.051989,3.70965396 C38.8511579,1.4676325 40.2534975,0 42.1267169,0 C47.0669638,0 49.7617404,9.63821395 49.7617404,21.8152178 C49.7617404,33.9922217 47.0669638,43.6304356 42.1267169,43.6304356 C41.885045,43.6304356 41.6487466,43.6073707 41.4178744,43.562072 C37.6416452,43.29809 34.6480122,34.9794465 28.0980716,31.7762135 C28.0980716,31.7762135 28.0980716,31.7762135 28.0980716,31.7762135 L28.0980716,31.7762135 C25.1607775,30.3397367 21.6151357,31.5563895 20.1786589,34.4936836 C19.7826019,35.3035373 19.5767226,36.1931438 19.5767228,37.094656 L19.5767637,37.9942828 C19.5855179,38.0637193 19.589895,38.1333589 19.589895,38.2032014 C19.589895,39.7208309 21.5877114,41.2349496 20.9217726,42.5470766 C20.2558338,43.8592035 19.5074142,44.0200011 17.804373,44.0200011 L13.3410365,44.0200011 C11.6815309,44.0200011 11.0645087,43.2592896 10.8350932,42.2115597 L10.6988294,30.6784763 C8.66265255,30.6782138 7.05969087,29.0006728 7.30794287,26.7964728 C2.25346942,26.7964728 0,25.4074404 0,19.9341811 Z M42.4911779,38.7823028 C43.006012,38.003469 43.5196431,36.7623707 43.9666833,35.163474 C44.9361589,31.6960202 45.5003319,26.9253172 45.5003319,21.8152178 C45.5003319,16.7051184 44.9361589,11.9344154 43.9666833,8.4669616 C43.5196431,6.86806496 43.006012,5.62696666 42.4911779,4.8481328 C42.357563,4.6460019 42.2335539,4.48989691 42.1267169,4.37937163 C42.0198798,4.48989691 41.8958708,4.6460019 41.7622558,4.8481328 C41.2474217,5.62696666 40.7337907,6.86806496 40.2867505,8.4669616 C39.3172749,11.9344154 38.7531018,16.7051184 38.7531018,21.8152178 C38.7531018,26.9253172 39.3172749,31.6960202 40.2867505,35.163474 C40.7337907,36.7623707 41.2474217,38.003469 41.7622558,38.7823028 C41.8958708,38.9844337 42.0198798,39.1405387 42.1267169,39.251064 C42.2335539,39.1405387 42.357563,38.9844337 42.4911779,38.7823028 Z"
				id="Combined-Shape" fill="#84B414"></path>
			<path
				d="M43.5415228,23.2600006 C42.9892381,23.2600006 42.5415228,22.8122853 42.5415228,22.2600006 C42.5415228,21.7077158 42.9892381,21.2600006 43.5415228,21.2600006 L61.5415228,21.2600006 C62.0938076,21.2600006 62.5415228,21.7077158 62.5415228,22.2600006 C62.5415228,22.8122853 62.0938076,23.2600006 61.5415228,23.2600006 L43.5415228,23.2600006 Z"
				id="Path-5" fill="#516F0A"></path>
			<path
				d="M43.8778592,17.2100032 C43.3577495,17.3957567 42.7855344,17.1247074 42.5997809,16.6045977 C42.4140275,16.084488 42.6850767,15.5122728 43.2051864,15.3265194 L54.5060894,11.2904826 C55.0261991,11.1047291 55.5984142,11.3757784 55.7841677,11.8958881 C55.9699211,12.4159978 55.6988719,12.988213 55.1787622,13.1739664 L43.8778592,17.2100032 Z"
				id="Path-5-Copy" fill="#516F0A"></path>
			<path
				d="M43.2051864,29.17196 C42.6850767,28.9862065 42.4140275,28.4139914 42.5997809,27.8938817 C42.7855344,27.373772 43.3577495,27.1027227 43.8778592,27.2884762 L55.1787622,31.324513 C55.6988719,31.5102664 55.9699211,32.0824816 55.7841677,32.6025913 C55.5984142,33.122701 55.0261991,33.3937502 54.5060894,33.2079968 L43.2051864,29.17196 Z"
				id="Path-5-Copy-2" fill="#516F0A"></path>
		</g>
	</g>
</svg>
