<?xml version="1.0" encoding="UTF-8"?>
<svg xmlns:xlink="http://www.w3.org/1999/xlink" width="32px" height="32px" viewBox="0 0 32 32" version="1.1"
		 xmlns="http://www.w3.org/2000/svg">
	<!-- Generator: Sketch 51.1 (57501) - http://www.bohemiancoding.com/sketch -->
	<title>ico/24px/facebook/green</title>
	<desc>Created with Sketch.</desc>
	<defs></defs>
	<g id="ico/24px/facebook/green" stroke="none" stroke-width="1" fill="none" fill-rule="evenodd">
		<rect id="Rectangle-11" stroke="#84B414" x="0.5" y="0.5" width="31" height="31"></rect>
		<path
			d="M 14.905855,23.866757 C 11.321571,23.207607 9.4729032,21.141083 9.0631158,17.335479 8.5621733,12.683328 10.444293,9.1528443 13.886901,8.2870144 c 3.808108,-0.9577527 7.222576,0.5346147 8.620386,3.7677306 0.388845,0.899391 0.379844,0.96279 -0.158405,1.115821 -0.881066,0.250494 -0.818931,0.255212 -0.916241,-0.06958 -1.335651,-4.4580085 -8.221609,-5.0961859 -10.262193,-0.951079 -1.466838,2.979638 -0.852827,7.599878 1.228646,9.245187 1.686272,1.332923 4.947895,1.516045 6.705255,0.376463 1.839148,-1.192616 2.255428,-3.340537 0.886031,-4.571744 -0.459423,-0.413058 -0.449188,-0.416088 -0.593163,0.175607 -0.478364,1.965926 -2.050962,3.061968 -3.966806,2.764715 -3.307222,-0.513134 -3.382295,-4.46818 -0.09937,-5.234842 0.373308,-0.08717 0.787692,-0.110471 1.629979,-0.09163 1.298059,0.02904 1.274958,0.04463 0.954124,-0.644356 -0.563787,-1.210725 -2.727571,-1.430538 -3.509909,-0.356559 l -0.143952,0.1976 -0.510891,-0.357679 c -0.280991,-0.196724 -0.539799,-0.382481 -0.575129,-0.412794 -0.213245,-0.182945 0.97676,-1.094895 1.751752,-1.342427 2.310543,-0.737988 4.62343,0.877118 4.643323,3.242462 8.67e-4,0.103226 0.09152,0.195817 0.279009,0.284943 3.382694,1.608069 3.001345,6.194676 -0.655914,7.888886 -0.988686,0.458003 -3.231349,0.747273 -4.287585,0.553029 z m 2.14234,-5.329109 c 0.636845,-0.346615 1.414877,-1.987285 1.049491,-2.213107 -0.718732,-0.444199 -3.18356,-0.02234 -3.615636,0.61882 -0.818081,1.213946 1.08855,2.398493 2.566145,1.594287 z"
			id="Fill-1" fill="#84B414"></path>
	</g>
</svg>
