<?xml version="1.0" encoding="UTF-8" standalone="no"?>
<svg
	xmlns:inkscape="http://www.inkscape.org/namespaces/inkscape"
	xmlns:sodipodi="http://sodipodi.sourceforge.net/DTD/sodipodi-0.dtd"
	width="32"
	height="32"
	version="1.1"
	id="svg8"
	sodipodi:docname="tiktok.svg"
	inkscape:version="1.1.1 (3bf5ae0d25, 2021-09-20)"
	xmlns="http://www.w3.org/2000/svg"
>
	<defs
		id="defs12"/>
	<sodipodi:namedview
		id="namedview10"
		pagecolor="#ffffff"
		bordercolor="#666666"
		borderopacity="1.0"
		inkscape:pageshadow="2"
		inkscape:pageopacity="0.0"
		inkscape:pagecheckerboard="0"
		showgrid="false"
		inkscape:zoom="22.46875"
		inkscape:cx="8.7232267"
		inkscape:cy="16.556328"
		inkscape:window-width="1920"
		inkscape:window-height="1043"
		inkscape:window-x="0"
		inkscape:window-y="0"
		inkscape:window-maximized="1"
		inkscape:current-layer="g6"/>
	<g
		id="g6">
		<path
			fill="none"
			stroke-width="1"
			d="M.5.5h31v31H.5z"
			id="path2"/>
		<path
			d="M 21.82721,11.984174 A 3.6212115,3.6212115 0 0 1 18.978897,8.7769877 V 8.443803 h -2.60277 v 10.329481 a 2.1879884,2.1879884 0 0 1 -3.929464,1.316872 l -0.0016,-7.55e-4 0.0016,7.55e-4 a 2.1872329,2.1872329 0 0 1 2.404823,-3.407398 v -2.644322 a 4.7816916,4.7816916 0 0 0 -4.07528,8.078027 4.782447,4.782447 0 0 0 8.202691,-3.342425 v -5.278067 a 6.1816717,6.1816717 0 0 0 3.6061,1.152924 v -2.586147 a 3.6499212,3.6499212 0 0 1 -0.757787,-0.07858 z"
			id="path2-6"
			style="stroke-width:0.755521"/>
	</g>
</svg>
