<?xml version="1.0" encoding="UTF-8"?>
<svg width="32px" height="32px" viewBox="0 0 32 32" version="1.1" xmlns="http://www.w3.org/2000/svg" xmlns:xlink="http://www.w3.org/1999/xlink">
	<!-- Generator: Sketch 52.2 (67145) - http://www.bohemiancoding.com/sketch -->
	<title>ico/24px/twitter/green</title>
	<desc>Created with Sketch.</desc>
	<g id="ico/24px/twitter/green" stroke="none" stroke-width="1" fill="none" fill-rule="evenodd">
		<g id="ico/24px/twitter/green/no-outline" fill="#84B414">
			<path d="M22.1155289,11.0551581 C22.7929482,10.6493769 23.3128282,10.0065774 23.5581395,9.24001846 C22.9242311,9.61579737 22.2213053,9.88956843 21.4733683,10.0358297 C20.8747187,9.39828064 20.0217554,9 19.0772693,9 C17.2648162,9 15.7951988,10.469363 15.7951988,12.2815024 C15.7951988,12.5395223 15.8237059,12.7892915 15.87997,13.0293099 C13.1515379,12.8920494 10.7329332,11.5861989 9.11402851,9.60004616 C8.8312078,10.0860835 8.66916729,10.6493769 8.66916729,11.2509231 C8.66916729,12.3887607 9.24831208,13.393838 10.1297824,13.9818832 C9.59189797,13.965382 9.08552138,13.8176206 8.64291073,13.5723517 C8.64291073,15.2044773 9.77419355,16.5298292 11.276069,16.8313524 C11.0007502,16.9078583 10.7104276,16.9468613 10.4111028,16.9468613 C10.1995499,16.9468613 9.9939985,16.9273598 9.79369842,16.8883568 C10.2108027,18.1919571 11.4231058,19.1415301 12.8597149,19.1670321 C11.735934,20.0475998 10.3210803,20.5718901 8.78244561,20.5718901 C8.51762941,20.5718901 8.25656414,20.556889 8,20.5261366 C9.45236309,21.4569582 11.1785446,22 13.0322581,22 C19.0705176,22 22.3713428,16.9993653 22.3713428,12.6625317 C22.3713428,12.5192707 22.3683421,12.3775098 22.3623406,12.2379991 C23.0037509,11.7744634 23.5611403,11.196919 24,10.5391184 C23.4111028,10.8001385 22.7794449,10.976402 22.1155289,11.0551581 Z" id="Fill-1"></path>
		</g>
	</g>
</svg>
