<?xml version="1.0" encoding="UTF-8"?>
<svg width="32px" height="32px" viewBox="0 0 32 32" version="1.1" xmlns="http://www.w3.org/2000/svg" xmlns:xlink="http://www.w3.org/1999/xlink">
	<!-- Generator: Sketch 52.2 (67145) - http://www.bohemiancoding.com/sketch -->
	<title>ico/24px/email/green copy</title>
	<desc>Created with Sketch.</desc>
	<g id="ico/24px/email/green-copy" stroke="none" stroke-width="1" fill="none" fill-rule="evenodd">
		<g id="ico/24px/whatsapp/green/no-outline" fill="#84B414">
			<path d="M24,15.7942222 C24,20.098 20.4835556,23.5875556 16.1457778,23.5875556 C14.7682222,23.5875556 13.474,23.236 12.3488889,22.618 L8,24 L9.41755556,19.8184444 C8.70222222,18.644 8.29088889,17.2664444 8.29088889,15.7942222 C8.29088889,11.4895556 11.8073333,8 16.1457778,8 C20.4835556,8 24,11.4895556 24,15.7942222 Z M20.112,17.5893333 C20.0633333,17.5095556 19.9348889,17.4617778 19.7431111,17.3662222 C19.5504444,17.2706667 18.6033333,16.808 18.4271111,16.7446667 C18.2508889,16.6813333 18.1215556,16.6493333 17.994,16.8402222 C17.8655556,17.0311111 17.4964444,17.4617778 17.3837778,17.5893333 C17.2717778,17.7168889 17.1597778,17.7326667 16.9671111,17.6371111 C16.7742222,17.5417778 16.1537778,17.3393333 15.4184444,16.6891111 C14.8464444,16.1822222 14.46,15.5571111 14.3471111,15.3662222 C14.2353333,15.1753333 14.336,15.072 14.4313333,14.9766667 C14.5182222,14.8904444 14.6242222,14.7535556 14.7204444,14.6424444 C14.8168889,14.5304444 14.8488889,14.4504444 14.9131111,14.3228889 C14.9773333,14.1953333 14.9453333,14.0842222 14.8966667,13.9886667 C14.8488889,13.8933333 14.4635556,12.9531111 14.3028889,12.5702222 C14.1433333,12.1884444 13.9826667,12.2515556 13.8697778,12.2515556 C13.7577778,12.2515556 13.6293333,12.236 13.5008889,12.236 C13.3724444,12.236 13.164,12.2837778 12.9877778,12.4748889 C12.8115556,12.6657778 12.3142222,13.1284444 12.3142222,14.0677778 C12.3142222,15.0077778 13.0035556,15.9166667 13.0997778,16.0433333 C13.1962222,16.1708889 14.4313333,18.1631111 16.3888889,18.9277778 C18.3464444,19.6926667 18.3464444,19.4373333 18.6997778,19.4053333 C19.052,19.374 19.8386667,18.9435556 19.9991111,18.4973333 C20.1597778,18.0511111 20.1597778,17.6682222 20.112,17.5893333 Z" id="Fill-1"></path>
		</g>
	</g>
</svg>
