<svg width="24" height="24"><g><path d="M22.21 7.9a10.72 10.72 0 0 0-5.82-5.8 10.74 10.74 0 0 0-8.5 0 10.75 10.75 0 0 0-5.81 5.8 10.65 10.65 0 0 0-.86 4.24c0 1.48.28 2.9.86 4.26a10.77 10.77 0 0 0 5.81 5.81 10.63 10.63 0 0 0 8.5 0 10.74 10.74 0 0 0 5.82-5.81 10.7 10.7 0 0 0 0-8.5zm-1.74 9.07A9.6 9.6 0 0 1 8.4 21a9.78 9.78 0 0 1-3.06-2.04A9.72 9.72 0 0 1 3.82 7.33a9.6 9.6 0 0 1 16.65 0 9.35 9.35 0 0 1 1.29 4.81c0 1.73-.43 3.35-1.3 4.83z"/><path d="M12.82 12.07v-6.2a.7.7 0 0 0-.7-.67c-.34 0-.66.3-.66.67v6.3c-.02.21.06.48.2.63l3.6 3.57c.24.24.69.24.93 0a.64.64 0 0 0 0-.93l-3.37-3.37z"/></g></svg>
