<svg width="32" height="32"><g><path fill="none" stroke-width="1" d="M.5.5h31v31H.5z"/><path stroke-width="0" d="M12.9 9.9c-1.7 0-3 1.3-3 2.8v6.6c0 1.5 1.3 2.8 3 2.8H19c1.7 0 3-1.3 3-2.8v-6.6c0-1.5-1.3-2.8-3-2.8H13zM19 24H13A4.8 4.8 0 0 1 8 19.3v-6.6C8 10.1 10.2 8 12.9 8H19c2.7 0 4.9 2.1 4.9 4.7v6.6c0 2.6-2.2 4.7-4.9 4.7zM16 13.6c-.6 0-1.2.2-1.6.6-.5.5-.8 1.1-.8 1.8 0 1.3 1.1 2.4 2.5 2.4s2.5-1 2.5-2.4c0-1.5-.9-2.4-2.5-2.4h-.1m.1 6.7c-2.4 0-4.4-2-4.4-4.3a4.3 4.3 0 0 1 4.4-4.3c2.7 0 4.5 1.8 4.4 4.3 0 2.4-2 4.3-4.4 4.3zm5.2-8.5c0 .5-.4 1-1 1a1 1 0 0 1-1-1c0-.5.5-1 1-1 .6 0 1 .5 1 1z"/></g></svg>
