<svg width="32" height="32" stroke-width="0">
	<path
		d="M10.956 14.528 8.85 16.635a4.606 4.607 0 1 0 6.514 6.515l2.807-2.808a4.606 4.606 0 0 0-1.271-7.414l-.9.9a1.538 1.539 0 0 0-.237.306 3.07 3.07 0 0 1 1.322 5.124l-2.805 2.806a3.072 3.073 0 1 1-4.345-4.345l1.218-1.216a6.169 6.17 0 0 1-.197-1.976z"/>
	<path
		d="M13.829 11.657A4.606 4.606 0 0 0 15.1 19.07l1.19-1.191a3.07 3.07 0 0 1-1.376-5.138l2.806-2.807a3.072 3.073 0 1 1 4.344 4.346l-1.217 1.216c.172.645.238 1.312.196 1.976l2.107-2.107a4.606 4.607 0 1 0-6.514-6.515Z"/>
</svg>
