<svg width="32" height="32">
	<g>
		<path fill="none" stroke-width="1" d="M.5.5h31v31H.5z"/>
		<path stroke-width="0"
					d="M12.027 13.35H9.043a.24.24 0 0 0-.24.24v9.587c0 .133.107.24.24.24h2.984a.24.24 0 0 0 .24-.24V13.59a.24.24 0 0 0-.24-.24zM10.536 8.583a1.97 1.97 0 0 0-1.97 1.967c0 1.085.884 1.968 1.97 1.968a1.97 1.97 0 0 0 1.968-1.968 1.97 1.97 0 0 0-1.968-1.967ZM19.619 13.111c-1.2 0-2.085.515-2.623 1.1v-.622a.24.24 0 0 0-.24-.24h-2.858a.24.24 0 0 0-.24.24v9.588c0 .133.108.24.24.24h2.978a.24.24 0 0 0 .24-.24v-4.744c0-1.598.434-2.221 1.549-2.221 1.213 0 1.31.998 1.31 2.304v4.661c0 .133.107.24.24.24h2.979a.24.24 0 0 0 .24-.24v-5.259c0-2.377-.454-4.807-3.815-4.807Z"/>
	</g>
</svg>
