<svg xmlns:xlink="http://www.w3.org/1999/xlink" width="40px" height="40px" viewBox="0 0 40 40" version="1.1"
		 xmlns="http://www.w3.org/2000/svg">
	<!-- Generator: Sketch 51.1 (57501) - http://www.bohemiancoding.com/sketch -->
	<desc>Created with Sketch.</desc>
	<defs></defs>
	<g id="Kampagnenseite" stroke="none" stroke-width="1" fill="none" fill-rule="evenodd">
		<g id="kampagnenseite/extendend/_SM" transform="translate(-12.000000, -7984.000000)">
			<g id="Share_SM" transform="translate(12.000000, 7984.000000)">
				<rect id="Rectangle-7" fill="#84B414" x="0" y="0" width="40" height="40"></rect>
				<g id="ico/24px/share/white" transform="translate(7.000000, 8.000000)" fill="#FFFFFF">
					<path
						d="M16.0226687,18.6293683 L7.08261143,14.1593397 C6.54304902,14.6798471 5.80891237,15 5,15 C3.34314575,15 2,13.6568542 2,12 C2,10.3431458 3.34314575,9 5,9 C5.80891237,9 6.54304902,9.32015293 7.08261143,9.84066029 L16.0226687,5.37063167 C16.0077053,5.24918566 16,5.12549267 16,5 C16,3.34314575 17.3431458,2 19,2 C20.6568542,2 22,3.34314575 22,5 C22,6.65685425 20.6568542,8 19,8 C18.1910876,8 17.456951,7.67984707 16.9173886,7.15933971 L7.97733131,11.6293683 C7.99229467,11.7508143 8,11.8745073 8,12 C8,12.1254927 7.99229467,12.2491857 7.97733131,12.3706317 L16.9173886,16.8406603 C17.456951,16.3201529 18.1910876,16 19,16 C20.6568542,16 22,17.3431458 22,19 C22,20.6568542 20.6568542,22 19,22 C17.3431458,22 16,20.6568542 16,19 C16,18.8745073 16.0077053,18.7508143 16.0226687,18.6293683 Z"
						id="Combined-Shape"></path>
				</g>
			</g>
		</g>
	</g>
</svg>
