<?xml version="1.0" encoding="UTF-8"?>
<svg width="55px" height="39px" viewBox="0 0 55 39" version="1.1" xmlns="http://www.w3.org/2000/svg" xmlns:xlink="http://www.w3.org/1999/xlink">
    <!-- Generator: Sketch 51 (57462) - http://www.bohemiancoding.com/sketch -->
    <title>Combined Shape Copy 4</title>
    <desc>Created with Sketch.</desc>
    <defs></defs>
    <g id="Symbols" stroke="none" stroke-width="1" fill="none" fill-rule="evenodd">
        <g id="comp/medienmitteilungen/_LG" transform="translate(-574.000000, -60.000000)" fill="#E6F0D0">
            <path d="M598.199789,81.9041096 C598.159045,90.561734 592.220391,97.2197589 582.22249,99 C581.083407,96.4286775 580.439893,94.9965419 580.291948,94.7035932 C586.130502,93.4930169 589.049778,90.8015672 589.049778,86.629244 C589.049778,84.7515559 588.476299,83.176511 587.32934,81.9041096 L574,81.9041096 L574,60 L598.2,60 L598.2,81.9041096 L598.199789,81.9041096 Z M613.02249,99 C611.883407,96.4286775 611.239893,94.9965419 611.091948,94.7035932 C616.930502,93.4930169 619.849778,90.8015672 619.849778,86.629244 C619.849778,84.7515559 619.276299,83.176511 618.12934,81.9041096 L604.8,81.9041096 L604.8,60 L629,60 L629,81.9041096 C628.959045,90.561734 623.020391,97.2197589 613.02249,99 Z" id="Combined-Shape-Copy-4"></path>
        </g>
    </g>
</svg>