<svg width="64" height="64"><g><path stroke-width="0" d="M.9 28.1c0-5.2 1.2-6.8 16-6.8 11.3 0 19.2-7.1 21-9.4 1.8-2.2 3.2-3.7 5.1-3.7 5 0 7.6 9.6 7.6 21.8 0 12.2-2.6 21.8-7.6 21.8h-.7c-3.8-.3-6.8-8.6-13.3-11.8a6 6 0 0 0-8.5 5.3v1.1c0 1.5 2 3 1.3 4.4-.7 1.3-1.4 1.4-3.1 1.4h-4.5c-1.6 0-2.2-.7-2.5-1.8L11.6 39c-2 0-3.7-1.7-3.4-3.9-5 0-7.3-1.4-7.3-6.9zM43.4 47c.5-.8 1-2 1.5-3.6 1-3.5 1.5-8.3 1.5-13.4 0-5-.6-9.9-1.5-13.3a13.5 13.5 0 0 0-1.9-4.1l-.4.5c-.5.7-1 2-1.4 3.6-1 3.4-1.6 8.2-1.6 13.3 0 5.1.6 9.9 1.6 13.4a13.5 13.5 0 0 0 1.8 4l.4-.4z"/><path stroke-width="0" d="M44.4 31.5a1 1 0 0 1 0-2h18a1 1 0 1 1 0 2h-18zM44.8 25.4a1 1 0 1 1-.7-1.9l11.3-4a1 1 0 1 1 .7 1.9l-11.3 4zM44 37.4a1 1 0 0 1 .8-1.9l11.3 4a1 1 0 0 1-.7 2L44 37.3z"/></g></svg>
