<svg width="32" height="32">
	<g>
		<path fill="none" stroke-width="1" d="M.5.5h31v31H.5z"/>
		<path stroke-width="0.31245"
					d="M 13.212707,15.468834 H 12.14069 c -0.276832,0 -0.500858,-0.224338 -0.500858,-0.500857 v -1.845019 c 0,-0.303077 0.189657,-0.571159 0.47555,-0.67208 0.695201,-0.245586 1.928442,-0.975471 2.131848,-3.0841981 0.02999,-0.3112003 0.284642,-0.5530369 0.597404,-0.5530369 h 1.99687 c 0.272457,0 0.493359,0.2209024 0.493359,0.4933592 v 2.9064128 h 2.020928 c 0.276832,0 0.500859,0.22434 0.500859,0.500857 v 2.253706 c 0,0.27683 -0.224339,0.500857 -0.500859,0.500857 h -2.020928 v 3.256357 c 0,0.739882 0.357444,1.023275 0.697703,1.023275 0.268081,0 0.732382,-0.117169 1.073891,-0.215279 0.241524,-0.06936 0.476799,0.02343 0.577408,0.298703 0.100608,0.275268 0.638961,1.822523 0.638961,1.822523 0.09842,0.280893 -0.0025,0.590843 -0.245899,0.762379 -0.460864,0.324949 -1.327289,0.769564 -2.618334,0.769564 -2.005305,0 -4.245886,-0.891108 -4.245886,-4.216204 0,-0.66052 0,-3.501318 0,-3.501319 z"
		/>
	</g>
</svg>
