<svg width="32" height="32"><path stroke-width="0" fill-rule="evenodd" d="M22.1155 11.0552c.6774-.4058 1.1973-1.0486 1.4426-1.8152a6.5543 6.5543 0 0 1-2.0847.7958A3.2786 3.2786 0 0 0 19.0773 9c-1.8125 0-3.2821 1.4694-3.2821 3.2815 0 .258.0285.5078.0848.7478-2.7285-.1373-5.147-1.4431-6.766-3.4293a3.2705 3.2705 0 0 0-.4448 1.651c0 1.1378.5791 2.1428 1.4606 2.7309a3.2702 3.2702 0 0 1-1.4869-.4095c0 1.632 1.1313 2.9574 2.6332 3.259a3.227 3.227 0 0 1-.865.1155 3.2211 3.2211 0 0 1-.6174-.0585c.4171 1.3036 1.6294 2.2531 3.066 2.2786-1.1238.8806-2.5386 1.4049-4.0773 1.4049-.2648 0-.5258-.015-.7824-.0458C9.4524 21.457 11.1785 22 13.0323 22c6.0382 0 9.339-5.0006 9.339-9.3375 0-.1432-.003-.285-.009-.4245A6.666 6.666 0 0 0 24 10.5391a6.5416 6.5416 0 0 1-1.8845.516z"/></svg>
