<svg width="16" height="13"><path fill-rule="evenodd" d="M14.116 2.055A3.29 3.29 0 0 0 15.558.24a6.554 6.554 0 0 1-2.085.796A3.282 3.282 0 0 0 7.88 4.029 9.319 9.319 0 0 1 1.114.6a3.27 3.27 0 0 0-.445 1.65c0 1.139.58 2.144 1.46 2.732a3.27 3.27 0 0 1-1.486-.41c0 1.632 1.131 2.958 2.633 3.26a3.227 3.227 0 0 1-.865.115c-.211 0-.417-.02-.617-.059a3.283 3.283 0 0 0 3.066 2.279A6.586 6.586 0 0 1 0 11.527 9.296 9.296 0 0 0 5.032 13c6.039 0 9.34-5 9.34-9.337 0-.144-.004-.285-.01-.425A6.666 6.666 0 0 0 16 1.539a6.542 6.542 0 0 1-1.884.516z"/></svg>
