<svg width="32" height="32"><path stroke-width="0"  fill-rule="evenodd" d="M24 15.794c0 4.304-3.516 7.794-7.854 7.794a7.863 7.863 0 0 1-3.797-.97L8 24l1.418-4.182a7.71 7.71 0 0 1-1.127-4.024C8.29 11.49 11.807 8 16.146 8 20.484 8 24 11.49 24 15.794zm-3.888 1.795c-.049-.08-.177-.127-.369-.223-.193-.095-1.14-.558-1.316-.621-.176-.064-.305-.096-.433.095s-.498.622-.61.75c-.112.127-.224.143-.417.047-.193-.095-.813-.298-1.549-.948a5.81 5.81 0 0 1-1.07-1.323c-.113-.19-.012-.294.083-.39.087-.086.193-.222.29-.334.096-.112.128-.192.192-.32.064-.127.032-.238-.016-.333-.048-.096-.433-1.036-.594-1.419-.16-.382-.32-.318-.433-.318-.112 0-.24-.016-.37-.016a.709.709 0 0 0-.512.239c-.176.19-.674.653-.674 1.593s.69 1.849.786 1.975c.096.128 1.331 2.12 3.289 2.885 1.957.765 1.957.51 2.31.477.353-.031 1.14-.461 1.3-.908.16-.446.16-.829.113-.908z"/></svg>
