<svg xmlns="http://www.w3.org/2000/svg" id="Layer_1" data-name="Layer 1" viewBox="0 0 970 625.7"><defs><style>.cls-1{fill:#84b414}.cls-3{fill:#fff}</style></defs><path d="M386.3 2.8l-.9-.3.9-.1v.4z" class="cls-1"/><path d="M209 86.3c.3.6-.8.4-1.4.4.3 0 .8-.7 1.4-.4z" class="cls-1" transform="translate(179 -84)"/><path d="M212.7 86.9c1.4-.2 3.5 0 5-.8-.1-.5-1 .1-1.3-.1 1.5.1 4.4-1 5.4.4.6.2 1.2.2 1.5-.2.5-.9 1.8.8 2-.7-.4-.6-.6-.3-1-.2 3-.9 6.5 2.6 9.6 0v-.6c2 0 4-.4 5.9 0l-4.4.7c.7 1.2 1.7-.4 3 .7 1.4-1 3.3.3 4.3-1.9l-.5 1.5c2.4-.5 5.4.4 6.7-1.1h-.3c1 1.3 3.8-.7 5.6 0h6.8a.7.7 0 0 0 .7 1.2l1.1-.4c-.3-.3-.6-.6-.9-.5 1.1-1 3.6.3 5.4 0 .2.4-1.8.8-.2 1.6l1.6-1.6.7 1.4c.9 0 3-.6 3.1-1.8 1 0-.2 1 .1 1.2.4 1.1 1.7-1 1.6.8.9-.1 2.2-1.4 3.2-.3 2.3-1.1 4.5.5 6.8-.6 2.7 1.2 5.8-.2 8.9.4 0 .6-.9.7-.8 1.3l.3.2c1.9-2.5 7.6-1 10.3-.3.3-.3 0-.9.5-1 .7.6 1.4 2 2.8 2l.3-.7c0-.6-.6-.6-1.2-.5h-.6c.5-1.2 1.4-.2 2.3-.2-.3.3.4.8 1 1.1 0-.6.5-1 .2-1.5 3 .9 6.8.3 9 1.6.9.2 1.8.7 3 .3l-.7-.6c1.8-.1 3.6 0 4.6 1.1.8-.3 2-.7 2.1.7.2-1.7 3.8-.6 5.5-1 1.1 2 3.1 1.2 5.2 1.6.3-.3 0-.6 0-.9l1.5 1.4c.9-.4.3-.6-.1-1.2 1.5-.4 2.4.7 3.9.3-1.1.6-2.4-.7-3.2.5-.6.7.6.3.7.9 1.3-1.6 3 .9 3.4-1.2.4 1.1 1.2.2 1.8.1 6.4 1.8 14 1.2 20.3 3l-.5.6c1.8.7 4.4-.4 4.6 1.7 1.4-.5 1.5-2.8 3.7-1.3l1.5-.4-.5.7c.9.2 1.4.1 1.6-.8l-.2.3 1.5.5-.5.7 2.3-.2-1.4 1c1 4 5.8 1.8 7.7 2.8v.3c1.2.2 2-.2 3.5.3-.4-1.1-2.4-1.2-3.7-1.7h.3l-.6-.9-.8 1-5.1-.4c.8-.4 2 .1 2.6-.8l-2.7-.4c1.2 0 2.8-2 3.8-.3 1.7-1.6 3.4 1.5 4.8.2 1 1.6 2.3 0 3.8.2-.7 1.6 1 2 2.3 1.9l-4.1.6c.3 1 2.6-.2 3 1.3l1.2-.1c-2 .7.2 2.6-.6 3.5 1.1 2 1.8.2 3.4 1 2.2 1 4.5 1 6.9 1.4l-.7-.8c3-.3 6 3 8 .7 2.4-.7 3.3 2.8 5.7.4 5.6 2.5 13.1.7 18.4 3.2l1.3-1c.4.3.4.8 1 .8a4.5 4.5 0 0 0-1.9 1.6l1.2.8c-.2.3-.8-.2-1 .7a228.2 228.2 0 0 0 23.5 1.8v.9c-15.7-.7-31.5-2.6-47-3-.8 1.2-2.1-.7-2.5 1 1.8.8 4.6-.6 6.8.4l1 .5c0-2.1 2.5-.6 3.8 0a48 48 0 0 1 12.7.6c.4.3.1 1 .7.9l.2-.6c2.1.7 4 1.4 6 1l.3-1c4.4.2 8.1 2 12.5 1.6-2 1-5.7-.4-8.3-.2-13.3-.3-26.4-1.8-40.1-2.4-1.6-1.3-4.2 0-6.3-.6-6.2-.7-13.4-1-19-1.9-3 1.1-6.7-1-10.2-1-1.6-.7-3.3 2.7-3.9.1-.9-.2-2.7-1-3.5.3l-85.2-7.3c-46.8-3.6-100.4 2-146.3 15.2-50.5 16.5-93.4 47.5-133.3 85a143.6 143.6 0 0 1-19.1 18.5c-2.1 2.2-3.4 5.6-6.1 7.6h-.6c9.7-20.4 30-38.7 45-55.4 5-4.9 11.5-8.4 15.2-13.7H31c5.1-2.2 9.2-9.1 14.6-12 .3.3.3.6.6.6.3-.3.6-.3.6-.6l-.3-.3c3-2.7 7.5-4.9 10.8-7.5 4.7-4.5 10.5-5.3 14.8-9.9 3.8-1.5 6.5-4.4 10.8-5 .5-1.5 2.2-2.2 3.7-2.7v.3a305 305 0 0 1 28-13.7l1 .5c1.8-3.1 5.8-1.4 8.2-4.2 1.9 1.3 5-.8 7-1.5-1.3-.8-2.4.5-3.2.8.5-.9 3.4-2 4.6-1.3 1.3-2.1 4.6-1.5 6.3-2.9.2-.6 0 .6.3.9 1.9-2.6 7.2-2.4 9.8-3l5-1.6c-.7-.8-3.3 1-5 1l12.7-3.4.6.5c.5-1.2 3.7-1.8 5.2-2l-.3.4c.6.5 1.5.1 2.4 0l-1.5-.7c2 .1 4.3-1.3 6.2-.3l.5-.6-1.3-.5 2.4-.2v.6l1.8-.1v-1c2.8-1.4 3 1 6-1l-.5.6c.9 0 2.4.3 3-.6h-2.2c.6-.7 1.8-.5 2.6-.5-.1.9.7 1.1 1.4 1l2.2-1c-.4-1.2-.9 0-1.5-.2 1.6-2.5 1.7 2.5 2.9-.9.3.6.4 1.5 1.3 1.4l.2-.6-.3-.3 1.5-.1s-.3.3 0 .3c0 .3 0 .3.3.3l.5-.7-.3-.3 4.6-1.3.1 1.2 4.7-.7-1.8-.7 3.5-.3-.5 1c2.1.6 3.8-1 6.2-.6l-.4-.9 1.8-.1v.9z" class="cls-1" transform="translate(179 -84)"/><path d="M223.4 85c.4.6-1.7.8-1.8.2l1.8-.2z" class="cls-1" transform="translate(179 -84)"/><path d="M412.2 1.1l-1.8-.8 1.8.5v.3z" class="cls-1"/><path d="M246.4 84.2v.3l-1.2-.5a1.8 1.8 0 0 1 1.2.2z" class="cls-1" transform="translate(179 -84)"/><path d="M358.6 7l-.8.6-.1-.3.9-.3zM475.9 2.6v-.3l1.2.2-.3.3-.9-.2z" class="cls-1"/><path d="M350.9 91.3c0 .3-.6.7-.9.7.3-.3.6-.6.9-.7z" class="cls-1" transform="translate(179 -84)"/><path d="M554.9 13.2v-.4h1.2v.3l-1.2.1z" class="cls-1"/><path d="M394 97.3l-.3.6.2-1.4s.7.5.1.8z" class="cls-1" transform="translate(179 -84)"/><path d="M575.2 12.3V12l.9.2v.3l-.9-.2z" class="cls-1"/><path d="M398.6 96.3c0 .3-.6 0-1.1.1.3 0 .8-.6 1.1 0zM399.8 96.8c-.8.7.1 1.2.5 1.8-1-.3-1.1.7-.8 1.2-.6-.5-2-.4-1.7.2a1.4 1.4 0 0 0-.2-1.5c-.6-.5-1.4-.1-2 0 .7-1-1-.3-.7-1.2 1.8 1 3.2 0 5-.5z" class="cls-1" transform="translate(179 -84)"/><path d="M581.9 13.4l-.7-.8.6.5.1.3z" class="cls-1"/><path d="M406 98.7c-.6.9-3.7-.3-2.6 2 1.6.7 2-.5 3.2-.9l-.3-.5c1.8 0 1.3-2 2.9-.3l-.8 1c.3 0 0 .2 0 .5-.3-.8-1.8-.1-2.3.5 2.2 2 2.8-1.7 4.9-1.2.4-2.2 2 .3 2.6-.9l-.3.3c.7 1.1 1.7-.4 2.6-.5-1.1.7.2 1.8.2 2.4-3.2.5-5.2-2.8-6.8.3 2.3 1.5.8-1.3 3-.9l-1.4 1 7.8 1.4.2-.6 15.3 2.2 1.6-1.6c-1.9 2.2 1.3 1.3 2 2.2 4.6-1 10.1 1.1 14.6 1 3.2.3 7.7.5 11.2.5 8.5 1.4 16.6 3.6 26 2.5-2-.4-5.4 2-7.3.7-2.6.2-7.4 0-9.7.2-1.4-2-4.1.6-6.3-.6.3 0 0-1 .2-1 1.2 0 2.4.4 3.2 0-1.5-.7-4.3-2-5.5 0-2.6 2-5.5-1.3-7.7.3l-1-.8c-.2.3-.2 1-.8 1-1.2-3.5-4.8-1.4-6.8-.9l.2-.3c-1.2 0-2.8-1-3.2.6h-.6c-.3-.6.6-.7.5-1.3-.6-.5-1.2.1-2 0l.6 1c-1-.5-1-1-2.3 0h-.7c.3-.7.8-1 .5-1.9-.3.4-1.8 0-1.7 1v.3l-1-1c-.2 1.1-.9 0-1.8 0-2-.3-4.3 1.4-6.2-.3 1.2-.4 2.1.7 3.3.4-.4-1.2-3.4-1.2-4.5-.8-1 1.5-2.8-1-4.8-.8l-.8 1.3-1-.9.5-.6.4.5c1.6-1.6 4.4.3 6.1-.5-4.3-2-9.7 0-13.2.6l-.4-1.2-.6.4c-.6-1.1-3-.6-4.4.4.2-1-2.7-.7-3.6-1.5l-1.5.4c1-1.8 3.5-.3 5.2-1v.6l4.8.2c-5.8-2.5-14-1.5-21-3 1.8-1 5.2 1.4 7.4-.9l-2.1-.4 2.3-.5-.7-1.4c.4 1.4 3 .6 4.2 1.1zM397.4 99.1c-.6 0-1.7 1-1.8-.1l1.8.1z" class="cls-1" transform="translate(179 -84)"/><path d="M418.2 100c2 .7 4.4-.2 5.7 1 2.6-3.3 3 1.7 6.2.3 1-1.3 1.8-.2 3.2-1.2a.7.7 0 0 1-.2 1.2c.6.9 2.5-1.4 2.4 1a15 15 0 0 0-3.8-.3l1.2.8-2.3.2.8-.3c-.3-.6-.7-1.2-1.5-.8-.6 0-2 1.6-3.2.9l1-.7c-.6-1.5-2.6-.4-3.8-1.2v.6l1.6.8c-2.1-.4-7 .6-9-2.2l1.6-1.3.1 1.1z" class="cls-1" transform="translate(179 -84)"/><path d="M599.8 15.4l-.7-.5h.6l.1.5z" class="cls-1"/><path d="M398 102.9c.6-.3 1.5.2 1.7-.8l6 .7a16.7 16.7 0 0 1-2.3 1.4l-.1-1.5c-2.6.8-2.4-.7-4 1-1.9-1-6 .2-5.9-2.2 1.8.2 4.5 0 4.6 1.4z" class="cls-1" transform="translate(179 -84)"/><path d="M608.7 15.8l-1.5-.1 1.5-.2v.3z" class="cls-1"/><path d="M446.8 103v.3c-1 1.3-2.7-.6-4.4.4-1.2-1.3-3.8-.5-6-1.2l1.7-.4v-1c3 .7 5.8 2 8.7 2zM443.5 101.9h-1.2c.3 0 .5-.9 1.1-.6v.6zM407.4 105v.6l-.6-.8.6.2zM448.4 101.7c-.7 1.5-3-.3-3.5-.2l3.5.2zM414.4 104.4c0 .6-.5 1-.8.7s.5-.7.8-.7zM450.7 103.6h-3v-.6c1.1-.4 2 .4 3 .6z" class="cls-1" transform="translate(179 -84)"/><path d="M605.4 22.3l-.9-.2.9-.1v.3z" class="cls-1"/><path d="M447.9 104.7l-1.2.1c.2-.6.5-.6 1.1-.6v.5zM453.1 103.7c-.3.3-1.7.7-1.2.1l1.2-.1z" class="cls-1" transform="translate(179 -84)"/><path d="M640.6 19.2l.3-.3 1.9.8-2.2-.5z" class="cls-1"/><path d="M470.7 105.4c-.5 1-1.9-.7-2.3.8l1 .5c-1 .4-3-3.3-3.6-.3l-1-.2h.3c-2.8-1.8-7.8-2-11.6-1 1.9-2.6 5.3-1 8-.7a31 31 0 0 1 9.2 1z" class="cls-1" transform="translate(179 -84)"/><path d="M636.7 21.7l-.9-.3h.9v.3z" class="cls-1"/><path d="M471.2 104.2c-.3.3 0 .3 0 .3l-.6-.3h.6zM473.9 104.3c-.3.3-.6.6-.3 1.1.4 1 .9-.6 1 .3-.9.6-3-.4-3.8.9-.1-1.2 2.2-2 3-2.3zM476.5 104.3a1.4 1.4 0 0 1-1.7.5c.2-1 1-.7 1.7-.5zM477.2 105.7c-.2 1-1.2.1-2 .5l.3-.6c.6.2 1.1-.4 1.8.1zM480.2 105.5c-.9.6-1.2 0-2 .5v-.6c.5.2 1.4-.2 2 0zM464 111l-24.2-.2 1.2-.1-3.4-1.5.3-.4c8.6 1.4 17.8 1.5 26.2 2.2zM482.5 105.6l-1.5-.2a.9.9 0 0 1 1.5.2z" class="cls-1" transform="translate(179 -84)"/><path d="M629.6 24.6l.5-.6 1.5.2-2 .4zM659.5 22.6l.9-.7.6.6-1.5.1z" class="cls-1"/><path d="M488.5 106c-1 2.7-3.9 0-5.6.4 1.7-1 4.3 1.7 5.6-.5zM477.8 108.4c-.6.3-.4-1-.5-1.5 1 .2.4 1.1.5 1.5z" class="cls-1" transform="translate(179 -84)"/><path d="M658.2 23.9l-.1-.6 1.5.2-1.4.4z" class="cls-1"/><path d="M491.6 107.2l-2.4-.2c.5-.9 1.7-1 2.4.2z" class="cls-1" transform="translate(179 -84)"/><path d="M661.2 24l.8-.4 1.5-.2-2.3.6zM619.8 28.1v-.5l1.4-.1-1.4.6zM626 27.9v-.5l1.5.1-1.5.4z" class="cls-1"/><path d="M488.7 108.3c-.3.6-1.5.4-1.8-.2.6 0 1.4-.4 1.8.2z" class="cls-1" transform="translate(179 -84)"/><path d="M669.8 24.7l-1-.5.9-.1.1.6z" class="cls-1"/><path d="M453.9 112.8l-3-.3c.7-1.9 1.8.4 3 .3zM467.6 111c-.3 0-1.3 1.6-1.7.2.5-.7 1.2-.2 1.7-.2zM460.7 113.1l-1.1.1.1-.9c0 .3 1 .2 1 .8zM439.6 114.4a2.9 2.9 0 0 1-2.7.5c.9-.7 1.7-.5 2.7-.5zM492.1 110.6h-7c1.6-2 4.8.8 7-.6v.6zM464.6 113.3l-1.2.2.3-.4-1.3-.7c.9-.1 2.1 0 2.2 1zM462.9 114.4c-.3 0-1.2-.5-1.5.4l7.3 1.4a18.3 18.3 0 0 1-9.3-1.8zM472 116.5l-2.3.3v-.7c.5.3 1.7-.1 2.3.4zM485.8 119.5h-6.5v-.7c3 0 3.9.6 6.5.6zM510.4 119.7c-.6 3.9 4.4 6.7.3 10.3-3.4 1.8-4.3 5.4-7.7 6.9.2 2-1.5 2.8-3.2 3.2l-7.3-1.1c-3.2 3.5-6.7 6.8-10 10l.3.6-1.7.4c1.3 1.4-1.6 2.5-2 3.7-2 0-.4 2.4-2.5 2.6.4.3.7.2 1.2.2-.8.4-1.5 1.9-2.3.8-1.4 1-.3 3.3-3 2.3v.6a1 1 0 0 0-1.4 1c-.2.6.7.5.7.8.3-.6 1.4-.7 2-.7l-3.2 4.4-.4-1.2c-.9-.5-2 1.1-1.6 1.7.6.2 1.2-.1 1.8-.2l-2 2.2c-.3-.8-1-.1-1.4.2l.7.8-3 .6c2 1.3-.5 3.3-1.6 3.7a4.3 4.3 0 0 0-1.1 1.2l.6.6h-.3v.6a4.8 4.8 0 0 0-4.1 2.4l1.5.1-1.8.8 1 .5c-.6 0-.8.7-.8 1.3a7.9 7.9 0 0 0-3.2 1.1c0 .3.4.6.4.9l-.5.6c-.4-.9-1.3-.5-1.9-.4l1.4 1.3c-1 3.4-4.2-.5-5.5 2.3.7 1.1 2.6-.8 2.5 1.3-1.1.3-1.2 2.4-2.8 1.7-1-1.4-3.3 2.6-5-.2-.9.1-2.5 1.7-1 1.9-.7-1.1-2 .8-2.9 1.2l.7 1-2.5 2c1.9.5 2.3-1.3 3.4-2l-.1-1.5c.7 1.7 1.7-.5 2.3-.8 2.4.4 5-1.3 7.3-1.2l-.9.3.6.6c-1 1.6-3.8-.3-4.9 1.3a1.3 1.3 0 0 1 .7.8 2.6 2.6 0 0 1-2.2-1.2l-2 2 1.2.2-1.3.7c.3.9 1.7-.1 2.6-.2v.3l2 .1c-2.5 1.4-3.8 3.3-6.7 4.1l.1-2c-1.4-.2-1.5 2.4-3 2-1.1 1-3.3 3.2-5.2 2.2.6-.3 1.8-.1 1.4-1-1-.7-1.7.5-2.8 1v.5c-1.7-2-2.5 1.4-3.6 2 1.2.6 2.2-1 3.7-.8l-2.7 2.6c.5-.6-.7-1.4-1.6-1.3-1.2 0-2 .7-2.7-.1l-3 2c1.2 1.4 2-.7 3.5-.3l-.8.7.3.8-.6.4-.3-.6a26.8 26.8 0 0 0-3.7 2.4l1.4 1c-2.8-.6-5.2 2.6-7.4 4l-.3-.3c-1 3.3-4.5 2.5-5.7 5.5-1.9-.4-2.5 2.3-4.9 2.5-3.4 4.7-10 4.1-13 9.1.2 0 .3.6 0 .6-3.3-.3-5.6 4.4-9.4 5 .7-2.5 4-2.1 5-4 2.5-1.7 6.2-4.4 8.9-6.7.6 0 1.1-.7 1.6-1.4-.4-1.1-1.7 0-2.3.6l.5-1.3c9.7-7.3 18.2-18.1 27.6-25.5l1.4-1.9c-4.6 1.6-7.4 7-12 8.5 2.7-2.9 6-4.7 7-8.3l.5.2 25-28.8.4.9 1.5-2.5.7.5c-.5-2 1.6-1.3 2.4-3.1 4.7-7.3 11.2-13.7 15.6-20.7h.6c0 .4-.3.4-.5.7 2.9-.3 3.9-5.7 7.2-5.4 3-3.2 6-6.4 9.3-8.5l-1.2-.8c.1-1.4 1.7-.4 2.2-1l-.4-1.2c8.5-1 14-8.6 23.3-8 1.8-2.5 4.5.2 6.5.4z" class="cls-1" transform="translate(179 -84)"/><path d="M441.7 196.4c-.3 0-1.1 1-1.2 0h1.2zM434.4 204.7l.3.3-3.3 2-.7-.8c-1.4 1.3-3.1 1.2-4.5 2.5.4.5 1 .2 1.2.2-2.6 1-3.9 2.7-6.5 3.8h2.1l-3.8 1c.1 1.3-2.6.3-1.3 2 1.5.1 3.2-1.2 4.6-1.3a52 52 0 0 0-13.2 7l1 .9c-1.1 1-1.8-.2-3.2.5.7 1.4-1.7.7-2.2 2-1.1.7-2.2 2.3-4 1.5 4.6-1.3 6.8-6.5 11.7-7.8l8-7-.2.7c2.3-.5 4.1-3.3 5.7-5l.4.6 4.9-4.8c2.1 1 3.2-.9 4.9-1.4-.2-1.7 1.7-.1 2.2-1.3 1.4 2.2-2.7 2.3-4 4.5z" class="cls-1" transform="translate(179 -84)"/><path d="M610.2 121.3l3.1-2.1h.6l-3.7 2.1z" class="cls-1"/><path d="M425.9 205.2c.7 1.7-1.1.7-1.6 1.9l-.4-.6c1.2.2.8-1 2-1.3z" class="cls-1" transform="translate(179 -84)"/><path d="M612 121.1v-.3h.5l.1.3h-.6zM603.6 124.2l-.8-.5.8-.1v.6z" class="cls-1"/><path d="M428.6 209.3c0 .7-1.3 2-2.4 2.3-.2-1.4 1.3-2.1 2.4-2.3z" class="cls-1" transform="translate(179 -84)"/><path d="M595.8 128.7l-.6-.2h.6v.2z" class="cls-1"/><path d="M425.9 211.7a3.1 3.1 0 0 1-2.2 1.7c-.1-1 1.3-1.4 2.2-1.7zM419.3 217.6h-.3c-.6-.6.8-.7 1-1.6.4.5-.2 1.2-.7 1.5zM418.5 218.2c-4 2.1-6.6 5.7-11.2 7.5 4.3-1.8 6.5-6.2 11.2-7.5z" class="cls-1" transform="translate(179 -84)"/><path d="M585.2 142.7l-.3-.3h.3v.3z" class="cls-1"/><path d="M399.5 228.4l.7.6c-.8 1-3 .2-3.4 1.8-.5-2.6 2.4-2.3 4-4l-1.3 1.6zM400 230.8l4.5-3.4c.1 2.1-3 2.7-4.5 3.4z" class="cls-1" transform="translate(179 -84)"/><path d="M570.7 146.1l.5-1 .6-.1-1.1 1.1z" class="cls-1"/><path d="M392.9 233.8c-2.6.5-4 4.5-6.5 3.5v-.9h.5l-.2.3c.6.2 2-.2 1.6-1 1 .5 2.3-1.4 2.9-1.7h-.7c.3-.9 1.8-.7 2.3-1l3-2.7c.8 2.3-3.2.9-3 3.5zM399.5 231.7l-.6-.5a.6.6 0 0 1 .6.5zM398.7 232.4c.3.5-.6.3-1.2.4l.8-1 .4.6zM397 233.4a1.1 1.1 0 0 1-.2.6v-.5h.2zM395.9 234.1l-.3.6-.3-.5s.6-.4.6 0z" class="cls-1" transform="translate(179 -84)"/><path d="M557.5 154.6l.2-1.2.9-.1-1.1 1.3z" class="cls-1"/><path d="M386.5 238.2v.6c-1.8-.7-3.6 2-5 2.5l1.3-1.9c0-.3-.7 0-.4-.3l1.8-.1-1-.5h.3c.5 1.7 2-1.4 3-.3z" class="cls-1" transform="translate(179 -84)"/><path d="M560.3 156.1l.2-.6h.4l-.6.6zM557.3 159.1l2.6-1.5-2.5 2-.1-.5z" class="cls-1"/><path d="M377.6 244.6c-.6 0-1.2.4-1.8.4l1.4-1.6a2 2 0 0 1 .4 1.2zM375.2 244.8h-.6l.3-.6c.5-.3.3.3.3.6zM373.3 246.1h-.6l.2-.8c.3 0 .3.5.4.8z" class="cls-1" transform="translate(179 -84)"/><path d="M398.1 63.2l.3-.3.9.2-1.2.1z" class="cls-1"/><path d="M198.9 152.6c-.6.6-3-.4-4.3-1.2l-.3-.8a6 6 0 0 1 4.6 2z" class="cls-1" transform="translate(179 -84)"/><path d="M402.4 64.9l.3-.3 3.3 1.5-.2.3-3.4-1.5z" class="cls-1"/><path d="M399 140.4c0 .6-1.2.4-1.5.4-.7-.6.8-1 1.4-.4zM387.9 142.5c0 .3-.3.3-.6.7l-.3-.3.2-1 2.1.5-1.4.1zM385.2 142.8l-.2.3-.7-.6c.6-.3.6 0 1 .3z" class="cls-1" transform="translate(179 -84)"/><path d="M569.8 58.3l-1.2-.2.9-.1.3.3zM561 59v-.3l1.5.2v.3L561 59z" class="cls-1"/><path d="M379.1 143.6c0 .9-1.4 1-2.3 1a2 2 0 0 1 2.3-1zM376.2 144.4c-.2 1-1.2.1-1.5-.1a2.3 2.3 0 0 1 1.5.1zM361 146.7h-.9c-.3-.5.3-.6.8-.6v.6zM370.7 145.5v.3l-1.2-.5c.5 0 .9.5 1.1.2zM359.6 146.8l-3.2 1.1c.6-.6 2-1.9 3.2-1.1zM366.6 146.2a.3.3 0 0 1-.3.3h-.3v-.6c.3 0 .6 0 .7.2z" class="cls-1" transform="translate(179 -84)"/><path d="M548.3 61.9l-1.5-.1 1.1-.2.4.3z" class="cls-1"/><path d="M354 148.4l-.8.1a.6.6 0 0 1 .8-.6v.5zM353.6 149.7c-.5-1.8-2.4-.1-3.9-.6.3-.3 4-1.5 3.9.6zM362 147.4c-1.3 2-4.7 1-6.7 1.8 1-1.8 4.7-.7 6.7-1.7z" class="cls-1" transform="translate(179 -84)"/><path d="M518.8 67.2l6.7-1.8 2.3-.2-9 2zM517.4 67.9l-.1-.9.9-.1-.8 1z" class="cls-1"/><path d="M349.5 150.3c-.2.3-2 1.4-2.9.6-3.6 2.7-8.8 1.3-12.7 3.5 4.5-2.5 10.1-3 15.6-4z" class="cls-1" transform="translate(179 -84)"/><path d="M510.7 69.1l2.9-.9 1.8-.1-4.7 1z" class="cls-1"/><path d="M320.9 154.3c0 .6-1.7.7-1.5.1h1.5zM332.7 153.9c-.6.6-1.7.7-2.3 1v-.8l2.3-.2zM329.2 155l-4.8 1.7c.8-.4 2.7-2.3 4.8-1.6zM351 154.3c.1.6-.2.6-.5 1l-.3-.9h.9zM342.6 155.6c-.6 0-1.1.8-2 .5.2-.9 1.4-.7 2-.5zM346.1 155.7c0 .2-1.4.7-2.3.7a2.3 2.3 0 0 1 2.3-.7zM347.9 155.5c0 .3-.6.3-1.1.4-.1-.9.8-.4 1-.4zM351.2 155.8c-1.2 0-2.3.8-3.5.6.8-.7 2.3-.5 3.5-.6zM330.7 158.5c-.5.6-2 .8-2.8 1.1.2-1.2 2-.7 2.8-1.1zM294.4 163.1c-5.3 3.5-12.4 3.5-18.4 5.8 5-3.4 12.5-3.2 18.4-5.8z" class="cls-1" transform="translate(179 -84)"/><path d="M485 79.3l-1.5-.5 1.2.5h.3z" class="cls-1"/><path d="M272.6 169.8c-.6.9-1.5.7-2 .7l1.3-1.6.7.9zM261.6 172.8c1.6-1.6 5.4-2 7.7-2.4l-7.7 2.4zM259.2 173c.1.9-1.1.7-1.7.8.2-.7 1.1-.8 1.7-.8z" class="cls-1" transform="translate(179 -84)"/><path d="M407.8 95.8l.2-.6 1.2.2-1.4.4zM409.9 96.8v-.6l1.2-.1-1.2.7zM402.6 97.5l-.1-.6 1.2.1-1.1.5z" class="cls-1"/><path d="M230.4 180.9l-1 .3-.3-.5c.6-.1.9-.4 1.3.2zM228.6 181.3l-2.3.8c.6 0 1-1.3 2.3-.8zM224 183.2h.9a2.7 2.7 0 0 1-2.6 1l1.7-1a.4.4 0 0 0-.6 0c.2-.8 1.7-.4 2.3-1.3l-1.7 1.3zM220.5 183c.3.2.3.5.4 1l1.1.3c-1.5 2.1-3-1-4 1.5 0-.9-.4-2 .7-2.5l-4.3 1a4.5 4.5 0 0 1 5-.7c-.1-.8.8-.3 1-.7zM232.5 181.6c.3.8-.6.6-.8 1l-.1-.9h.9zM64.3 197.2l-2.3.2v-.6c.9-.4 1.5.1 2.4.4zM225.6 184.5a8 8 0 0 1 5.5-2l-5.5 2z" class="cls-1" transform="translate(179 -84)"/><path d="M390.5 100.9l.8-.4.9-.1-1.7.5z" class="cls-1"/><path d="M215.4 185.7l.1 1.5 5.5-1.7-7.7 3.4 1.9-1.7c-.3-.3-.6 0-.9-.2 0 0 .8-.7.8-1l-5.8 2c2-.7 4.1-4.4 6-2.3z" class="cls-1" transform="translate(179 -84)"/><path d="M211.5 185.8c-.2.9-2.6.8-3.7 1.5.7-2.5 3-.3 3.7-1.5z" class="cls-1" transform="translate(179 -84)"/><path d="M386.1 102.2l.4.2-.6.6v-.2l.2-.6z" class="cls-1"/><path d="M219 189c3.3-1.5 7.6-3.3 11.7-3.7L219 189z" class="cls-1" transform="translate(179 -84)"/><path d="M401.8 105.2l12-4 .6-.1-12.6 4.1zM383 103.9l.3.3-.8.3h-.3l.8-.6zM378.1 105.2l.6-.3-.6.3z" class="cls-1"/><path d="M194 191.4h-.3l1.3-1.3c.4.9-.4 1.2-1 1.3zM84.5 201.3l-2.7-1c1.2 0 2.4.1 2.7 1z" class="cls-1" transform="translate(179 -84)"/><path d="M414.4 104.4l2.9-1.1-1.2.7-1.7.4zM265 117.2l-.9-.5.8-.1.1.6zM391 107h.3l-.8.7h-.3l.8-.7z" class="cls-1"/><path d="M240.8 188.5c-.9.7-1.4 1.3-2.6 1.2a6.4 6.4 0 0 1 2.6-1.2z" class="cls-1" transform="translate(179 -84)"/><path d="M396.6 107.5l.3-.4h.3l-.6.4z" class="cls-1"/><path d="M237.6 189.4c-3.4 2.4-9 2.8-13.2 4.7v.6l-10.7 3c7.5-2.8 15.7-6.5 23.8-8.4zM197.6 195h-1c0-.5.6-.3 1 0z" class="cls-1" transform="translate(179 -84)"/><path d="M387.7 113.3l7.7-3.7.9.5-8.6 3.2z" class="cls-1"/><path d="M226.5 195.1c-1.4.4-.7 1.8-2.8 1.7.5-1.5 1.7-1 2.8-1.7zM216.6 199.8l.2-.9-1.2-.2c2.3-.8 4.7-.7 7-1.8l-6 2.9z" class="cls-1" transform="translate(179 -84)"/><path d="M294.5 123.2l-1.2-.5.9-.1.3.6zM349.8 119.2h.3l-.1-.3h-.3l.1.3z" class="cls-1"/><path d="M216.3 199.6c-.3.3-1.2.3-1.7.7a1.3 1.3 0 0 1 1.7-.7z" class="cls-1" transform="translate(179 -84)"/><path d="M380.5 119.2v-.3l1.8.1-1.8.2z" class="cls-1"/><path d="M196.4 205.7c.5-1.2 2.3-.5 2.8-2l.7.6-3.5 1.4zM111.5 222.6c6.6-3 10.5-5.6 17.1-7.7a93.5 93.5 0 0 1-17 7.7zM82.6 233.4c-.5.7-1.7.8-2.3 1.1.3-.6 1.5-.7 2.3-1zM79.5 234.6c-.6.3-1.1 1.3-1.7 1 0-.3 1-1.3 1.7-1zM131.2 234c-1.3-.9-1.2.3-2 0a8.4 8.4 0 0 1-5.8 2.7c-.6 0-1.4-.2-1.2-1.1 3.2-.9 5.7-2.6 9-4 1.3.2 0 1.8 0 2.3z" class="cls-1" transform="translate(179 -84)"/><path d="M275.4 151.8l.1.3-.6.3-.3-.3.8-.3z" class="cls-1"/><path d="M61.5 243h-.3l.8-1.3c0 .3.4 1.1-.5 1.2z" class="cls-1" transform="translate(179 -84)"/><path d="M238 160l.5-.6h.3l-.8.6z" class="cls-1"/><path d="M58.4 243.8c.3.6-.6.7-.8 1 0-.6.2-1 .8-1zM55.6 245.6c0 .2-1.2.3-1-.3.4 0 1-.4 1 .3zM53 246.7c0 .5-.6.3-1.1.4 0-.6.8-.4 1.1-.4z" class="cls-1" transform="translate(179 -84)"/><path d="M229.5 163.8l-3.4 1.7 3.4-1.7z" class="cls-1"/><path d="M109.2 243.2c-.3 0-.6.7-.9.4v-.6c.3 0 .6-.4 1 .2z" class="cls-1" transform="translate(179 -84)"/><path d="M285.4 160.9l-.4-.8.9-.1-.5.9z" class="cls-1"/><path d="M44.8 250.3c.6.6-.6.4-1.2.7-.3-.5.9-.6 1.2-.7zM42.2 251.8c0 .2-.3.3-.6.3l.6-1c.2 0 .3.6 0 .7zM40.8 252.2c0 .6-1.7 1-1.5-.2l1.5.2z" class="cls-1" transform="translate(179 -84)"/><path d="M217.2 169.3l-1.2-.5.9-.1.3.6zM217.8 169.2l-.3-.2.8-.1-.5.3z" class="cls-1"/><path d="M33 255.5c0 .6-.7 1-1.6.7.2-.3 1.1-.3 1.7-.7zM28.3 258c.6.3-.3.3-.3.6l-.3-.6h.6z" class="cls-1" transform="translate(179 -84)"/><path d="M203 175.8l-.1-.5 1.5.1-1.4.4z" class="cls-1"/><path d="M18.9 262c.3.6-.3.4-.5 1-.7-.2.1-1.2.5-1zM15.8 264.4h-.6l.3-.6a1 1 0 0 1 .3.6z" class="cls-1" transform="translate(179 -84)"/><path d="M192.6 181.5l-.1-.9h.6l-.5.9zM188.3 183.3l-1.3-.7.6.2.7.5z" class="cls-1"/><path d="M5.9 269.1l-.9.1.2-1c.3 0 .4.6.7 1zM270.7 250.4l-.2-2.4a3.1 3.1 0 0 1 .2 2.4zM-11.4 277.7h-.6c0-.2.3-.5.6-.3v.3zM219 271.2v.6l-1-1.2c.6-.3 1 .3 1 .6zM228.9 276v.5c-.3-.2-1.5.1-1-.8a1.1 1.1 0 0 1 1 .2zM124.6 287.7l-2.5-1.5c1 .4 2.1.3 2.5 1.5z" class="cls-1" transform="translate(179 -84)"/><path d="M408.9 193.6l-.6-.8h.3l.3.8z" class="cls-1"/><path d="M230.6 281.7l-1-1.4c.8 0 .6.8 1 1.4z" class="cls-1" transform="translate(179 -84)"/><path d="M313.3 209.7l.3-.1 6.9 4.5v.3l-7.2-4.7z" class="cls-1"/><path d="M58.8 303v.6c-.3-.3-1.5-.2-.7-.9 0 .4.4.3.7.3z" class="cls-1" transform="translate(179 -84)"/><path d="M215.3 221.2l-1.5-.1 1.1.1h.4z" class="cls-1"/><path d="M46 304.4c-.6.9-2 .5-2.7.2 0-.3 1.7-.7 2.6-.2z" class="cls-1" transform="translate(179 -84)"/><path d="M216.8 221.4l-.7-.3h.6l.1.3z" class="cls-1"/><path d="M41.8 304.7l-1.7.5v-.3c.5-.4 1.2.2 1.8-.2zM30.4 305.7c-.9.4-2.3 1.4-3.2 1.2.2-1 2.4-.3 3.2-1.2zM278 285.5h-.3l-.7-.5c.3-.3.6.3 1 .5z" class="cls-1" transform="translate(179 -84)"/><path d="M464.6 200.9l-1.2-.2.9-.1.3.3zM323.9 216.1l-2.8-1.8 2.8 1.2v.6z" class="cls-1"/><path d="M322.6 286l-.8 1 .3.3.6-.4c3.4 1.8 9.5 3 11.3 7.6a12 12 0 0 0 4.3 5.3c-1.3 1.3 2.2 1 1.2 2.6l-2.8-.7v.6c-1.2-1-3-.6-4.1-.8-1.6-1-3.3-3.6-5-2.5 1.5.4.4 1.7 1.4 2.8-.3-.3-.6 0-1-.3l-.2.4c.3.2 1 .8.7 1.4-.8 0-1.8-1-2.3-.1-2-1.6-2-5.2-3.8-6.2-.3-.2.3-.3.2-.6a2.6 2.6 0 0 1-1.9-1.6l.6-.6-.7-.3-.2.3c-2.5-1.2-6.7-4.7-4.3-8.7l-.1-1c3.3.4 3.6.7 6.6 1.6zM41.7 363.9l-1.9-.7c.7.2 1.8-.5 1.9.7z" class="cls-1" transform="translate(179 -84)"/><path d="M280 275.3v-.3l1.5.5-1.5-.2z" class="cls-1"/><path d="M106 359.4v.6h-.8v-.8c.2 0 .5.6.8.2zM50.8 366.6a4.9 4.9 0 0 1-4-.8c1.6.5 3 .3 4 .8zM112.3 360c-.2.4.7.6 0 1h-.8c-.6-.5.5-1 .8-1zM116.5 361.2v.3l-.9-.5c.3 0 .9-.4 1 .2zM118.9 361c.4.8-1.5.1-1.8.1l1.8-.1z" class="cls-1" transform="translate(179 -84)"/><path d="M301.5 277.5h-2.7l2.4.1.3-.1z" class="cls-1"/><path d="M70.8 372.3c-.3.3-.5.6-.8.6h-.3c0-.5.8-.9 1.1-.6zM205.5 421.4a11.5 11.5 0 0 1-2.2 1 2.3 2.3 0 0 1 2.2-1zM199.7 422.5c0 .3-.5.3-.8.4.2-.3.5-.7.8-.4zM202.3 428.2l-.3.6-.3-.5h.6z" class="cls-1" transform="translate(179 -84)"/><path d="M375 346.5l-.4-.5.9-.1-.5.6z" class="cls-1"/><path d="M192 431.8c-.3.6-1.2.4-1.8.7.3-.6.9-.7 1.7-.7zM186.8 433.4c-.3 1-1.4.7-2.3 1.1a21.5 21.5 0 0 1 2.3-1.1z" class="cls-1" transform="translate(179 -84)"/><path d="M374.1 349.6l-.7-.3h.9l-.2.3z" class="cls-1"/><path d="M193.9 433.7c-.5.9-1.2.4-2 .2l2-.2zM191.3 434.5c-.5 1.2-3.1 1.8-4.5 2.8.4-1.9 3.4-1.5 4.5-2.8zM186 437.4h-.7c-.6-.3.6-1 .9-.7l-.3.6zM184.2 437.5c0 .3-.6.6-.8 1-.3 0-.1-1 .8-1z" class="cls-1" transform="translate(179 -84)"/><path d="M246.2 369l-.6-.5.6-.1v.6z" class="cls-1"/><path d="M113.5 465a.6.6 0 0 1-.5.6h-.3c0-.3.2-.6.8-.6zM109.8 466.2a4.2 4.2 0 0 1-3.2.9 11.2 11.2 0 0 1 3.2-.9z" class="cls-1" transform="translate(179 -84)"/><path fill="#e10078" d="M303.9 569.2l4.9 56.5 564-49.3-4.9-56.5-564 49.3z"/><path d="M557.8 319.5L336.6 339c3.3-4.1 6-8.5 6.9-13.8-4 2.4 1.2-4-2.6-3l.4-1.6a2.6 2.6 0 0 1-2.4-3.6l-.8.7c-1-.8.4-2.1-.3-3-1.1.1-2.6.3-2.7-1.2-.6.7-.8 1.3-1.3 1.6-3.8-2.3-1.5-7-4.5-10v2c-2.4.3-3.2-1.7-5.3-1.8-.9-3.8-3.8-6.2-5.8-9.6h-.6l-.2 1.6a17 17 0 0 1 5.9 9.5l-.9.1c.6 3.5-1.8 6.6-3.6 9.4-.6.1-.7-.5-1-.7-2.8 1-1.5-3.8-3.2-3.9-.4 3-.1 6.2-1 9-4-.8-3.5-5.3-7.1-6.2l.2-.6c-.8.7-2.5 1.1-3.2 0-1.3 1.6-4.1.7-6 1.7v-.3c-2.6 1.1-5.4.5-8 .7l1-1.6c-1.3-2 1.3-2.4 1.7-4.5l-1.5-.5c-.4-1.7 3.6-2.4 1.2-3.4h.9l-1.4-2.6c-1.4-1.6 1.6-1.9 2-2.8l-.6-1.1c2.3-.5-.2-2.7.6-3.6-.4-.6-1-1.1-1.6-.8-.4-.8-1.7-2.2-.2-2.6-.8-2.4-2.6 1.4-3.4-1l.3-.5.3.2 1-2.4c-1.3-1-1.8-4.3-3.5-3l.3.3-.8.4c-1.5-.5-3.8.3-3.8-2.3h-.6c-1.5-.2-1.3 1.3-2.1 2.3-3 0-7.3 1.5-8.5-2.3l1.7-.4-.3-.3c-1 1-3.9-.8-3.7 1.5-2 .2-2.2 2.3-3.9 2.8l.6.5-1.6 1.3-.7-.9-.5.7-.4-.6c-1 1.9-3.4 1.5-4.8 2.5a.8.8 0 0 0-1.4.1c-5 .8-10.1 3.3-12.4 8-1.2-.5-2.7 2.8-3.8.3 11.4-14.9 30-29 49.8-22.7-1-.5-1.6-1.7-2.9-2.2 3.6-.3 7 2.4 10.2 4.8l.5-1 6.8 3.3-2.2-2.1.5-.7a100.4 100.4 0 0 0-12.7-9.5l.9-.4-3-1 .6.6c-2.7-.3-6.7.6-8.6-.7 1.9-2 1.3-5.1.8-7.8 2.1-5.8-.3-12.7 1.6-18.2.7.3 1.7 1.7 2.2.7 1.5 3.5.5 9.5 5.5 9.6.8-1.3-.5-2.6-1.1-3.4l.6-16.7.8-.6c1-12.5 7.7-23.2 12.3-34.8l-.7-2c1.9-5.5 4-11 5.6-16.8 2.2-1.7 1-6 3.6-6.5l-.7-.6 1.4-1.6c.2-.6-.1-.8-.8-1.4l.6-.6c6.7 5.3 15.7 11.3 19.7 19.3-5.2-5.2-10.4-11.2-17.2-14.2l-.4 1.8c2.6 2.4 6.3 4.5 7.4 6.8-3-1-4.2-4.1-7.3-5l4.2 4.3-5-3-.4 1.1c4 4.7 10.8 8.5 13.3 14.2-4.3-2.2-6.2-6.5-10.4-8-1.3-1.3-4.3-5-6.2-2.4.4.3.7.2 1 .5l-.6.4 5.1 4.5-.2.4 10.2 9.1-1.1-.2a52.9 52.9 0 0 1 14 19.5c6.6 13.6.3 29.6-1.1 43.9 2.1 1 0 4.1 1.6 5.2 1.4-.8 1-2.2 1.5-3.1 7.9-15 12.5-29.8 12.8-46.7-1.1-2.3.6-6-1-8.5.3.3.2-.3.8-.3-1.4-5.5-2-12-4-17.8-5.8-10-14.6-19-22.8-27.8l22.1-4.9c-7 0-15.1 2.8-23.2 5-1.3-.5-.5-1.7-.7-1.4h-.6c-.7-.8-2-1.6-2.6-2.4.6-.3 2.4.4 2.3-1-.6-.3-1.2.3-1.8.4-.8.3-2.3.2-2.1-.8l12.1-3-4 .9c-3.2.5-7.2 2.7-9.7 1.1-1.5-.4-4-2.9-5.6-.4 1.6 4.6-5.6 3.5-8.1 5.5 2.6-.6 5.7-2 7.8-1.6l-14.8 4.3c5.4.2 9.8-2.6 14.3-2.7l-2.2 2.8-.3-.8-2.5 2.9-47 13.3-4-4.8c15.9-5.2 31.8-8.6 47.7-13a411 411 0 0 0-47.7 12.8 120.4 120.4 0 0 0-19-17.6l.6-.3c-1.8-.2-2.8-1-2.6-3-1.3 3-3.7-1.2-5.2-.8l3.5 2.4c-1.3 1.3-3 0-4.4.1-12-7.8-24.1-15.7-38.4-16.8.3-2.4 1-4.5.2-7.4-5.3.2-7 5.7-8.3 9.6-1.5.2-4.2-.2-4.6 1.6.7 1.1.5 3.2 2.3 3a97.5 97.5 0 0 0-3.5 34.4c-2 5.2 5 14.3 2.3 18.5l.5-.1.6.8-8.3 3v-.8l-.2.9-7.5 3c-2 1.3-5.5.8-6.3 2l-1-.8 12.3-5-13.2 5c-2.4-1.2-6.6-1.1-8.2-2.8-4.7-.4-9.7-3-14.8-3.7l-.7-.8-.5.3c-2.2-1.6-4.8-.4-6.7-2a134.4 134.4 0 0 0-19-3.4 159.2 159.2 0 0 0-47-1c-2-2.7 3.3-5.8-1.8-6.9-2.7 0-4.5 3.1-5.5 5 .4 18.8 6.7 36 14 52.5l-2.8 1.8 2-.8c-.2.9-2 1.4-2.8 2-2.5-1.3-5.8 1.7-8 2.5 1.2.2 2.5-1.4 3.8-.6-1.5.4-3.4 1.4-4.7.7-1.1.6-4 1.8-3.6 2.7-6.7 1.2-12 5.1-18 7.4h1.5l-.6.6c-.7 1.5-2.5 2-3.5.8l-13 6.2v.6c-.4 1-2 .2-1.7-.1l-11.6 5.7.5-1.2c-.6.6-1.7 1-1.4 1.9l-35 17.5-3.2.9.3.3-1.1.6c-5 1.4-7.6 4.8-11.6 6l.3.4-4.3 1.5c-42 22.6-84.4 46.1-123.6 75-.4 2 2 2.5 3.3 3.2l-4.3 5.7c2.6-1.4 5.2 1 7.8.2l16.3-9.4c41.8-22.6 83.3-45.4 126.5-64.9a51.7 51.7 0 0 0 19.1 23c2.4 3 6.6 4.4 9.8 7a66.2 66.2 0 0 0 25.1 16.2l-.6.7c2.5 1.5 4.5.2 6.5 3 5.4 0 9.5 3.8 14.7 4.9 1.4-.1 2.9-.6 3.6.5h-.3l3 1-.8 1c1.3-1.3 3 .6 4.7.2l.5-1.3c.3 0 .3.3.6.6h-.3l2.5.3-2.7.9a2.2 2.2 0 0 1 2.2 1c-1 1.3-2.5-1.6-4.4-.2 4.8 1.3 9.7 2.7 14.7 2.2-.3.6-1.2.1-.9.7.7.5 1.2-.1 1.4-.7l.4 1.1.5-1a1.7 1.7 0 0 1 2.5 1l-2.3.6a21.8 21.8 0 0 0 4.4-.4c.6.5 1.5 1 1.6 1.6a527 527 0 0 0-149.3 65.1l-.6-.2c0 .3 0 .6-.2.6-9.3-1.3-9 11.2-16.6 13l2.3-.5c-.7 2.1-3.2 3.5-2.8 5.5-2.3.6 1.8 3.5-1.4 4 1.2.2 1.3 1.7 2 2.8-2.5 1.7 1.8 3.7 2.5 5.1l-2.3.2a99 99 0 0 0 41.8 12.3c18.5 1 38.5 2.9 57 1.3 33.8-1.5 65.4-5.5 95.6-15.2l1.7-1.4 1.6-.3 2.6 29.4L569.7 455l-11.9-135.6zM332 186.5l3.7 4.7a7.7 7.7 0 0 1-3.7-4.7zm-20.5-21l6.7 5.3c-.6.4-1.6-1-2-.4-1.7-1.4-4.4-2-4.7-5zM81 469c6.7-1.8 13.8-4.2 20.6-5.4l6.5-1.4v.7l-9.6 2.8-.7-.6c-4.5 2.2-10.7 3-16.2 4.4l-.6-.5zM1 480.1l.2-.6 16 .1c-5 .4-11.2-.2-16.2.5zm96.7-104.8l2.7.6v-.9h.1l6.3 72-10 2c-7.4.7-15.4 4-21.7 3.1l-.2 1c-3.3-.7-6.4.5-9.7 1-3-1.2-7 .7-9.7 0-2.7 3-5.4-1.3-8.2 1.3H23.1c-1.5 0-2.8 2-3.9.4-28.5-1.9-59.4-.1-85.5-14.1l.6-.6.3.2v-.9a25.3 25.3 0 0 0 9.5-4.7c9.7-5.2 20.5-10 30.3-16.2 32.6-12.4 64.2-29.6 99-37.1l-.6-.5 3.2-.8c-.5 0-1-.2-.9-.6l22.6-5.2zM61 368.7a3 3 0 0 1 3 .4c-1 1-2-.2-3-.4zM12 267.4a.7.7 0 0 1-1.2.4c.3 0 .6-.6 1.2-.4zm62-8c2.6-.3 4.1 3.1 5.9 3.3-.3.5.7 1 1.3 1.6l.2-.9c10.3 8.3 19.8 19.3 30.3 24.6v.8c1.8-.1 1.8 2.6 4.4 1.7-.8 2.2 2.5 1.6 3.7 2.7-36.9-2.4-76.6-3.7-115.4 5.6-2.2 1.7-5.5 1.4-8.1 2.2l-17 5.7-.3-.6C.5 295.3 22.9 284.5 44.7 274l-.6-.5 2.4-.2c9-4.6 18-9.9 27.4-14zm16.4-58.6h-.3v-.3h.3v.3zm44.6 16.7c-2 .3-4 3.3-6.5 2.7l-1.4 1 .5-.9h-2.4a1 1 0 0 0 .4-1.9c-4.4.4-8.8 3.2-13.4 4.7a27.6 27.6 0 0 0-10.4 3.3c-4 1-8.7 2.2-12 5.2 5.7-2 11.7-4.9 17.8-6.3 0 0 .4 1.7 1.8.7l-2.2 1.7 1.5.5h-.6l.7.5h-.3a1.5 1.5 0 0 1 0 .6c-1.4.1-4.3.4-4.7 2.2l-1-.2.9-1.3c-3.3.9-5.5 2.3-9 3.2 4.2-3 7.6-1.9 11.1-4.8-1.8-1.4-5.2 1-7.2 1.2.8-.7 2.3-.2 2.2-1.4-5-.2-9.4 4-13.8 4.8 0-.3-.3-.3-.3-.6-.3 1.8-2.4 2-4.2 2.7l2.3-1-.7-.6-7.3 3.6c0 .3.3.3.6.3-.9.4-2.4.5-2.3 1.7l-.6-.3c-.3-.3 2-.8 1.4-1.9l-2 1a106 106 0 0 1-16.3-44c1.6 2 4.5 1.4 6.7 2.7l.7 1.1c6 1.5 11.9.7 18.4 1-.2 1.2 1 1.4 1.6 1.4 1.1-.4 1.5.4 2.2 1 6.9 1.2 13 2.7 20 3 8 3.1 17 3.8 24.4 7.6l-.3.3 1.2.5c-.8 1.3-3 2-3.7 2.1 0 2 2.4-.5 3.9 0l-.5.6.3.3c-1.8.2-4 1.8-6.3 2.3l.2 2.4c1.4-1.3 3.1-1.5 4.5-2.2-.8 1-2.8 1.4-2.5 2 1.8.1 3.4-1.8 5.1-2.6l1.5.1zM95.5 236c-.8.7-2.6.6-3 1.8l-1.8.3c-1.1.6-2.2 1.8-3.4 1.3-1.5.5-.2-.3 1.6-1a16 16 0 0 0-1.7.4 9.5 9.5 0 0 1 2.7-.6 8.5 8.5 0 0 1 1-.2 2 2 0 0 1 .3-.2 3.5 3.5 0 0 0 1-.6l-3.3.3c1.7-1 5.2-1.6 6.5-3l.1 1c1.5-.2 2.2 1 3.8-.4-.4 1.8-2.5 1.7-3.6 3l1.2.2c-2 .8-4 2.1-6.2 2.6 1-2.4 3.3-3 5-4 0-.3-.4-.3-.6-.2l.5-.7zm3.1 1.3c0-3.6 6-2.7 8.8-4.7a78 78 0 0 1 13.4-5.3c-5.3 3.4-12 5-17.6 8-1.5-.4-2.9 1.5-4.6 2zm1.5.1l1.2-.1-1.7.4.5-.3zm4-1.2l4-1.9h.4l-4.3 1.9zm4.3 4.5c1.5-1 2.4-2.7 4.2-2.6-.9 1-2.9 2-4.2 2.6a4.3 4.3 0 0 1-.8.5l.8-.5zm4.5-8.9c1 1.1 2-.7 3-.2a.3.3 0 0 0-.2.3c.6.6 2 .1 2.9-.3l-2.8 1.8-.7-1.1-2 1c.2-1 .2-1-.1-1.5zm20.1-3.5l-19 9a112.2 112.2 0 0 1 19-9zm-6.2-.3l.9-.4.3.3h-1.2zm-11.3-4.1c0-.3-.3-.3-.6-.3 1.4 0 2.5-1.4 4.3-1.5-2 1.3-3.6 3.2-6.5 3.2l2.8-1.4zm6.5 0c-1.3 1.6-5.1 2.2-7.1 3 2.6-.8 4.5-2.7 7.1-3zm-3.6 6.2c1-1.3 3.3 0 4.6-1.9-.5 1-3 3.8-4.6 2zm-6.6-4.5l-.3-.2.8-.7h.3l-.8 1zm-10.7 6.6l-.6-.2 1.4-1-.8 1.2zm-2.2 1h-.3l.8-.9-.5 1zm-2.5 1.5c-1-.2 1.3-1.3 2-1 .3.8-2.4.2-2 1zm-2.7-3l1 .2c-.3.3-2 .8-1-.2zm31.2-8.3h.3l-.5.6-.3-.3.5-.3zm3-2.4l.4.6c-.3-.3-1.2 0-.4-.6zm4.9-1.6v.3h-.9v-.2h.9zm1.2.2h.9l-1.7.7.8-.7zm1.3.8l-2.3.8 2.2-1.1v.3zm2.5-3.2a5.3 5.3 0 0 1-.4.6h.9c-.6.3-.6.3-1.2 0l.7-.6.4-.4-.4.4zm5.7-.2l-5.7 1.7c1.3-2.2 3.6-2.1 5.7-1.7zm4.6 1.4c-6.6 2-13 6.7-20.3 8 4.5-2.8 7.5-2.2 11.4-5.2.2-.6-.7-.8-.7-.5-2.6 0-3.8 3.3-6.3 2.3l-6.8 2.7h.3-.1a2.7 2.7 0 0 0 .6 0c-.2.3-.5.3-1 .3.2 0 .2 0 .4-.3h-.2c-1 0-2 1-2.4.2 7.2-2.6 14.1-4.4 21.2-8.3l3.9.9zm1.8.7c-5.9 3.2-11.6 4.9-17.4 7.1 5.7-2.5 11.7-5.4 17.4-7.1zm13.5-14.8h-1.1c.3 0 .5-.2 1.1 0zm16-3.2l-1.6 1 .6.6-2 .4v.4a10.9 10.9 0 0 0-2.8.8c.3.8 1.7-.2 3 0-3.8 1.5-9.6 2.6-13.3 4.4-.5.7-1.1.1-1.5-.1l1.6-.7c.2-.5.9-.5 1.5-.6l-1.5.6-.1.2c3.4-.6 7.2-2 9.3-4.3-1.8-.5-4.8 2.2-6.1.8-1.6 2-4.9 1.6-5.6 3.4-.4-1.1-1.5.2-2.1-.3 5.7-2.6 11.3-6 17.4-6.9l-3.7 1.8c1.6.1 4.7-1 6.3-2.3l.7.8zm-10.5 4.5a4.4 4.4 0 0 1-2 .5c.8-.1 1-.7 2-.5zm-1.2 3.4l-1 1.2-.4-.3-1.1.4c0-.2 1.6-1 2.5-1.3zm2.3-1.1l-.6.3-.8.1 1.4-.4zm1.1-.7h.3l-.5.3.2-.3zm7.3-1c.4 1-1 1-1.6 1.4l-.3-.3c.5-.3 1-1.2 2-1zm3-.8l-.6.4.2-.9.3.6zm.1 2c-4.6 1.4-8.8 4.4-13.6 4a40.2 40.2 0 0 1 8-3.7l-.5.6c1.8-.1 4.3-1.2 6.1-.8zm.3.7l-2.5 1 2.3-1h.2zm5.4 13.7l-.6-.6-.5 1.6c-4.2-.3-6.3-4.5-10-5.7v-.3l-2.6-2.1 9-3.1c1.7 3 3.8 6.7 4.7 10.2zM290 170.3l-24.2 6.9 23.7-6.8h.5zm6.7-2c-2 1-3.8.9-6.1 1.6 1.4-1 4-.9 6-1.6zM260 179.4l43.3-11.7a10.2 10.2 0 0 1-3.7 5l1 .5a1 1 0 0 0-.3 1c-1.5-.5-2 1.3-2.5 2.5.2 1.5-2.6 3.5-3.2 6.2-5.7 13-11.3 26.5-10.6 41.2l-.8 1a128.8 128.8 0 0 0-23.2-45.7zm-47.8 153.9a53.1 53.1 0 0 0 4.1 16L99.2 359.7v.8c-43-5.1-84.4-16.8-116.5-49 5.8-1.1 12.8-2 19-3.2a20.9 20.9 0 0 0 11-1.2v.3a1 1 0 0 1 1.8-.2c7.1 0 15.4-2.8 22.6-2.5 4.4.5 8.6-2.3 11.4-.5h-2c1.5 1 4.1.2 5.6-.3l-2.7-.3 2.8-1.1c10-.4 24.2-.7 34-1.5.2.5.8.5 1 1 6.4-.5 13.4 1.5 19.7 0l.2 1.6c8-.2 15.6 0 23 2.7l-1.6-1.4c3.9.6 8.8 3.1 12.2 1l18.8 8.4.5-.6a1.6 1.6 0 0 1 .7 1.7c1.7-1.3 3.7 1.1 5-.2-2.4-1-3.5-3.2-6.2-3.9.4-1.7 1.7-.1 2.6-1-4.8-.8-8.4-4.7-13.3-5.7l.3-.6c-2.1-.4-4.3-2-5.9-3l.2-.6-3.4-1.8-.8.6c-.3-.2-.7-.8-1.3-.7 0-.6.6-.7.5-1.3-1.8-.7-4-1.4-5.3-3.4l.9-.3a37 37 0 0 0-9.4-5l1.3.7c-3 .2-2.2-1.3-5-2.3l.5-.6c-2.8-2.1-4.9-5.2-8.5-6l2.5 1.8c-2.4 2-2.2-2.2-3.7-2.3h.6c-2-2.8-3.6-4.5-7-5.7-5-6.6-14.7-12.6-19.5-20.1l10-5-.7-.6c.3 0 .5-.3.8-.4.6.3.1 1 .4 1.2l5-2.8 3-1.2c0-2.6 4.5-2.4 6.7-4.1l.6.8c2.3-1.6 5-1.9 6.8-3.8l-.6-.3c5-4.2 14.2-6.8 21.3-10.1l-3.1 2 1 .3a91.6 91.6 0 0 1 19-8.8.3.3 0 0 1-.2.4 6.1 6.1 0 0 0 .7-.2c3.8 2.4 9.4 5.1 13.1 8 2.7.4 3.5 1.8 5.3 2.8 3.9 3.5 9.3 4.8 12 9 5.4 4 10 9 15.1 14.1 1.6 4.6 6.1 8.6 9.1 12.5 1.5.2 2.7 0 3.5-1.2 1.4-1 1.6 1.3 2.3 2.5 0-.6.8-.4 1.1-.1-.2 0-.2.3-.8.3a5 5 0 0 0 1.8.8c-.8 1 2 1.6.2 2.3 4.3 1.7 4.6 8.2 9.7 8.4l-2.7-3.7 1 .1c-.5-.2-1-.7-1.3 0 .4-1.8-2.4-3.6-1.6-4.3l-.8.7-1.3-1.4 1.4-.7-1-.8-.2.9c-.8-2.3-3-4.5-3.8-6.5.3 0 .6-.3.6 0l-.4-1.5h.9a5.2 5.2 0 0 1-1.7-2l-.6.4c-1-1.1-2-2-1.8-3.4.8-2.2-3.9-4.1-1.6-6l-1.6-1.4c.2-.4.5-.7.8-.7-3.2-6-7-12.4-10.2-18.4l.5-.9c-4.4-7-7.3-15.6-10-23l.6.2-.6-.5L214 200c-.4-.6-2.7-.4-3.5.6l.3.6c-2.3.2-3.7 1.2-5.8 1-.5.4-1.7.5-1 1.4l-9.8 3.5-.3-.6 2-.8c-1.3-.4-2 1.4-3 .3 6.4-3.8 12.9-5.3 20.3-7.7l-.6-.5.5-.7a117 117 0 0 0-17.4 6.3c-1.2.4-3.5 1.5-3.6-.3 3.4-1.5 8-2.8 11.4-4.5l1.4-.6v-.2c2.9-1.4 4.7-4.2 7.9-4.8 0 .6-.6.7-.5 1 1.3-1.4 3.7-1.2 4.5-2.5-1.5-.5-3.3 0-4.5 0l5.4-2.5c-4.3.7-7 3.9-10.7 6l-.6-.5c-1.4 1-3.2.3-5 1.3a1.5 1.5 0 0 1-1-.4c-1.8.7-5.8.2-6.4 2.5-1.3-1-2.2-1.6-3.7-1.1 2.2-1.7 7.8-2.6 10.1-4l.2 1.9 2-.2c1.6-1.6 2.6-.2 4.3-1.5-1.2-3.2 3.7-1.9 4.7-3.4l-.6-.6 1.4-.7a62.5 62.5 0 0 1-10.3 4.2l-.4-.9c1.5-.7 3.8-.9 4.6-2.4a38.6 38.6 0 0 0-8.6 3.4l.1-1.6c-2.6 1.1-5.1 2.4-8.8 4.1l-.7-1.7 4-1.5a5.8 5.8 0 0 0-3.7 1.2c-1.1-2.6-1.6-5-2.7-7.4-.3-12.8-2.2-25 .8-37.4 2.3-1 4 2 6.3 1.2l-.1 1 .8.1c0-.5-.3-.5-.7-.8a1.9 1.9 0 0 1 2-.8c.9 2.6 4.2.3 5.8 2.2.8 1.7-1.8 2.8-2.3 3.5a1 1 0 0 0 1.5.7c1.3 4.6 5.8 5.1 9.5 6.9 3.5 2.3 6.3 4.4 10 5.9 4 5 10.5 8.5 14.5 13.2l-.3.3c2.5-1 3 3 4.7 3.2-4.8 2.2-12.4 3.7-17.2 6.2-2.6.8-.5.6-2.1 2.3l15.5-5c-.2-2 3-1.7 4.8-2.4 2.1 4 6 3.9 7.2 7.6l-.3.4c9 12.5 19 24.9 23 39.6l-1 1.3 1.1-.1-.2 1.2c2.2 4.8 1.2 9.7 3.4 14.8-1.4 4 1.3 8.8 1.4 13.2-1.6 1.9 1.4 2 1 3.7-31 9-58.1 32.3-62.6 65.6zM196.7 192c.4.5-.6.3-.5.6a.6.6 0 0 1 .5-.6zm-5.1 9h.6l-1.1.6.5-.6zm1-.6c.1-1 3.8-2.5 6.2-3l1.1-1.7c.6-.4.3 2.4.2 1.6a6 6 0 0 0-1.3.1l-.4.6-5.8 2.4zm5.6-1.5c-1 1.9-3.7 1.5-5.4 2.9 1.7-1.4 3.7-1.8 5.4-2.9zm2.8-2l.5-.6h.3c-1.2.4 0 1-.8.7zm3.8-.3h.3l-1.4.5 1-.5zm-7-5.9v.2l1.9-.8-1.9.6zm10-3.2a72.2 72.2 0 0 0-8.1 2.6l8.2-2.6zm-1.4 9.9l-1.5.6v.4l1.4-1zm-52.6 24.7c.7-.3 1.8-.3 2.2-.7l-2.2.7zm-62.6 15.7a2.1 2.1 0 0 1-.2.1 7.4 7.4 0 0 1 1.4 0 1.7 1.7 0 0 0-1.2 0zm-.2.1h-.2a1.6 1.6 0 0 0 .2 0zm-.5.2l-.6.1-1 .3a11.4 11.4 0 0 0 1.6-.4zm87-41l-6.8 2.2c3.8 0 5.8-.8 6.7-2.2z" class="cls-1" transform="translate(179 -84)"/><path d="M291 422.5L302.9 558 970 499.6l-11.8-135.5L291 422.5z" class="cls-1"/><path d="M200 459l-4.3-49.3-34.2 3 2 22.6 6.9-.6.6 7.7a44.8 44.8 0 0 1-5.5.9c-7.8.7-9.8-.9-11.6-20.5-1.6-19.3.3-20.7 9.4-21.5 5.7-.5 14-.1 25.6 3l3.2-26.1c-15-2.9-24.2-3-30.9-2.4-29 2.6-41 16.8-38.1 50 2.7 31.5 15.2 45.4 43 43 10.8-1 22.5-4.6 34-9.8zm85.6-27.5a22.3 22.3 0 0 1-3 .6c-2.2.1-2.7-.3-3.9-2l-6.8-10.3c7-5.6 10.8-14.2 9.8-25.6-1.8-20-15.5-26.3-34.2-24.7l-38.8 3.4 8 90.3 28.6-2.6-2.7-30.5 3.2-.3L255 446c5.6 10 11 13.6 23.2 12.5 2.4-.2 6.7-1 9.6-1.6l-2.2-25.4zm-32.9-32c.6 6.5-.8 8.6-4.8 9l-7.1.6-1.4-16.3 7.5-.7c3.6-.3 5.3 1.3 5.8 7.3zm74.9-50.4c-.6-7.2-5.6-9.7-12-9.2-6.9.7-11 4.4-10.3 11.1s5 9.8 11.8 9.2c7.5-.7 11-4.6 10.5-11.1zm26.2-2.3c-.6-7.2-5.4-9.7-12-9.1-6.7.5-10.9 4.3-10.3 11s5.2 9.7 12 9.2c7.3-.7 10.9-4.6 10.3-11.1zm18 67.6L367 359l-28.4 2.5 5 56.9c.6 7.1-.1 9-7.4 9.6-7.5.6-8.3-1-8.9-8.2l-5-56.9-29.7 2.6 4.9 55.4c2.7 31.3 19.9 34.6 40.3 32.8 25.5-2.2 36.3-13.3 34-39.3zm93.2 27l-7.9-90.2-26.7 2.3 2.4 27.3c.3 3.7 1 8 1.6 11.7l-1.5.1a50.1 50.1 0 0 0-4.8-11.3L413.2 355l-30.1 2.6L391 448l26.6-2.4-3-34c-.3-3.5-1-8-1.5-11.7l1.5-.2a52.7 52.7 0 0 0 4.7 11.4l18.5 32.8 27.2-2.4zm80.2-7l-3.4-24.5-32.4 2.9-.7-8.4 28.9-2.6-2.1-24.5-29 2.6-.7-8.1 31.4-2.8-2.2-24.7-61 5.3 8 90.3 63.2-5.5zM201.3 612.4l-4-24.6-25.4 2.3-5.7-65.5-29.5 2.5 7.8 90.3 56.8-5zm74.1-6.4l-3.4-24.6-32.4 2.9-.7-8.4 29-2.5-2.2-24.5-29 2.5-.7-8.1 31.4-2.8-2.1-24.6-61 5.3 7.9 90.3 63.2-5.5zm73.8-36.2c-1.4-15.3-10.3-22-22.3-24.4l-15.5-3.1c-3-.6-3.6-1.2-3.7-3-.3-2.7.7-3.3 3.4-3.5 5.3-.5 9.9-.4 26.7 2.2l4-25.4a127.6 127.6 0 0 0-30-2c-20.4 1.8-34.3 13.6-32.7 32.8 1.4 15.6 10.4 21.8 22.3 24.6l14.8 3.5c3.4.8 4 1.3 4.3 3.7.3 3-1 3.6-4.1 3.9-5 .4-7.4.4-29-4.4l-4.7 25.3a85 85 0 0 0 32.7 3.7c20.2-1.8 35.5-13.9 33.8-34zm106-70.5l-29.5 2.6-4.9 48.7a78 78 0 0 0-.2 13.3l-1.5.1a80.4 80.4 0 0 0-2.6-13l-13.3-47.1-30.4 2.6 31 88.3 36.2-3.2 15.3-92.3zm80.4 84l-3.4-24.6-32.4 2.8-.7-8.3 28.9-2.6-2.1-24.5-29 2.5-.7-8.1 31.4-2.8-2.2-24.6-60.9 5.4 7.9 90.2 63.2-5.5zm82-32.8a22.4 22.4 0 0 1-3 .5c-2.2.2-2.7-.3-3.9-2l-6.8-10.2c7-5.7 10.8-14.2 9.8-25.7-1.8-20-15.5-26.3-34.2-24.6l-38.8 3.4 8 90.2 28.6-2.5-2.7-30.6 3.2-.3L587 565c5.5 10 11 13.6 23.1 12.5 2.5-.2 6.8-1 9.7-1.6l-2.2-25.3zm-32.9-32.1c.6 6.5-.8 8.6-4.8 9l-7.1.6-1.4-16.2 7.5-.7c3.6-.3 5.3 1.3 5.8 7.3zm103.5-14.7l-2.2-24.6-66.4 5.8 2.2 24.6L640 508l5.7 65.6 29.8-2.5-5.8-65.6 18.5-1.6zm77.6 29.6c-1.3-15.3-10.2-22-22.2-24.4l-15.5-3.1c-3-.6-3.6-1.2-3.8-3-.2-2.7.7-3.3 3.4-3.5 5.3-.5 10-.4 26.8 2.2l4-25.4a127.4 127.4 0 0 0-30-2C708 476 694 487.7 695.7 507c1.4 15.6 10.4 21.8 22.3 24.6l14.9 3.5c3.4.8 4 1.3 4.3 3.7.2 3-1 3.6-4.2 3.8-5 .5-7.4.5-29-4.4l-4.6 25.4c17.7 4.4 24 4.5 32.7 3.7 20.2-1.8 35.5-13.9 33.7-34zM165.3 695.2l-1.8-20.4-13.2 1.2.6 7.3 5-.4.6 7.5a19.4 19.4 0 0 1-4.4 1c-5 .4-7.2-1.4-8-11.5s1-12 7-12.4c2.2-.2 4.2 0 9.5 1.4l1.2-8a35.1 35.1 0 0 0-12-1c-11.6 1-16.3 7.3-15.1 21 1.1 13 6.2 19 17.7 18a42.4 42.4 0 0 0 13-3.6zm23.4-26.5c.3 3.8-1.1 5.7-4.3 6l-4.4.4-1-10.4 4.9-.4c3.1-.3 4.5 1.3 4.8 4.4zm11.4 17.7a7.3 7.3 0 0 1-1.1.2c-1.1.1-1.4 0-2-1.1l-4.7-7c3.7-2.2 5.6-5.8 5.2-11-.7-8.1-6-10.8-13.6-10.1l-14 1.2 3.3 38 8.6-.7-1.2-14.1 3.8-.4 5.4 9c2.2 3.6 4 4.7 7.8 4.4a25 25 0 0 0 3.3-.6l-.7-7.8zM234 677l-2-23.8-8.6.7 2 23.8c.5 5.5-.9 7.2-5.3 7.6s-5.9-1.1-6.4-6.5l-2-23.8-8.9.8 2.1 23.8c1 11.7 7.3 14.1 15.8 13.4 9.7-.8 14.2-5.6 13.3-16zm33.3 11.3L266 681l-14.7 1.3-.7-8.1 13.6-1.2-.7-7.4L250 667l-.7-7.8 14.5-1.2-.6-7.4-23.4 2 3.3 38 24.1-2.2zm35.3-3l-3.3-38-8 .7 1.6 18.6.6 4.4h-.5a21.9 21.9 0 0 0-2-4.3L279.4 649l-9.3.8 3.3 38 8.1-.7-1.8-20.3c0-1.5-.3-3-.6-4.5h.6a18 18 0 0 0 2 4.3l12.4 19.4 8.4-.7zm32.3-2.9l-1.2-7.3-14.7 1.3-.7-8.1L332 667l-.6-7.4-13.6 1.2-.7-7.7 14.5-1.3-.6-7.4-23.5 2 3.4 38 24.1-2zm13.8-5.4c-.3-3-2.5-4.3-5.3-4s-4.7 2-4.4 4.9 2.3 4.4 5.2 4.2c3.1-.3 4.7-2.2 4.5-5zm31.5-.7l-2.4-7.6a22.6 22.6 0 0 1-8.7 3.6c-4.7.4-7.1-.6-8-11.4-1-10.3 1.2-12 5.8-12.4 2-.2 4 .2 8.5 1.5l1.2-8c-5.5-1.2-8-1.3-10.9-1-9.7.8-15.2 6.5-14 20.8 1.1 13 6.1 19.1 17.7 18.1 2.9-.2 5.8-1 10.8-3.6zm34.4-.9l-3.4-38-8.9.8 1.3 14.8-11.2 1-1.3-14.8-8.9.8 3.3 38 9-.8-1.4-15.7 11.2-1 1.4 15.7 8.9-.7zm27-44l-6.8.5-12.3 46.6 6.7-.6 12.3-46.6zm40.2 0l-8.9.7-4 25a28.5 28.5 0 0 0-.2 4.8h-.5a28.7 28.7 0 0 0-1-4.7l-8.4-24-9 .8 14 37 10.6-1 7.4-38.8zm32 35.4l-1-7.3-14.8 1.3-.7-8.2 13.6-1.2-.7-7.3-13.5 1.2-.7-7.7 14.5-1.3-.7-7.4-23.4 2 3.3 38 24.2-2.1zm22-28.5c.2 3.8-1.2 5.7-4.3 6l-4.5.4-.9-10.3 4.8-.4c3.2-.3 4.5 1.3 4.8 4.4zm11.4 17.7a7.6 7.6 0 0 1-1.1.2c-1.2.1-1.4 0-2.1-1.1l-4.6-7c3.7-2.2 5.6-5.8 5.2-11-.8-8.1-6.1-10.8-13.7-10.1l-14 1.2 3.4 38 8.6-.7-1.2-14.1 3.8-.4 5.3 9c2.3 3.6 4.1 4.7 7.9 4.3a24.9 24.9 0 0 0 3.2-.5l-.7-7.8zm26.8-25.3l-.6-7.4-26.2 2.3.6 7.4 8.6-.7 2.7 30.5 9-.8-2.7-30.5 8.6-.8zm30.8 16.6c-.5-5.8-4-8.5-8.8-9.7l-6.3-1.7c-2.2-.6-3.4-1.2-3.5-3-.2-2.6 1.3-3.8 3.7-4 2-.1 4.2 0 10.2.9l1.2-7.7c-5.6-.9-8.4-1-11.1-.7-7.9.7-13.3 5.5-12.7 12.8.5 5.7 4.2 8.5 9 9.7l6.2 1.6c2.2.5 3.3 1.3 3.5 3.3.2 2.5-1.2 4-3.7 4.2-2.4.2-3.7.2-11.6-1.5l-1.4 7.5c6.5 1.8 9.2 1.8 12.6 1.5 7.7-.7 13.4-5.2 12.7-13.2zm13.3 6.2c-.3-3-2.5-4.3-5.2-4s-4.7 2-4.5 4.8 2.3 4.5 5.2 4.2c3.2-.2 4.8-2.2 4.5-5zm31.5-.7l-2.4-7.6a22.4 22.4 0 0 1-8.7 3.5c-4.6.4-7-.6-8-11.4-1-10.3 1.2-12 5.9-12.3 1.9-.2 3.9.1 8.4 1.4l1.2-8c-5.5-1.1-8-1.2-10.9-1-9.7.8-15.2 6.5-14 20.9 1.1 13 6.1 19 17.7 18 2.9-.2 5.8-1 10.8-3.5zm34.4-.9l-3.3-38-9 .8 1.3 14.8-11.2 1-1.3-14.8-9 .8 3.4 38 8.9-.8-1.4-15.7 11.3-1 1.4 15.7 8.9-.8z" class="cls-3" transform="translate(179 -84)"/></svg>