<svg xmlns="http://www.w3.org/2000/svg" viewBox="0 0 1458.467 834.279">
	<path d="M515.09 3.666l-1.24-.3 1.205-.107zM517.385 3.056c.451.759-1.128.507-1.917.576.397-.034 1.093-.913 1.917-.576"
				style="fill:#84b414;fill-opacity:1;fill-rule:nonzero;stroke:none"/>
	<path
		d="M522.195 3.828c1.958-.172 4.732-.022 6.617-.973-.07-.793-1.19.104-1.61-.25 1.994.217 5.8-1.325 7.135.553.86.333 1.643.265 1.994-.175.69-1.236 2.432.988 2.672-1.02-.482-.756-.822-.317-1.207-.284 3.824-1.152 8.568 3.58 12.635.07l-.07-.78c2.722.157 5.463-.478 7.866.098l-5.834.92c.895 1.484 2.314-.61 4.011.83 1.859-1.343 4.392.409 5.701-2.48l-.613 2.035c3.144-.665 7.164.544 8.943-1.574l-.4.034c1.365 1.844 5.05-.83 7.506.136l9.07-.001c-.35.41-.248 1.576.926 1.473l1.535-.51c-.441-.37-.861-.726-1.236-.692 1.457-1.298 4.74.386 7.119.178.397.34-2.31.992-.242 1.995l2.187-2.165.93 1.892c1.162-.102 3.913-.726 4.147-2.336 1.198-.104-.27 1.196.138 1.578.554 1.506 2.265-1.413 2.09.994 1.15-.102 2.962-1.854 4.29-.376 3.004-1.44 5.948.649 8.994-.787 3.675 1.647 7.822-.307 11.88.515.068.792-1.13.896-1.06 1.697l.442.336c2.493-3.373 10.134-1.261 13.762-.443.375-.382-.098-1.128.676-1.194.86.71 1.795 2.622 3.752 2.45l.342-.852c-.07-.814-.863-.745-1.647-.677l-.385.035-.41.036c.663-1.59 1.956-.172 3.151-.276-.373.438.519 1.156 1.35 1.525-.073-.817.645-1.293.207-2.012 4.04 1.199 9.066.377 11.982 2.085 1.193.29 2.436 1 3.973.454l-.852-.727c2.39-.208 4.765-.023 6.063 1.424 1.142-.483 2.65-.973 2.817.939.215-2.358 5.053-.81 7.384-1.39 1.43 2.608 4.11 1.588 6.89 2.13.382-.422-.07-.78-.103-1.166l2.105 1.787c1.161-.49.37-.828-.137-1.57 1.953-.56 3.252.909 5.17.335-1.468.923-3.217-.894-4.272.779-.725.864.843.316.912 1.11 1.79-2.14 4.054 1.209 4.58-1.59.563 1.521 1.631.247 2.38.181 8.518 2.427 18.672 1.539 27.156 3.915l-.689.859c2.423.969 5.87-.514 6.112 2.257 1.915-.599 2.02-3.767 4.967-1.667l1.942-.548-.709.883c1.204.253 1.965.187 2.237-1.016l-.34.408 2.027.623-.721.878 3.126-.273-1.829 1.341c1.25 5.443 7.712 2.464 10.193 3.815l.035.405c1.59.299 2.719-.237 4.743.375-.52-1.528-3.294-1.672-4.914-2.336l.378-.033-.898-1.095-1.058 1.267-6.763-.583c1.137-.475 2.772.167 3.463-1.09l-3.602-.485c1.555-.136 3.744-2.702 5.111-.446 2.177-2.135 4.497 1.992 6.316.248 1.377 2.23 3.165.134 5.176.333-1.023 2.07 1.377 2.621 2.961 2.483l-5.454.885c.474 1.14 3.501-.307 4.078 1.62l1.583-.139c-2.655 1.018.307 3.502-.79 4.775 1.44 2.661 2.42.201 4.46 1.199 2.913 1.346 6.049 1.47 9.238 1.948l-.89-1.076c3.902-.342 7.889 4.008 10.729 1.01 3.076-1.065 4.28 3.602 7.546.492 7.407 3.33 17.431.895 24.435 4.214l1.825-1.358c.464.374.532 1.152 1.3 1.084-.734.456-1.898.974-2.54 2.199l1.618 1.035c-.328.404-1.184-.288-1.446.95 10.735 1.407 21.042 2.074 31.331 2.355l.104 1.19c-20.973-.92-42.11-3.434-62.624-3.986-1.06 1.65-2.856-.96-3.439 1.47 2.448.963 6.202-.934 9.095.382l1.239.715c.165-2.838 3.493-.755 5.142-.07 4.68-.41 11.795-.258 17.022.863.425.377.102 1.172.892 1.104l.312-.795c2.82.935 5.284 1.89 7.993 1.25l.297-1.208c5.942.24 10.884 2.58 16.72 2.07-2.63 1.44-7.526-.494-11.022-.19-17.799-.407-35.3-2.466-53.524-3.223-2.15-1.783-5.514.096-8.339-.828-8.368-.857-17.875-1.208-25.484-2.508-3.79 1.503-8.756-1.216-13.507-1.237-2.073-.972-4.422 3.568-5.114.1-1.216-.286-3.66-1.282-4.69.41l-113.653-9.797c-62.33-4.792-133.824 2.67-195.003 20.236-67.45 22.075-124.614 63.353-177.793 113.35-7.548 8.55-16.199 17.562-25.448 24.7-2.867 3.017-4.475 7.509-8.185 10.191l-.767.067c13-27.177 40.005-51.605 60.15-73.897 6.55-6.487 15.191-11.17 20.086-18.3l-.379.033c6.832-2.945 12.346-12.112 19.503-15.887.433.355.465.727.85.694.378-.408.755-.442.722-.831l-.415-.377c4.012-3.532 10.084-6.438 14.492-9.943 6.203-6.081 13.958-7.14 19.752-13.175 4.944-2.028 8.554-5.872 14.39-6.736.616-2.074 2.902-3.042 4.836-3.601l.034.387c11.622-6.578 24.904-12.86 37.414-18.28l1.233.688c2.428-4.183 7.747-1.862 10.95-5.67 2.535 1.704 6.62-.992 9.293-2.025-1.647-.996-3.116.667-4.25 1.172.718-1.259 4.516-2.777 6.18-1.736 1.711-2.888 6.155-2.107 8.332-3.88.312-.797.067.756.48 1.127 2.462-3.363 9.602-3.191 13.076-3.878l6.523-2.161c-.87-1.095-4.25 1.164-6.592 1.37l16.952-4.63.833.727c.652-1.647 4.94-2.431 6.891-2.602l-.343.439c.822.717 1.987.201 3.154.099l-2.054-.996c2.744.152 5.771-1.676 8.263-.331l.724-.833-1.65-.648 3.13-.275.068.787 2.31-.202-.102-1.173c3.807-1.927 4.08 1.203 8.167-1.507l-.698.854c1.167-.103 3.22.488 3.886-.744l-2.788-.144c.717-.864 2.301-.611 3.466-.712-.244 1.22.932 1.508 1.752 1.436 1.122-.487 1.851-.955 3.02-1.446-.578-1.534-1.202.106-2.002-.233 2.07-3.335 2.277 3.363 3.822-1.121.484.744.59 1.936 1.756 1.833l.307-.819-.41-.372 1.95-.17s-.337.437.036.405c.033.385.033.385.436.35l.723-.86-.435-.354 6.163-1.732.138 1.572 6.22-.936-2.445-.979 4.683-.41-.662 1.252c2.822.942 4.995-1.222 8.206-.72l-.482-1.15 2.338-.204.104 1.184"
		style="fill:#84b414;fill-opacity:1;fill-rule:nonzero;stroke:none"/>
	<path
		d="M536.565 1.378c.49.756-2.296.998-2.365.206l2.365-.206M549.579 1.432l-2.45-.978 2.415.586zM567.223.28l.034.407-1.645-.657c.397-.035 1.184-.104 1.61.25M478.095 9.279l-1.092.867-.034-.38 1.126-.487M634.555 3.482l-.036-.41 1.6.272-.338.426-1.226-.288M706.477 9.792c.035.398-.718.872-1.096.906.343-.44.72-.872 1.096-.906M739.872 17.544l-.036-.408 1.584-.138.035.408-1.583.138M763.979 17.79l-.334.792.231-1.964s.856.692.103 1.172M766.983 16.346l-.034-.387 1.223.283.033.372-1.222-.268M770.144 16.444c.035.39-.761.067-1.523.134.374-.034 1.074-.86 1.523-.134M771.792 17.106c-1.1.858.14 1.596.583 2.3-1.202-.286-1.476.926-1.03 1.67-.857-.708-2.797-.538-2.312.203.34-.41.235-1.6-.172-1.956-.857-.715-1.986-.179-2.802-.108 1.06-1.313-1.188-.333-.896-1.53 2.462 1.393 4.324.01 6.63-.58M775.807 17.926l-.89-1.094.855.688z"
		style="fill:#84b414;fill-opacity:1;fill-rule:nonzero;stroke:none"/>
	<path
		d="M779.913 19.543c-.692 1.236-4.793-.376-3.33 2.632 2.025 1.01 2.71-.584 4.234-1.132l-.457-.755c2.412.18 1.753-2.477 3.879-.34l-1.03 1.3c.38-.033.031.346.067.756-.47-1.134-2.392-.205-3.09.656 2.997 2.51 3.731-2.292 6.531-1.718.542-2.836 2.806.516 3.491-1.124l-.387.438c.902 1.483 2.276-.604 3.486-.71-1.506.95.204 2.336.276 3.158-4.28.722-7.039-3.741-9.07.374 2.95 2.098 1.062-1.69 3.864-1.134l-1.838 1.376 10.432 1.82.31-.822 20.375 2.92 2.165-2.136c-2.5 3.024 1.715 1.798 2.606 2.953 6.21-1.339 13.56 1.557 19.48 1.448 4.34.388 10.273.663 15.01.652 11.226 1.779 22.134 4.773 34.616 3.295-2.816-.572-7.286 2.62-9.78.856-3.53.308-9.87.045-12.998.318-1.818-2.585-5.467.887-8.348-.798.368-.032-.106-1.206.262-1.238 1.59-.14 3.234.484 4.335.012-2.059-.996-5.73-2.65-7.46-.136-3.347 2.644-7.252-1.73-10.27.512l-1.237-1.062c-.364.378-.292 1.196-1.076 1.264-1.573-4.6-6.486-1.812-9.152-1.176l.348-.434c-1.578.138-3.676-1.241-4.254.776l-.796.07c-.45-.746.726-.848.658-1.638-.864-.72-1.585.139-2.785-.142l.925 1.48c-1.269-.683-1.336-1.444-3.162-.103l-.81.07c.32-.822 1.058-1.273.603-2.438-.387.443-2.355-.152-2.219 1.399l.034.384-1.316-1.476c-.302 1.617-1.223.106-2.39.209-2.778-.519-5.765 1.708-8.306-.46 1.538-.532 2.85.937 4.362.447-.516-1.546-4.46-1.576-6.013-1.064-1.403 2.07-3.665-1.26-6.383-1.022l-1.046 1.67-1.286-1.12.72-.8.46.698c2.186-2.14 5.931.338 8.202-.717-5.738-2.6-12.983-.017-17.646.804l-.552-1.564-.742.468c-.87-1.481-4.024-.801-5.842.51.272-1.177-3.64-.834-4.913-1.943l-1.925.582c1.354-2.504 4.696-.41 6.972-1.405l.07.79 6.315.253c-7.79-3.278-18.697-1.903-27.913-3.875 2.214-1.37 6.84 1.76 9.724-1.253l-2.802-.528 3.088-.674-.96-1.893c.571 1.928 4.004.832 5.684 1.48M768.515 20.148c-.79.07-2.255 1.374-2.392-.193l2.392.193"
		style="fill:#84b414;fill-opacity:1;fill-rule:nonzero;stroke:none"/>
	<path
		d="M796.212 21.259c2.845.965 5.896-.13 7.613 1.31 3.542-4.253 4.126 2.417 8.311.45 1.43-1.716 2.367-.208 4.216-1.545a.871.871 0 01-.27 1.58c.894 1.142 3.398-1.855 3.285 1.332-1.612-.258-3.215-.52-5.17-.35l1.678 1.008-3.135.274 1.136-.452c-.443-.763-.924-1.538-2.05-1.026-.811.072-2.602 2.188-4.226 1.176l1.453-.933c-.91-1.892-3.576-.483-5.228-1.513l.068.789 2.06.996c-2.82-.55-9.398.821-12.07-2.893l2.193-1.754.136 1.55"
		style="fill:#84b414;fill-opacity:1;fill-rule:nonzero;stroke:none"/>
	<path
		d="M799.707 20.567l-.855-.688.79-.068zM769.373 25.17c.731-.412 1.971.24 2.246-.964l7.976.853c-.779.493-1.836 1.348-3 1.864l-.172-1.956c-3.466 1.099-3.236-.899-5.422 1.27-2.446-1.343-7.84.26-7.729-2.897 2.403.204 5.932-.105 6.101 1.83M811.59 21.128l-2.005-.244 1.968-.172zM834.427 25.426l.03.344c-1.428 1.72-3.624-.836-5.857.512-1.71-1.8-5.17-.702-8.024-1.65l2.27-.55-.105-1.196c4.084.846 7.751 2.492 11.686 2.54M829.968 23.81l-1.572.138c.383-.033.688-1.214 1.507-.882l.065.745M781.83 28.022l.073.812-.89-1.092c.387-.035.418.316.818.28M836.605 23.632c-.964 2.034-3.95-.41-4.74-.34l4.74.34M791.201 27.202c.071.812-.662 1.257-1.096.914-.425-.377.752-.884 1.096-.914M839.656 26.17l-3.977-.07-.068-.778c1.505-.524 2.785.54 4.045.849M807.19 29.75l-1.197-.258 1.167-.102zM835.815 27.644l-1.579.139c.328-.79.707-.824 1.512-.893l.067.754M842.8 26.272c-.401.399-2.29.962-1.6.14l1.6-.14M854.164 25.642l.363-.396 2.47.97zM866.241 28.555c-.682 1.236-2.46-.965-3.045 1.05l1.248.698c-1.148.448-3.933-4.393-4.755-.39l-1.229-.297.383-.033c-3.78-2.435-10.47-2.612-15.49-1.41 2.447-3.395 6.982-1.373 10.543-.923 4.324-.38 8.34.474 12.345 1.305"
		style="fill:#84b414;fill-opacity:1;fill-rule:nonzero;stroke:none"/>
	<path
		d="M848.927 28.888l-1.187-.304 1.15-.101zM866.903 26.907c-.376.441.036.405.036.405l-.836-.334.8-.071M870.473 27.004c-.384.42-.733.83-.28 1.586.52 1.165 1.108-.891 1.212.298-1.109.903-3.964-.437-5.026 1.246-.138-1.58 2.926-2.642 4.094-3.13M874.03 27.079c-.365.827-1.91.961-2.329.584.282-1.2 1.484-.896 2.328-.584M874.963 28.968c-.275 1.218-1.574.138-2.704.65l.296-.831c.834.319 1.577-.541 2.408.181M878.881 28.626c-1.108.858-1.552.136-2.677.648l-.07-.8c.751.326 1.89-.166 2.747.152M857.43 36.024l-32.358-.322 1.556-.136-4.507-1.975.4-.427c11.538 1.752 23.792 1.895 34.91 2.86M882.04 28.764l-1.992-.241c.344-.421 1.499-.927 1.992.241M839.41 32.84l.757-.828 1.981.242zM879.396 30.166l1.096-.92.883.746zM890 29.238c-1.283 3.64-5.147.058-7.459.652 2.244-1.367 5.696 2.24 7.46-.652M875.68 32.49c-.75.446-.512-1.171-.58-1.948 1.24.277.54 1.504.58 1.948M877.603 31.874l-.067-.762 1.963.22zM894.075 30.88l-3.162-.17c.62-1.22 2.222-1.36 3.162.17M881.548 31.976l1.128-.546 1.957-.171zM826.41 37.539l-.065-.733 1.962-.171zM834.665 37.232l-.068-.768 2.004.184zM890.273 32.367c-.376.817-1.968.547-2.414-.204.79-.07 1.902-.524 2.414.204M893.053 32.907l-1.28-.672 1.212-.105zM843.863 38.42l-4.004-.45c.974-2.431 2.404.59 4.004.45M862.179 36.018c-.423.037-1.768 2.137-2.358.205.72-.88 1.58-.137 2.358-.205M852.936 38.808l-1.54.135.259-1.204c.034.39 1.212.285 1.281 1.07M824.735 40.486c-1.143.89-2.304.992-3.507.682 1.1-.864 2.295-.576 3.507-.682M894.859 35.487l-9.459.067c2.161-2.575 6.407 1.024 9.392-.822l.067.755M858.127 39.122l-1.602.14.348-.451-1.644-.993c1.162-.102 2.795.13 2.898 1.304M855.863 40.518c-.395.034-1.63-.652-1.94.55l9.648 1.9c-3.914.343-9.544-.721-12.423-2.452l4.715.002M867.932 43.404l-3.101.272-.07-.812c.81.31 2.311-.202 3.171.54M886.425 47.264l-8.645.022-.07-.816c3.913.06 5.17.729 8.715.794M919.17 47.602c-.723 5.176 5.917 8.924.44 13.732-4.553 2.376-5.709 7.204-10.271 9.204.238 2.734-2.048 3.729-4.328 4.304l-9.64-1.498c-4.29 4.727-9.028 9.074-13.418 13.378l.515.76-2.335.585c1.754 1.801-2.1 3.332-2.713 4.964-2.781-.17-.51 3.204-3.255 3.444.411.333.816.297 1.6.23-1.15.553-2.129 2.549-3.076 1.075-1.862 1.372-.412 4.382-4.048 3.143l.066.75c-.844-.682-2.346.205-1.875 1.357-.299.816.847.716.881 1.116.354-.822 1.922-.96 2.676-1.024l-4.2 5.866-.533-1.532c-1.25-.658-2.652 1.436-2.165 2.19.832.3 1.544-.136 2.338-.206l-2.517 2.97c-.488-1.156-1.579-.254-1.95.17l.9 1.082-3.895.782c2.542 1.743-.759 4.395-2.307 4.939-.741.424-1.116 1.264-1.43 1.65l.86.725-.446.038.072.823c-1.95.17-4.257.748-5.595 3.25l2.008.173-2.286 1 1.257.68c-.81.07-1.12.893-1.05 1.682-.757.066-3.123.666-4.234 1.546.033.378.49.73.525 1.14l-.714.848c-.488-1.155-1.647-.64-2.442-.571l1.738 1.815c-1.19 4.454-5.55-.698-7.219 3.005.916 1.505 3.455-1.087 3.317 1.687-1.54.51-1.682 3.294-3.777 2.268-1.33-1.822-4.364 3.58-6.685-.176-1.179.102-3.364 2.265-1.386 2.473-.882-1.513-2.652 1.044-3.797 1.541l.925 1.476-3.328 2.67c2.427.596 3.02-1.847 4.495-2.772l-.17-1.94c.993 2.254 2.32-.634 3.075-1.08 3.228.529 6.556-1.75 9.722-1.612l-1.168.482.861.687c-1.399 2.127-5.113-.315-6.557 1.8.47.323.83.705.862 1.083-.762.066-2.37-.587-2.882-1.702l-2.508 2.56 1.552.274-1.859.964c.513 1.125 2.356-.207 3.535-.31l.03.356 2.788.182c-3.404 1.86-5.165 4.393-9.008 5.52l.146-2.802c-1.988-.208-2.06 3.327-4.094 2.755-1.445 1.263-4.349 4.312-6.84 2.972.742-.479 2.356-.205 1.838-1.397-1.266-1.027-2.302.642-3.814 1.156l.067.756c-2.221-2.527-3.384 1.914-4.867 2.81 1.62.655 2.987-1.436 5.007-1.204l-3.628 3.47c.688-.844-.959-1.875-2.125-1.774-1.582.139-2.707.982-3.542-.116l-4.144 2.748c1.731 1.81 2.671-1.017 4.696-.41l-1.065.888.445 1.126-.732.456-.469-.75c-1.51.924-3.357 1.88-4.873 3.189l1.756 1.443c-3.646-.892-6.804 3.333-9.823 5.176l-.433-.343c-1.192 4.428-5.986 3.29-7.598 7.39-2.442-.598-3.293 3.005-6.428 3.28-4.592 6.326-13.348 5.525-17.486 12.191.404-.034.472.755.07.79-4.366-.414-7.388 5.753-12.44 6.576.928-3.24 5.298-2.815 6.627-5.283 3.359-2.265 8.204-5.837 11.848-8.923.795-.07 1.499-.925 2.219-1.784-.539-1.542-2.39-.166-3.076.684l.62-1.622c12.97-9.838 24.293-24.252 36.845-34.024l1.795-2.526c-6.155 2.118-9.904 9.176-15.983 11.27 3.607-3.843 8.137-6.216 9.26-11.04l.787.289 33.332-38.376.534 1.124 2.038-3.348.857.72c-.627-2.695 2.205-1.756 3.19-4.205 6.251-9.635 14.949-18.276 20.835-27.476l.784-.07c.036.418-.348.45-.713.87 3.907-.343 5.252-7.56 9.644-7.15 3.948-4.288 7.93-8.578 12.425-11.352l-1.658-1.037c.213-1.979 2.31-.605 3.025-1.452l-.581-1.523c11.354-1.38 18.733-11.522 31.054-10.606 2.472-3.364 5.95.28 8.698.448"
		style="fill:#84b414;fill-opacity:1;fill-rule:nonzero;stroke:none"/>
	<path
		d="M827.581 149.826c-.406.036-1.468 1.337-1.573.137l1.573-.137M817.903 160.948l.418.367-4.497 2.745-.865-1.122c-1.848 1.74-4.215 1.566-6.03 3.344.48.697 1.231.245 1.614.212-3.468 1.478-5.187 3.6-8.647 5.09l2.772.128-5.041 1.27c.138 1.578-3.49.305-1.719 2.502 1.96.243 4.195-1.542 6.133-1.713-6.097 2.124-12.129 5.385-17.693 9.433l1.276 1.087c-1.45 1.28-2.348-.22-4.236.73.924 1.923-2.304.995-2.95 2.643-1.47.924-2.911 3.022-5.347 2.058 6.164-1.743 9.126-8.666 15.644-10.463l10.638-9.23-.3.855c3.071-.684 5.502-4.396 7.68-6.597l.484.73 6.531-6.457c2.836 1.315 4.21-1.164 6.507-1.796-.206-2.345 2.345-.205 3.024-1.798 1.845 2.985-3.707 3.085-5.396 5.982"
		style="fill:#84b414;fill-opacity:1;fill-rule:nonzero;stroke:none"/>
	<path
		d="M813.62 161.727l4.11-2.747.762-.066zM806.515 161.563c.998 2.26-1.507.917-2.15 2.535l-.456-.727c1.61.217 1.064-1.292 2.606-1.808M815.981 161.52l-.034-.401.761-.067.035.402-.762.066M804.87 165.639l-1.17-.693 1.101-.096zM810.155 167.126c.072.817-1.722 2.525-3.259 3.074-.17-1.952 1.713-2.94 3.259-3.074M794.396 171.646l-.819-.282.788-.068zM806.49 170.235c-.698 1.204-1.794 2.128-2.927 2.227-.104-1.19 1.75-1.771 2.926-2.227M797.716 178.092l-.4.035c-.813-.724 1.11-.892 1.375-2.08.477.72-.23 1.593-.975 2.045M796.64 178.982c-5.287 2.809-8.82 7.48-14.907 9.984 5.664-2.467 8.718-8.272 14.907-9.984M780.261 190.27l-.429-.364.395-.035zM771.372 192.606l.856.709c-1.06 1.313-3.917.343-4.528 2.39-.685-3.48 3.293-3.066 5.457-5.215l-1.785 2.116M772.032 195.728l5.932-4.461c.24 2.745-4.056 3.503-5.932 4.461M760.907 194.73l.673-1.268.793-.07zM762.517 199.708c-3.44.682-5.386 5.982-8.624 4.708l-.105-1.21.781-.07-.357.468c.817.287 2.715-.237 2.236-1.393 1.233.653 2.976-1.852 3.764-2.301l-.82.072c.284-1.202 2.301-.998 3.024-1.442l4.056-3.501c1.057 3.055-4.263 1.145-3.955 4.67M771.372 196.963l-.863-.71c.418-.035.827.298.863.71M770.247 197.856c.465.71-.735.444-1.524.514l1.06-1.268.464.754M768.01 199.228c.031.378-.311.81-.311.81l-.068-.778.378-.032M766.52 200.142l-.332.813-.456-.744s.753-.47.788-.07M743.367 206.122l.253-1.591 1.183-.104zM753.995 205.572l.068.779c-2.463-.95-4.896 2.825-6.823 3.34l1.756-2.472c-.037-.423-.79.07-.424-.388l2.343-.205-1.236-.676.378-.034c.622 2.298 2.606-1.818 3.938-.344M747.107 208.168l.29-.81.434-.038zM743.097 212.08l3.42-1.912-3.352 2.68zM742.088 214.107c-.761.067-1.507.512-2.292.581l1.779-2.126c.412.389.481 1.178.513 1.545M738.97 214.379l-.789.07.338-.814c.737-.445.42.379.452.744M736.359 216.176l-.807.07.33-1.215c.373-.033.443.768.477 1.145M530.815 84.31l.358-.411 1.218.275zM503.82 91.422c-.725.837-3.955-.455-5.636-1.49l-.517-1.153c1.992-.175 4.425.812 6.153 2.643M536.524 86.579l.375-.42 4.493 1.976-.381.41-4.487-1.966M770.573 75.174c.068.778-1.529.514-1.929.55-.852-.721 1.087-1.277 1.93-.55M755.837 78.038c.034.382-.366.417-.718.862l-.415-.377.276-1.2 2.797.544-1.94.17M752.308 78.346l-.372.418-.824-.712c.723-.454.756-.066 1.196.294M759.733 77.696l-1.59-.258 1.161-.102zM747.999 78.723l-.035-.395 1.983.224.033.384-1.981-.213M744.141 79.447c.106 1.2-1.842 1.37-3.053 1.476.687-1.27 1.848-1.757 3.053-1.476M740.268 80.586c-.276 1.2-1.545.136-1.992-.212.792-.07 1.581-.14 1.992.212M720.044 83.53l-1.195.106c-.438-.73.34-.797 1.128-.866l.067.76M732.899 81.998l.036.406-1.623-.625c.795-.07 1.233.659 1.587.219M718.068 83.704l-4.19 1.548c.723-.825 2.562-2.581 4.19-1.548M727.467 82.882s.036.417-.348.45l-.406.036-.072-.822c.406-.036.79-.07.826.336M731.003 82.572l-1.994-.233 1.54-.135zM710.756 85.93l-1.17.102c-.035-.401.315-1.193 1.1-.892l.07.79"
		style="fill:#84b414;fill-opacity:1;fill-rule:nonzero;stroke:none"/>
	<path
		d="M710.139 87.55c-.623-2.307-3.166-.114-5.188-.732.34-.411 5.33-2.012 5.188.733M721.319 84.602c-1.755 2.54-6.202 1.326-8.886 2.356 1.38-2.462 6.251-.927 8.886-2.356M691.78 89.572l8.855-2.377 3.15-.275zM689.884 90.51l-.103-1.178 1.202-.105zM704.712 88.44c-.359.412-2.644 1.816-3.905.723-4.812 3.59-11.67 1.81-16.947 4.652 6.024-3.305 13.475-3.957 20.852-5.375M680.932 92.106l3.85-1.15 2.351-.205zM666.49 93.744c.069.79-2.242.99-1.927.17l1.928-.17M682.232 93.162c-.712.858-2.27.994-3.019 1.434l-.102-1.161 3.121-.273M677.632 94.735l-6.495 2.164c1.12-.501 3.678-3.088 6.495-2.164M706.733 93.784c.064.73-.308.762-.689 1.238l-.475-1.135 1.164-.103M695.437 95.507c-.76.067-1.494.96-2.673.676.276-1.2 1.884-.927 2.673-.676M700.183 95.534c.034.384-1.91.94-3.059 1.04.725-.836 1.85-1.376 3.059-1.04M702.512 95.33c.033.384-.728.45-1.504.518-.099-1.138 1.128-.485 1.504-.518M706.903 95.719c-1.543.135-3.07 1.064-4.663.823 1.125-.9 3.12-.688 4.663-.823M679.623 99.282c-.722.876-2.678 1.046-3.812 1.554.25-1.624 2.682-1.018 3.812-1.554M631.267 105.478c-7.076 4.6-16.566 4.625-24.574 7.7 6.72-4.542 16.598-4.208 24.574-7.7M646.643 105.73l-1.994-.594 1.615.626zM602.06 114.35c-.688 1.253-1.888.972-2.667 1.04l1.774-2.138.893 1.098M587.437 118.402c2.167-2.156 7.227-2.6 10.364-3.26l-10.364 3.26M584.305 118.675c.103 1.168-1.5.939-2.285 1.007.31-.834 1.497-.938 2.285-1.007M543.687 127.774l.312-.823 1.641.227zM546.536 129.103l-.07-.8 1.614-.141zM536.785 129.956l-.07-.8 1.58.23zM545.813 129.167l-1.209.452-.437-.745c.782-.068 1.13-.468 1.646.293M543.445 129.72l-3.052 1.096c.782-.068 1.428-1.737 3.052-1.096M537.367 132.258l1.17-.103c-.698.85-1.796 1.748-3.406 1.48l2.236-1.377c-.412-.368-.764.066-.764.066.284-1.2 2.285-.602 2.993-1.858l-2.23 1.792M532.63 131.876c.417.356.453.756.52 1.54l1.574.255c-2.096 2.921-4.056-1.23-5.348 2.052-.101-1.167-.62-2.712.917-3.25l-5.828 1.3c1.858-1.725 4.568-1.962 6.66-.97-.104-1.167 1.128-.501 1.504-.927M548.63 130.096c.5 1.132-.73.836-1.067 1.27l-.103-1.167 1.17-.103M324.465 150.883l-3.112.273-.069-.79c1.137-.48 1.97.22 3.181.517M539.49 134.038c1.074-1.271 4.502-2.763 7.25-2.6l-7.25 2.6M520.616 134.512l1.137-.502 1.187-.104z"
		style="fill:#84b414;fill-opacity:1;fill-rule:nonzero;stroke:none"/>
	<path
		d="M525.836 135.619l.175 1.995 7.312-2.236c-3.03 1.418-6.866 2.958-10.27 4.426l2.544-2.154c-.408-.407-.786.069-1.197-.338 0 0 1.092-.864 1.059-1.246l-7.654 2.618c2.674-1.03 5.422-5.985 8.031-3.065M520.717 135.68c-.305 1.214-3.484 1.106-4.945 2 .899-3.225 3.912-.341 4.945-2M514.821 136.196l.476.344-.72.864-.033-.382.277-.826M530.57 139.942c4.529-1.987 10.233-4.451 15.754-4.934l-15.755 4.934M535.712 140.292l16.077-5.377.81-.07zM510.697 138.51l.42.406-1.109.45-.4.036 1.09-.891M504.18 140.286l.73-.474-.73.474M497.343 143.23l-.408.036 1.788-1.708c.493 1.128-.614 1.605-1.38 1.672M351.363 156.422l-3.646-1.278c1.582-.138 3.163.11 3.646 1.278M552.577 139.204l3.802-1.52-1.507.932zM353.319 156.25l-1.234-.692 1.164-.103zM521.33 142.688l.38-.033-1.098.897-.381.032 1.1-.896M559.677 139.334c-1.102.896-1.824 1.772-3.409 1.54.75-.507 2.237-1.438 3.41-1.54M528.859 143.272l.353-.473.397-.035zM555.45 140.504c-4.463 3.179-11.907 3.83-17.58 6.308l.067.762c-4.624 1.212-11.548 3.385-14.229 4.04 9.913-3.662 20.903-8.571 31.741-11.11M502.075 147.962l-1.156.1c-.067-.766.722-.443 1.156-.1M516.937 151.002l10.207-4.82 1.252.637zM540.725 148.138c-1.922.526-.957 2.446-3.729 2.313.608-2.041 2.247-1.4 3.73-2.313M527.479 154.392l.28-1.19-1.615-.251c3.09-1.053 6.237-.925 9.301-2.364l-7.966 3.805M392.679 164.247l-1.626-.652 1.176-.103zM466.352 158.944l.392-.033-.032-.368-.392.035.032.366M527.035 154.083c-.34.377-1.518.48-2.246.97.323-.8 1.048-1.313 2.246-.97M507.373 158.923l-.033-.384 2.368.18zM500.537 162.292c.66-1.618 3.118-.686 3.743-2.69l.859.726-4.602 1.964M387.35 184.807c8.746-3.912 13.971-7.517 22.786-10.265-6.35 3.709-14.712 7.604-22.785 10.265M348.812 199.239c-.727.83-2.276.965-3.023 1.457.288-.832 1.892-.972 3.023-1.457M344.621 200.799c-.786.437-1.42 1.68-2.258 1.373-.038-.43 1.402-1.725 2.258-1.373M413.53 199.876c-1.658-1.041-1.522.515-2.705.238-1.45 1.689-4.06 3.126-7.62 3.438-.792.07-1.962-.25-1.693-1.448 4.257-1.168 7.59-3.425 12.155-5.386 1.597.24-.207 2.37-.138 3.158M367.241 202.342l.035.394-.761.459-.446-.353 1.172-.5M320.735 211.904l-.406.035 1.063-1.65c.036.418.521 1.513-.657 1.615M317.325 213.384l.734-.832.364-.03zM316.505 213.103c.462.732-.733.837-1.08 1.237-.07-.784.28-1.166 1.08-1.237M312.775 215.4c.033.379-1.543.516-1.227-.301.41-.036 1.155-.52 1.227.301M309.35 216.876c.069.779-.753.482-1.531.55-.068-.784 1.154-.516 1.532-.55M305.94 218.35l-4.539 2.369zM384.257 212.306c-.372.032-.72.824-1.133.457l-.065-.745c.378-.034.757-.48 1.198.288M380.51 214.594l-.474-1.158 1.165-.102zM298.348 221.782c.821.722-.768.448-1.527.929-.44-.757 1.148-.896 1.527-.93M294.944 223.687c.03.355-.359.39-.764.425l.693-1.232c.384-.033.455.774.071.807M293.019 224.214c.07.794-2.235 1.37-1.99-.184l1.99.184M289.613 225.687l-1.644-.645 1.184-.104zM290.41 225.618l-.462-.335 1.181-.104zM282.783 228.643c.07.788-1.107 1.312-2.299.996.35-.39 1.544-.495 2.299-.996M276.36 231.976c.825.338-.368.442-.332.842l-.463-.772.795-.07M270.655 234.452l-.067-.766 2.007.244zM263.835 237.412c.42.77-.37.414-.703 1.248-.8-.31.265-1.613.703-1.248M259.739 240.548l-.79.07.356-.827c.398.357.434.757.434.757M256.733 241.987l-.1-1.167.783-.07zM251.033 244.458l-1.672-1.031.808.31zM246.505 246.824l-1.169.103.28-1.212c.41-.036.477.743.89 1.11M599.619 221.879l-.276-3.157c.433.342.57 1.92.276 3.157M223.459 258.316l-.779.068c-.036-.422.35-.804.741-.49l.038.422M530.681 249.56l.068.778-1.306-1.466c.728-.444 1.205.31 1.238.688M543.865 255.876l.07.8c-.415-.321-1.959.172-1.276-1.074.378-.034.79-.07 1.206.274M404.83 271.608l-3.32-2.045c1.258.63 2.778.496 3.32 2.045M545.227 258.166l-.878-1.1.41-.035zM546.092 263.603l-1.336-1.888c1.161-.101.88 1.133 1.336 1.888M417.773 279.534l.382-.034 9.156 5.93.037.424-9.575-6.32M317.084 291.927l.07.79c-.44-.394-1.986-.258-.9-1.12.035.4.427.366.83.33M286.995 294.923l-1.995-.188 1.583.224zM299.904 293.794c-.69 1.23-2.713.669-3.504.306-.032-.36 2.253-.964 3.504-.306M289.001 295.179l-.826-.359.79-.07zM294.441 294.272l-2.302.632-.038-.428c.724-.426 1.591.292 2.34-.204M279.17 295.608c-1.134.53-3.002 1.87-4.21 1.539.283-1.196 3.141-.275 4.21-1.539M609.273 268.699l-.42.037-.873-.725c.37-.413.841.364 1.293.688M619.421 267.81l-1.596-.223 1.192-.104zM431.93 288.179l-3.793-2.395 3.724 1.6zM668.855 269.423l-1.064 1.252.402.35.762-.453c4.554 2.358 12.59 4.035 15.092 10.15 1.034 2.669 3.19 5.197 5.736 6.985-1.799 1.759 2.886 1.35 1.502 3.425l-3.669-.89.07.802c-1.66-1.406-4.009-.848-5.595-1.062-2.09-1.42-4.354-4.8-6.619-3.38 2.052.598.585 2.306 1.92 3.79-.416-.394-.784.068-1.233-.322l-.343.46c.412.317 1.299 1.052.963 1.872-1.15.1-2.447-1.388-3.134-.13-2.594-2.125-2.604-6.878-5.08-8.248-.405-.328.36-.394.323-.8-1.217-.286-2.061-.996-2.548-2.14l.72-.858-.824-.331-.373.435c-3.29-1.678-8.856-6.338-5.76-11.694l-.107-1.21c4.39.416 4.808.8 8.859 1.997M294.208 373.192l-2.43-.997c.82.32 2.293-.57 2.43.997M373.345 367.042l-.033-.39 2.063.627zM380.076 367.248l.065.756-1.164.102-.098-1.134c.4-.034.845.71 1.197.276M306.372 376.843c-1.127.503-3.932-.036-5.22-1.133 2.013.652 3.992.48 5.22 1.133M388.41 368.075c-.334.467.867.753.106 1.201l-1.161.102c-.86-.698.684-1.271 1.056-1.303M394.07 369.574l.033.378-1.228-.677c.41-.036 1.126-.479 1.194.299M397.2 369.3c.517 1.13-1.977.174-2.336.204l2.336-.204M401.993 370.056l-3.548-.07 3.176.104zM333.092 384.384c-.372.424-.733.838-1.128.87l-.395.036c-.066-.767 1.086-1.238 1.523-.906M512.7 449.883c-1.136.492-2.212 1.359-2.995 1.427.716-.835 1.416-1.636 2.995-1.427M504.941 451.368c.032.356-.72.422-1.14.459.388-.393.72-.836 1.14-.459M508.379 458.964l-.32.823-.467-.755.787-.068M499.964 462.04l-.444-.733 1.164-.101zM494.58 463.699c-.321.812-1.519.536-2.264.983.31-.812 1.103-.882 2.264-.983M487.708 465.868c-.339 1.25-1.89.96-3.05 1.488.751-.492 1.882-.95 3.05-1.488M498.757 466.123l-.854-.352 1.205-.105zM497.167 466.262c-.639 1.209-1.532.502-2.734.238l2.734-.238M493.728 467.335c-.655 1.648-4.128 2.332-6.016 3.696.585-2.425 4.6-1.981 6.016-3.696M486.584 471.13l-.796.069c-.825-.341.69-1.259 1.095-.868l-.299.799M484.208 471.338c.033.389-.697.834-1.061 1.246-.379.034-.1-1.145 1.061-1.246M328.3 492.035l-.863-.699.796-.07zM390.028 507.948c.033.388-.333.812-.721.847l-.403.035c-.035-.39.335-.814 1.124-.882M385.02 509.595c-1.084.901-2.637 1.396-4.24 1.177 1.16-.493 2.728-1.045 4.24-1.177"
		style="fill:#84b414;fill-opacity:1;fill-rule:nonzero;stroke:none"/>
	<path
		d="M475.223 150.888l-8.923 2.954c5.048.052 7.712-1.08 8.923-2.954zm-28.567 32.47c-.876.268-1.787.454-2.917.84.866-.363 2.437-.366 2.917-.84zm-86.66 22.042c-.057.016-.121.022-.175.044-.044.015-.084.04-.125.05.104-.038.212-.047.3-.094zm-1.504.344c-.427.118-.86.244-1.247.379a13.877 13.877 0 002.14-.53c-.289.049-.585.091-.893.151zm1.767-.512c-.096.047-.17.132-.263.168.67-.114 1.327-.205 1.944-.186-.59-.235-1.15-.174-1.681.018zm142.1-62.822l-.015.248c.832-.375 1.676-.718 2.521-1.072zm11.421 8.868l-1.899.76.054.605zm-8.915-9.692l10.94-3.522c-4.565 1.21-7.9 2.327-10.94 3.522zm-34.69 317.954l.126.034c.083-.008.174-.06.258-.068zM405.88 189.094l.012-.002zm300.7-24.746c.451.347.386-.392 1.162-.46-1.843-7.332-2.596-15.94-5.236-23.622-7.862-13.491-19.59-25.47-30.464-37.14l29.416-6.516c-9.45.026-20.182 3.748-30.964 6.652-1.642-.663-.608-2.316-.939-1.878l-.804.07c-.87-1.144-2.548-2.174-3.445-3.311.764-.387 3.204.548 3.033-1.403-.797-.316-1.54.539-2.305.606-1.128.513-3.126.273-2.847-.96l16.205-4.146-5.4 1.23c-4.285.788-9.54 3.61-12.894 1.54-2.059-.614-5.47-3.876-7.548-.51 2.122 6.116-7.49 4.592-10.814 7.247 3.494-.72 7.684-2.621 10.463-2.103l-19.59 5.628c7.133.206 13.074-3.49 18.997-3.626l-2.803 3.806-.525-1.141-3.216 3.855-62.708 17.716-5.29-6.28c21.09-6.952 42.356-11.58 63.567-17.378-20.557 4.146-42.903 10.083-63.6 17-7.47-8.788-16.047-16.337-25.317-23.416l.757-.464c-2.401-.182-3.667-1.27-3.501-4.017-1.638 4.075-4.868-1.557-6.828-1.004l4.638 3.184c-1.804 1.697-3.925-.065-5.91.108-15.89-10.432-32.155-20.87-51.235-22.343.484-3.2 1.41-6.041.319-9.884-7.088.207-9.208 7.504-11.124 12.796-1.92.168-5.534-.284-6.106 2.13.915 1.5.755 4.252 3.09 4.048-3.75 15.308-6.402 30.537-4.648 45.772-2.628 6.996 6.682 19.16 3.056 24.754l.648-.218.894 1.102-11.086 4.09-.1-1.15-.278 1.183-9.892 4.007c-2.598 1.824-7.408 1.096-8.448 2.72l-1.273-1.075 16.384-6.528-17.573 6.632c-3.303-1.648-8.82-1.57-10.987-3.776-6.345-.61-12.932-3.981-19.767-4.973l-.856-1.084-.764.425c-2.946-2.09-6.337-.583-8.88-2.752-8.094-2.024-16.908-3.633-25.249-4.467-20.417-3.354-43.35-4.125-62.82-1.24-2.688-3.68 4.421-7.862-2.407-9.225-3.54-.077-5.94 4.08-7.28 6.544.602 25.165 8.928 48.13 18.714 70.117l-3.735 2.31 2.712-1.011c-.31 1.17-2.643 1.793-3.753 2.68-3.286-1.71-7.674 2.25-10.727 3.324 1.579.255 3.396-1.887 5.043-.855-1.92.582-4.532 1.964-6.206.958-1.496.88-5.292 2.428-4.838 3.57-8.919 1.592-15.938 6.894-23.962 9.982l1.955-.171-.721.857c-.994 2.059-3.302 2.642-4.632 1.179l-17.41 8.232.068.777c-.662 1.235-2.729.239-2.36-.173l-15.525 7.652.657-1.648c-.726.848-2.242 1.407-1.772 2.53l-46.82 23.44-4.226 1.163.413.335-1.488.913c-6.556 1.772-10.11 6.407-15.467 8.04l.414.41-5.73 2.037c-56.12 30.192-112.55 61.517-164.765 100.021-.546 2.792 2.66 3.319 4.323 4.35L0 399.704c3.377-1.885 6.834 1.396 10.283.3l21.773-12.545c55.741-30.139 111.05-60.599 168.708-86.548 5.396 12.1 13.401 22.505 25.564 30.496 3.099 4.085 8.765 5.936 13.052 9.476 9.5 9.865 21.183 17.13 33.42 21.559l-.73.849c3.311 2.073 5.951.273 8.606 3.984 7.13.161 12.687 5.173 19.543 6.579 1.948-.171 3.852-.752 4.784.724l-.388.033 4.03 1.272-1.077 1.259c1.844-1.718 4.063.82 6.344.24l.628-1.634c.421-.037.455.34.876.707l-.387.035 3.207.514-3.492 1.09c1.232-.108 2.024.214 2.903 1.325-1.396 1.712-3.34-2.072-5.91-.245 6.436 1.789 12.886 3.565 19.558 2.982-.324.835-1.539.135-1.11.904.854.708 1.575-.138 1.9-.973l.532 1.544.666-1.257c1.092-.868 3.176.137 3.281 1.337l-3.108.641c1.59.254 3.93-.344 5.85-.512.858.698 2.102 1.374 2.169 2.14-71.284 19.263-138.178 47.616-199.007 86.842l-.816-.3c.032.368.067.757-.339.793-12.358-1.675-12.102 14.879-22.142 17.315l3.084-.651c-.922 2.847-4.303 4.71-3.676 7.4-3.119.676 2.377 4.541-1.912 5.341 1.61.219 1.778 2.163 2.701 3.684-3.356 2.254 2.408 4.896 3.353 6.796l-3.126.274c17.041 9.978 35.981 14.638 55.848 16.428 24.59 1.377 51.21 3.774 75.872 1.617 45.161-1.924 87.285-7.21 127.561-20.221l2.2-1.783c5.43-.868 11.497-3.739 16.613-4.187l-.374.426 4.213-1.568-.475-.764c10.366-3.26 21.246-5.387 30.62-10.542l.532 1.152c3.71-2.69 7.968-3.497 12.163-5.03 2.02-3.738 7.036-.615 9.115-3.966 9.512-3.588 19.368-8.381 28.528-11.96-.796-.322-1.946.17-3.183-.114-2.068 3.35-6.557 1.39-9.936 3.602-1.712 2.962-4.31.378-5.275 2.859l-14.173 4.387c17.781-8.623 38.575-14.384 57.081-23.496l-16.068 5.75c-1.853 1.316-4.874 2.779-6.894 2.16l-.067-.766c-1.459 1.28-3.908.34-3.305 2.652-3.63-.478-9.958 3.604-13.592 2.769 14.993-9.23 32.401-13.095 46.964-21.907-3.406 1.083-6.76 3.426-10.718 3.346l1.096-.88c-3.873.73-7.169 3.382-10.4 2.88 5.227-7.96 16.38-6.964 23.388-12.304-1.278-1.075-4.128 2.332-5.842.904-12.082 6.164-25.75 7.752-38.24 13.57l-.643 1.658-1.903-.572c-8.496 1.605-18.48 7.496-28.16 8.713 14.032-6.739 30.33-9.765 44.302-16.88-12.699 3.833-24.88 8.887-37.506 13.139-26.405 9.398-54.893 17.436-81.312 22.098-9.737.852-20.406 5.336-28.817 4.112l-.265 1.188c-4.434-.776-8.6.752-12.89 1.52-4.06-1.616-9.4.822-13.012-.06-3.622 3.879-7.24-1.706-10.894 1.759l-32.335.075c-1.984-.22-3.696 2.664-5.096.445-38.047-2.552-79.273-.165-114.007-18.81l.711-.846.435.353-.104-1.177c4.23-1.132 9.18-3.156 12.841-6.265 12.812-7 27.23-13.392 40.305-21.626 43.555-16.456 85.67-39.472 132.098-49.458l-.85-.7 4.191-1.015c-.692.005-1.393-.248-1.173-.805l30.153-6.983 3.61.86-.1-1.167.433-.038c.392.346 1.58.645.46 1.136 1.438-1.302 2.916 2.085 3.498-.307.07.79 2.838.548 3.252.881l-2.472-1.341.364-.032c.035.39.4-.035.802-.07 1.172-.102 2.742-.24 2.845.94l-1.168.1c2.784 4.865 9.856.315 14.421 2.67 1.024-1.647 3.74 2.025 3.846-1.108l3.68 1.627.646-1.626c.438.354 1.604.252.843.699 3.377 2.47 4.981-2.015 8.695.035l-.347.422c2.816.93 6.519-1.757 9.444-.042l-4.19 1.554c4.01.836 10.607-.525 15.011.3l-.105-1.201c.36-.435.768-.067 1.188.288-.352.423-.316.845-.316.845l2.244-1.405c4.453 1.212 10.29.31 14.988-.101-5.153-.368-13.41-.038-17.95-2.407 9.825-.467 20.08-.19 29.442-1.4.033.39-.333.421-.299.821.787-.07 1.122-.501 1.502-.926 3.534.082 7.32-1.424 11.33-.991.964-2.436 4.32-.379 6.312-.161 6.483-2.135 14.01-1.987 20.66-2.568-6.589-2.963-12.968-3.962-20.409-3.311-1.377-1.884 1.39-2.127 1.644-3.705-.85-.711-2.092-1.408-3.361-2.07-17.367-4.83-36.172-3.566-54.604-2.75-75.696-4.028-153.026-13.402-209.188-69.658 7.728-1.477 17.114-2.68 25.258-4.181 5.175.717 10.683.236 14.832-1.661l.031.36c-.03-.36 1.41-1.68 2.356-.206 9.456-.037 20.575-3.75 30.064-3.397 5.96.677 11.559-2.983 15.328-.575-.792.07-1.619-.221-2.788-.118 2.097 1.35 5.535.31 7.473-.291l-3.576-.455 3.83-1.516c13.368-.413 32.256-.873 45.15-2.001.426.752 1.236.681 1.307 1.493 8.612-.753 17.939 1.958 26.428.034l.172 1.968c10.633-.17 20.92.14 30.677 3.616l-2.129-1.786c5.181.723 11.808 4.114 16.268 1.378l25.039 11.188.725-.842c1.243.67.967 1.864 1.001 2.27 2.231-1.775 4.875 1.528 6.683-.232-3.284-1.26-4.69-4.276-8.328-5.163.587-2.387 2.324-.203 3.43-1.465-6.415-1.018-11.187-6.14-17.638-7.54l.317-.823c-2.789-.523-5.766-2.61-7.834-4.057l.314-.79-4.565-2.328-1.1.842c-.419-.34-.86-1.096-1.65-1.027-.07-.805.72-.875.65-1.67-2.472-.954-5.279-1.9-7.105-4.497l1.17-.45c-4.192-2.82-8.4-5.626-12.457-6.803l1.661 1.028c-3.882.34-2.898-1.736-6.597-3.01l.753-.805c-3.8-2.848-6.55-6.92-11.353-8.09l3.352 2.474c-3.31 2.663-3.01-2.918-5-3.125l.787-.068c-2.675-3.687-4.835-5.872-9.33-7.495-6.694-8.822-19.566-16.802-26.012-26.866l13.242-6.692-.859-.726c.39-.034.757-.441 1.135-.474.793.305.102 1.166.521 1.51l6.765-3.733 3.834-1.516c.05-3.532 6.017-3.293 8.966-5.523l.888 1.132c2.954-2.257 6.491-2.568 9.031-5.181l-.828-.308c6.597-5.69 18.912-9.113 28.357-13.535l-4.089 2.776 1.235.262c8.261-4.664 16.166-8.907 25.404-11.66.106.256.038.44-.107.565.305-.093.613-.155.915-.287 4.99 3.142 12.428 6.826 17.48 10.712 3.606.475 4.556 2.363 7.03 3.743 5.15 4.661 12.394 6.37 16.032 11.976 7.192 5.295 13.264 11.876 20.174 18.776 2.118 6.097 8.13 11.496 12.108 16.692 1.997.217 3.6.077 4.622-1.613 1.831-1.326 2.1 1.753 3.034 3.273-.066-.744 1.154-.47 1.566-.136-.38.033-.346.421-1.124.49.847.72 1.608.654 2.43.986-1.064 1.28 2.574 2.127.277 3.168 5.732 2.185 6.077 10.872 12.833 11.076l-3.568-4.81 1.402.091c-.723-.306-1.344-.968-1.842-.052.608-2.461-3.156-4.841-2.06-5.756l-1.096.915-1.745-1.808 1.88-1.004-1.27-1.053-.314 1.192c-1.06-3.067-4.043-5.92-5.081-8.64.388-.034.762-.424.794-.07l-.574-1.886 1.192-.104c-.855-.722-1.719-1.44-2.2-2.586l-.755.458c-1.293-1.443-2.603-2.54-2.39-4.495.96-2.861-5.19-5.46-2.24-8.092l-2.125-1.796c.312-.432.72-.87 1.091-.903-4.243-7.882-9.35-16.53-13.575-24.46l.654-1.2c-5.9-9.33-9.71-20.862-13.338-30.793l.82.343-.854-.738 27.138-10.27c-.48-.752-3.6-.48-4.697.837l.447.723c-3.127.273-4.974 1.633-7.752 1.46-.723.478-2.3.617-1.414 1.726l-13.005 4.69-.453-.756 2.686-1.02c-1.66-.66-2.617 1.809-3.92.344 8.586-5.108 17.127-7.043 27.088-10.255l-.833-.695.695-.89c-8.075 2.304-16.134 5.002-23.304 8.362-1.556.523-4.563 1.995-4.77-.377 4.563-1.99 10.736-3.696 15.236-6.032l1.9-.777-.018-.216c3.808-1.92 6.193-5.64 10.48-6.406.066.767-.7.834-.664 1.246 1.818-1.772 4.981-1.623 6.014-3.287-2.024-.641-4.333-.064-5.914.075l7.194-3.368c-5.818.889-9.382 5.15-14.285 7.936l-.856-.67c-1.86 1.344-4.296.376-6.535 1.754-.457.04-1.046-.195-1.41-.538-2.415.872-7.739.25-8.61 3.375-1.702-1.425-2.918-2.143-4.868-1.535 2.96-2.236 10.43-3.461 13.466-5.345l.224 2.55 2.617-.227c2.165-2.167 3.53-.31 5.733-2.087-1.56-4.215 4.934-2.436 6.306-4.495l-.83-.722 1.867-.96c-4.15 2.336-9.1 3.968-13.699 5.529l-.512-1.115c1.911-.945 5.043-1.22 6.034-3.277-1.919.543-7.68 2.223-11.432 4.533l.161-2.13c-3.428 1.504-6.825 3.218-11.683 5.53l-.998-2.304 5.33-2.03c-1.996-.244-3.48.692-4.988 1.574-1.464-3.4-2.129-6.49-3.608-9.886-.302-16.955-2.913-33.291 1.148-49.82 3.027-1.418 5.356 2.708 8.412 1.64l-.24 1.236 1.186.248c-.067-.76-.467-.726-.91-1.095.74-.839 1.471-1.29 2.708-1.01 1.096 3.437 5.524.289 7.718 2.858.997 2.281-2.428 3.768-3.15 4.632.102 1.173 1.34 1.468 2.08 1 1.7 6.168 7.671 6.833 12.63 9.132 4.61 3.159 8.39 5.936 13.321 7.896 5.304 6.641 14.03 11.39 19.284 17.667l-.35.41c3.398-1.506 3.88 3.99 6.273 4.167-6.444 2.939-16.538 4.997-22.916 8.356-3.498 1.067-.724.824-2.884 3.013l20.698-6.565c-.24-2.757 4.118-2.344 6.394-3.337 2.83 5.285 7.948 5.224 9.574 10.194l-.352.456c12.108 16.67 25.374 33.246 30.643 52.918l-1.415 1.68 1.55-.135c.07.788-.278 1.239-.246 1.61 2.943 6.453 1.514 12.883 4.48 19.702-1.904 5.319 1.827 11.701 1.958 17.592-2.162 2.553 1.768 2.624 1.204 5.025-41.147 11.866-77.438 43.05-83.44 87.35.685 7.837 3.038 16.714 6.396 23.488 2.86 1.34 3.98 5.173 6.94 6.93-.758 5.14 7.861 8.787 4.532 11.42l1.472-.913c19.512 19.965 50.374 21.219 74.704 10.78 1.312 1.487 3.226.939 4.74 0l-.478-.755 11.027-4.525c1.85-1.673 6.37.27 6.899-2.53 11.11-3.773 21.265-9.387 30.501-16.478.341-.445 1.347-2.527 2.645-1.441 9.543-12.26 22.93-21.708 25.532-36.922-5.242 3.215 1.546-5.286-3.522-4.048l.642-2.016c-2.356.206-4.217-2.79-3.216-4.848l-1.102.89c-1.262-1.064.554-2.78-.344-3.934-1.527.134-3.506.307-3.674-1.616-.722.847-1.026 1.668-1.788 2.094-5.005-3.102-1.984-9.274-5.896-13.283l-.136 2.801c-3.124.274-4.16-2.425-6.934-2.546-1.228-5.072-5.039-8.267-7.814-12.723l-.794.07-.207 1.989c3.847 3.208 7.032 8.053 7.816 12.728l-1.161.1c.778 4.644-2.379 8.856-4.842 12.61-.766.068-.834-.71-1.238-1.045-3.808 1.488-2.052-4.983-4.388-5.148-.45 3.976-.075 8.272-1.34 11.944-5.25-1.108-4.607-7.1-9.41-8.27-.034-.39-.034-.39.315-.78-1.096.847-3.403 1.463-4.317-.002-1.767 2.092-5.464.859-8.08 2.252l-.036-.41c-3.426 1.503-7.062.618-10.596.926l1.406-2.093c-1.814-2.575 1.684-3.29 2.231-6.071l-2.017-.624c-.594-2.295 4.845-3.179 1.572-4.467l1.197-.104-1.88-3.414c-1.781-2.207 2.153-2.552 2.815-3.768l-.898-1.49c3.066-.677-.31-3.54.738-4.818-.458-.74-1.288-1.467-2.046-1.026-.506-1.093-2.249-2.9-.305-3.501-1.055-3.09-3.399 1.865-4.495-1.225l.351-.782.439.37 1.281-3.254c-1.692-1.448-2.47-5.708-4.67-3.914l.42.333-1.149.476c-2.012-.57-5.069.443-5.002-3.085l-.759.066c-2.021-.254-1.85 1.702-2.904 3.032-3.952-.08-9.695 1.979-11.293-2.99l2.297-.624-.419-.328c-1.48 1.322-5.22-1.083-4.952 1.99-2.742.24-2.9 3.038-5.206 3.664l.858.67-2.234 1.78-.878-1.122-.669.854-.508-.75c-1.35 2.475-4.56 1.995-6.416 3.327-.445-.71-1.61-.61-1.936.17-6.641 1.006-13.433 4.334-16.432 10.493-1.645-.607-3.635 3.896-5.107.446 15.24-19.818 40.026-38.577 66.37-30.245-1.23-.681-2.155-2.192-3.804-2.83 4.726-.414 9.361 3.14 13.564 6.306l.676-1.236 9.058 4.332-2.989-2.836.663-.908c-5.51-5.017-10.566-8.521-16.827-12.71l1.14-.493-4.053-1.224.833.744c-3.607-.501-8.993.787-11.505-.986 2.51-2.572 1.76-6.83 1.058-10.331 2.858-7.764-.324-16.95 2.207-24.261.828.318 2.147 2.164 2.817.929 2.024 4.572.723 12.559 7.458 12.753 1.021-1.678-.698-3.488-1.558-4.556l.794-22.201 1.11-.859c1.271-16.686 10.294-30.882 16.442-46.43l-1.022-2.643c2.531-7.339 5.424-14.653 7.512-22.34 2.947-2.235 1.27-8.019 4.774-8.679l-.86-.746 1.778-2.14c.323-.823-.102-1.166-.96-1.875l.72-.859c8.895 7.119 21.015 15.136 26.3 25.712-6.906-6.9-13.914-14.95-22.962-18.88l-.579 2.386c3.49 3.256 8.441 5.98 9.877 9.009-4.082-1.239-5.6-5.435-9.669-6.641l5.623 5.808-6.664-4.155-.624 1.623c5.29 6.257 14.408 11.35 17.821 18.97-5.772-3.022-8.243-8.721-13.935-10.613-1.746-1.824-5.7-6.62-8.17-3.233.436.32.825.286 1.23.676l-.725.438 6.81 6.108-.343.456 13.68 12.215-1.57-.255c8.478 7.15 14.4 16.044 18.8 25.986 8.68 18.13.331 39.368-1.564 58.45 2.888 1.327.104 5.547 2.172 6.9 1.914-.94 1.332-2.826 2.016-4.085 10.5-19.88 16.62-39.736 17.04-62.247-1.477-3.017.854-7.936-1.412-11.328zM447.527 484.783l1.164-.101c-.314.409-1.444 1.28-1.164.1zm-11.124-14.427l-16.47 5.407c5.342-2.059 11.123-3.348 16.47-5.407zm-20.76 6.207l1.993-.173-5.465.836zm1.716 14.803l-5.77 1.669c.715-.835 3.808-1.497 5.77-1.67zm-21.556 5.85l.44.702-5.018 1.222zm-21.702 8.988c11.615-2.214 23.934-5.621 35.403-9.817.025.29.288.513.584.621 1.033-.381 2.05-.784 3.065-1.186 1.375-.77 2.808-1.567 4.446-1.711-1.48.656-2.967 1.133-4.446 1.71-.932.52-1.854 1.037-2.8 1.287-.09.008-.166-.064-.265-.1-13.06 4.828-26.236 7.716-40.077 11.907l-.874-.696c-6.068 2.87-14.242 4.012-21.569 5.817l-.868-.673c8.884-2.401 18.453-5.59 27.401-7.159zm-133.817 21.139l21.31.14c-6.64.581-14.975-.28-21.611.715zM422.48 391.919l2.754.15.782-.067.034.4-3.536-.094zm-98.483-11.847c-1.433 1.302-2.775-.182-3.95-.494.346-.4 2.691-.604 3.95.494zm112.192-200.697c-8.82 2.727-17.368 9.001-27.045 10.637 5.964-3.692 9.993-2.856 15.177-6.844.308-.828-.928-1.128-.892-.722-3.543-.1-5.115 4.396-8.387 3.125l-9.148 3.521c.118.002.255-.061.372-.032-.037.054-.037.054-.078.09.308.03.598-.135.865-.16-.315.444-.75.48-1.487.546.311-.028.383-.068.622-.385-.102-.013-.19.04-.306-.057-1.162.046-2.656 1.324-3.12.273 9.538-3.556 18.806-5.957 28.21-11.143zm-26.873 12.605l-1.575.138 1.161-.516zm-4.808-5.488l.75-.485.352-.03-.714.829zm4.81-3.608l.451.756c-.416-.372-1.55.136-.45-.756zm20.8-5.346l-7.67 2.244c1.701-2.932 4.86-2.827 7.67-2.244zm-7.136-.204c-.348.029-.67.886-1.065 1.302l1.17-.102c-.709.442-.709.442-1.518.132zm-3.92 4.698l-3.052 1.063 3.018-1.44zm-4.397-.774l-.035-.394 1.176-.104.034.395zm1.617.637l1.142-.879 1.168-.101zm-57.505-26.543l.4-.034.036.417-.4.035zm-104.18 89.175c.068.777-1.07 1.28-1.56.539.421-.038.727-.847 1.56-.54zm132.919 27.437l.1 1.15c2.337-.204 2.257 3.362 5.722 2.286-.949 2.82 3.331 2.06 5.014 3.503-49.183-3.225-102.146-4.887-153.872 7.55-2.966 2.23-7.379 1.82-10.819 2.917l-22.61 7.505-.445-.745c28.715-14.371 58.582-28.788 87.718-42.818l-.847-.676 3.165-.277c12.035-6.183 24.074-13.183 36.606-18.592 3.526-.308 5.517 4.232 7.856 4.432-.312.788.916 1.476 1.806 2.183l.248-1.166c13.65 11.027 26.32 25.722 40.358 32.748zm-38.876-70.41l3.018-1.371-.858-.732-9.844 4.781c.036.406.444.37.824.338-1.138.497-3.094.668-2.958 2.224l-.805-.311c-.428-.376 2.659-1.028 1.77-2.507l-2.66 1.399c-11.453-18.319-19.047-37.4-21.71-58.84 2.217 2.595 6.067 1.821 8.98 3.56l.955 1.501c8.041 2.042 15.813.979 24.536 1.427-.268 1.58 1.337 1.815 2.13 1.745 1.534-.51 2.014.619 2.875 1.344 9.201 1.576 17.288 3.628 26.775 3.98 10.632 4.188 22.51 5.087 32.421 10.134l-.35.445 1.62.653c-1.027 1.675-4.089 2.732-4.871 2.802-.147 2.75 3.118-.672 5.11-.062l-.688.855.415.35c-2.337.206-5.3 2.435-8.41 3.089l.277 3.157c1.853-1.753 4.188-1.957 6.07-2.917-1.069 1.269-3.769 1.886-3.32 2.676 2.391.188 4.516-2.367 6.792-3.395l1.943.088c-2.721.445-5.208 4.415-8.7 3.701l-1.828 1.319.683-1.219-3.214-.116c1.2-.105 1.842-1.752.58-2.437-5.874.515-11.842 4.184-17.98 6.312-4.292.375-9.66 2.004-13.806 4.355-5.386 1.272-11.564 2.977-15.962 6.896 7.66-2.642 15.618-6.486 23.722-8.331 0 0 .59 2.261 2.444.923l-2.959 2.258 2.025.612-.78.068.846.67-.379.034c.044.506.039.696-.004.824l.076-.006c-.03.002-.053.038-.072.04l-.004-.034c-1.961.17-5.8.53-6.35 2.936l-1.257-.3 1.086-1.652c-4.288 1.115-7.235 2.986-11.875 4.199 5.567-4.06 10.025-2.48 14.779-6.435-2.484-1.765-6.947 1.354-9.692 1.594 1.1-.842 3.118-.274 2.985-1.796-6.69-.24-12.493 5.42-18.357 6.344-.035-.406-.455-.37-.488-.754-.376 2.39-3.098 2.775-5.556 3.583zm44.001-14.83c-.036-.422-.381-.392-.767-.358 1.931-.168 3.4-1.866 5.704-2.067-2.57 1.793-4.768 4.355-8.682 4.315zm-4.913 2.374l-.41-.346 1.106-.852.406-.036zm13.634-2.33c-1.79 2.1-6.84 2.91-9.514 3.968 3.468-1.126 5.973-3.658 9.514-3.968zm1.296 5.795c-.68 1.23-3.914 5.057-6.104 2.5 1.427-1.744 4.344.005 6.104-2.5zm-28.074 3.627l-1.066 1.654-.822-.31zm-3.39 1.858l-.692 1.23-.384.034zm-1.413 1.726c.476 1.122-3.153.276-2.641 1.396-1.239-.274 1.812-1.756 2.641-1.396zm-6.152-2.627l1.201.281c-.342.44-2.673 1.03-1.2-.281zm-4.08 12.19c1.279-3.287 4.396-3.946 6.625-5.317-.036-.412-.412-.378-.797-.345l.693-.833c-1.072.866-3.469.696-4.129 2.372 0 0-1.073.149-2.367.346-1.489.87-2.91 2.416-4.558 1.788-1.904.67-.247-.381 2.23-1.225-.812.127-1.602.241-2.298.441-.018-.193 1.78-.541 3.545-.82.437-.126.876-.221 1.33-.3.143-.08.285-.16.437-.212.43-.217.87-.446 1.246-.804l-4.313.378c2.228-1.382 6.915-2.19 8.708-3.91l.1 1.146c1.959-.172 2.88 1.326 5.116-.448-.587 2.426-3.365 2.288-4.808 3.976l1.612.246c-2.645 1.055-5.279 2.836-8.372 3.522zm11.876-4.214l.723-.45 1.581-.138zm4.813-3.17c-1.998-.633-3.793 1.9-6.044 2.538-.037-4.75 7.958-3.512 11.664-6.205 5.66-2.842 11.764-5.347 17.918-7.095-7.078 4.595-15.994 6.55-23.538 10.761zm1.323 1.071l5.296-2.457.372-.033zm4.508 6.695c2.672-1.024 3.953-4.277 6.719-4.15-1.412 1.686-5.21 3.229-6.719 4.15zm7.175-12.455c1.326 1.475 2.701-1.032 3.942-.345-.386.033-.353.405-.353.405.801.743 2.757.19 3.89-.34l-3.715 2.336-.924-1.498-2.67 1.398c.306-1.192.306-1.192-.17-1.956zm1.44 7.384c7.881-4.65 16.602-8.962 25.358-12.086zm24.73-14.825c7.616-3.395 15.556-7.236 23.218-9.503-7.902 4.226-15.568 6.492-23.218 9.503zm64.567-28.504l.453.761-.758.476zm1.143 4.252l-3.412 1.468 3.03-1.435zm-24.475-4.983l-1.559.136c.39-.033.738-.41 1.56-.136zm-2.243 5.74l2.047-.833c.355-.759 1.233-.724 2.01-.804l-2.01.804c-.047.099-.13.123-.15.253 4.631-.797 9.617-2.79 12.49-5.797-2.401-.561-6.447 2.91-8.201 1.093-2.098 2.564-6.459 2.15-7.439 4.588-.552-1.51-1.995.175-2.823-.51 7.583-3.456 15.076-8.032 23.272-9.124l-4.946 2.376c2.024.193 6.218-1.318 8.416-3.1l.881 1.11-2.228 1.37.83.746-2.683.582c-.076.32-.028.473.085.564-.903.045-1.919.28-3.892.956.463 1.158 2.337-.204 3.945.058-4.977 2.026-12.697 3.503-17.64 5.867-.694.89-1.553.136-1.964-.199zm6.802-3.366c1.138-.1 1.478-.93 2.678-.622-.746.452-1.54.522-2.678.622zm15.378.24c.482 1.144-1.48 1.316-2.2 1.749l-.44-.332c.75-.479 1.442-1.688 2.64-1.417zm-9.36 1.2l-.758.457.365-.424zm-1.896.972l-.732.433-1.186.104zm-4.884 2.778l-1.508.53c-.034-.395 2.203-1.363 3.374-1.846l-1.439 1.676zm2.138 1.802c3.396-1.888 6.758-3.734 10.632-4.9l-.72.89c2.34-.204 5.736-1.7 8.177-1.13-6.15 1.72-11.737 5.765-18.09 5.14zm24.848 13.209l-.62 2.037c-5.572-.308-8.443-5.976-13.292-7.545l-.034-.384-3.426-2.847 11.884-4.188c2.33 4.136 5.146 9.03 6.302 13.602zm24.293-32.915l.381-.033-1.894.592zm-4.357-.358l.39-.034c-1.553.495.1 1.156-1.104.836zm-11.608 7.277c2.238-1.753 4.922-2.368 7.181-3.736-1.339 2.43-4.943 1.983-7.181 3.736zm7.977-5.76l1.484-2.313c.759-.487.401 3.273.3 2.124-.444-.03-1.084.049-1.784.189l-.52.796-7.793 3.168c.221-1.319 5.178-3.376 8.313-3.964zm-9.643 4.741l.815-.072-1.499.95zm6.83-12.033c.477.743-.758.425-.722.847-.036-.422.375-.816.722-.847zm133.305-31.773c-2.628 1.412-5.021 1.234-8.107 2.26 1.875-1.328 5.446-1.231 8.107-2.26zm-9.593 2.805l.73-.064-32.3 9.143zm13.636 3.141l1.266.674c-.382.46-.353.804-.316 1.226-2.014-.597-2.573 1.787-3.26 3.443.171 1.952-3.497 4.67-4.348 8.272-7.596 17.224-15.084 35.233-14.156 54.87l-1.064 1.235c-6.28-22.304-16.772-43.036-30.944-60.752l57.76-15.7c-.585 2.018-2.642 5.356-4.938 6.732zm21.845-3.086c-2.12-1.798-5.788-2.652-6.13-6.571l8.93 7.148c-.764.42-2.13-1.43-2.8-.577zm21.18 21.42l4.875 6.272c-2.035-1.02-4.222-3.574-4.875-6.271"
		style="fill:#84b414;fill-opacity:1;fill-rule:nonzero;stroke:none"/>
	<path d="M405.163 758.975l6.588 75.304 753.97-65.964-6.589-75.303-753.97 65.963"
				style="fill:#e10078;fill-opacity:1;fill-rule:nonzero;stroke:none"/>
	<path
		d="M370.913 367.512l15.812 180.727 605.528-52.976-15.812-180.727-605.528 52.976M388.043 563.3l15.812 180.727 1054.612-92.267-15.814-180.726L388.043 563.3"
		style="fill:#84b414;fill-opacity:1;fill-rule:nonzero;stroke:none"/>
	<path
		d="M506.303 499.908l-5.746-65.67-45.64 3.994 2.63 30.044 9.193-.805.904 10.344c-2.105.515-5.539.98-7.344 1.139-10.507.918-13.17-1.164-15.455-27.268-2.254-25.775.392-27.662 12.542-28.724 7.552-.66 18.516-.131 34.094 3.965l4.236-34.78c-20.025-3.872-32.274-3.959-41.14-3.183-38.745 3.39-54.788 22.328-50.91 66.655 3.677 42.03 20.354 60.587 57.457 57.34 14.284-1.25 29.907-6.09 45.179-13.05zm113.412-36.556c-1.135.264-2.599.558-3.912.674-2.955.257-3.67-.342-5.198-2.69l-9.13-13.593c9.262-7.593 14.388-18.96 13.053-34.228-2.341-26.76-20.605-35.088-45.56-32.904l-51.715 4.524 10.528 120.339 38.252-3.347-3.56-40.715 4.267-.373 12.147 21.601c7.445 13.244 14.65 18.074 30.904 16.65 3.282-.286 8.985-1.282 12.882-2.12zm-43.78-42.821c.761 8.701-1.144 11.515-6.398 11.975l-9.52.833-1.897-21.672 10.015-.876c4.76-.416 7.096 1.696 7.8 9.74zm99.161-67.072c-.832-9.523-7.416-12.916-15.953-12.17-9.194.805-14.552 5.74-13.762 14.77.804 9.193 6.76 12.973 15.79 12.184 10.014-.876 14.686-6.083 13.925-14.784zm34.97-3.06c-.834-9.521-7.253-12.93-15.954-12.17-9.03.791-14.552 5.74-13.763 14.77.806 9.195 6.924 12.96 15.955 12.17 9.685-.847 14.523-6.069 13.761-14.77zm23.94 90.216l-6.465-73.877-37.924 3.317 6.636 75.848c.834 9.521-.114 11.921-9.8 12.768-10.016.876-11.037-1.35-11.87-10.872l-6.636-75.848-39.566 3.461 6.463 73.878c3.648 41.7 26.536 46.149 53.79 43.765 33.983-2.973 48.402-17.8 45.371-52.44zm123.563 36.005L847.04 356.282l-35.625 3.117 3.19 36.447c.43 4.925 1.246 10.478 2.184 15.524l-1.97.173c-1.844-5.96-4.154-11.548-6.454-15.152l-19.77-34.996-40.222 3.52 10.528 120.339 35.462-3.103-3.979-45.476c-.403-4.597-1.263-10.643-2.021-15.539l1.97-.173c1.46 5.332 3.946 11.07 6.29 15.167l24.664 43.665zm106.202-9.29l-4.515-32.691-43.177 3.777-.978-11.164 38.582-3.376-2.859-32.67-38.58 3.376-.948-10.835 41.864-3.663-2.873-32.834-81.266 7.109 10.528 120.339 84.222-7.368M507.048 704.573l-5.35-32.782-33.82 2.959-7.64-87.34-39.402 3.446 10.528 120.339zm98.83-8.646l-4.514-32.69-43.177 3.777-.978-11.164 38.582-3.375-2.859-32.67-38.58 3.374-.948-10.835 41.864-3.662-2.873-32.835-81.266 7.11 10.528 120.338zm98.338-48.307c-1.781-20.357-13.643-29.245-29.64-32.477l-20.71-4.144c-4.042-.804-4.77-1.568-4.986-4.03-.316-3.611.94-4.383 4.552-4.7 7.06-.617 13.192-.491 35.664 3l5.308-33.88c-21.117-3.115-31.396-3.374-39.933-2.627-27.252 2.384-45.896 18.077-43.656 43.688 1.824 20.849 13.792 29.066 29.67 32.806l19.768 4.722c4.562 1.09 5.44 1.674 5.727 4.958.345 3.94-1.239 4.74-5.508 5.114-6.73.589-9.879.533-38.564-5.89l-6.307 33.803c23.674 5.87 32.12 5.957 43.611 4.952 26.924-2.355 47.345-18.535 45.004-45.295zm137.459-93.582l-39.402 3.448-6.56 64.925c-.712 7.01-.6 13.95-.27 17.725l-1.97.172c-.33-3.776-1.59-10.614-3.508-17.394l-17.736-62.8-40.55 3.548 41.393 117.637 48.267-4.223zm107.06 111.893l-4.515-32.69-43.177 3.777-.976-11.164 38.58-3.375-2.858-32.67-38.58 3.374-.949-10.835 41.864-3.662-2.872-32.835-81.267 7.11 10.53 120.338zm109.333-43.644c-1.135.265-2.597.559-3.91.673-2.957.259-3.67-.341-5.2-2.688l-9.129-13.594c9.262-7.592 14.388-18.96 13.052-34.227-2.34-26.761-20.605-35.088-45.56-32.905l-51.714 4.524 10.528 120.338 38.253-3.346-3.563-40.715 4.27-.373 12.145 21.6c7.445 13.246 14.65 18.074 30.904 16.653 3.283-.288 8.987-1.283 12.883-2.12zm-43.78-42.821c.761 8.7-1.143 11.514-6.396 11.974l-9.523.834-1.896-21.671 10.015-.876c4.761-.417 7.096 1.695 7.8 9.739zm137.913-19.51l-2.872-32.834-88.489 7.74 2.872 32.836 24.299-2.126 7.654 87.504 39.567-3.461-7.656-87.504zm16.438 33.836c2.358 1.98 5.08 2.835 8.165 2.564 3.059-.268 5.585-1.581 7.577-3.941s2.852-5.083 2.583-8.167c-.27-3.085-1.59-5.616-3.963-7.594-2.37-1.98-5.098-2.834-8.184-2.563-3.06.268-5.578 1.587-7.556 3.959-1.978 2.372-2.834 5.086-2.566 8.146.27 3.084 1.584 5.618 3.944 7.596zm125.628 41.91l-4.52-32.691-43.174 3.777-.973-11.164 38.573-3.376-2.853-32.67-38.587 3.376-.946-10.835 41.866-3.663-2.866-32.834-81.272 7.109 10.528 120.339zm11.24-53.884c2.36 1.98 5.08 2.834 8.16 2.564 3.066-.267 5.586-1.582 7.586-3.942 1.987-2.36 2.854-5.082 2.574-8.166-.267-3.086-1.587-5.616-3.96-7.595-2.374-1.977-5.094-2.832-8.187-2.563-3.053.268-5.573 1.588-7.547 3.959-1.986 2.372-2.84 5.088-2.573 8.147.267 3.084 1.587 5.617 3.947 7.596zm122.346 2.493c-1.786-20.357-13.653-29.245-29.64-32.477l-20.72-4.144c-4.04-.804-4.76-1.568-4.986-4.031-.307-3.612.946-4.383 4.56-4.699 7.053-.618 13.186-.493 35.666 3l5.307-33.881c-21.12-3.115-31.4-3.373-39.933-2.627-27.254 2.384-45.907 18.078-43.654 43.688 1.814 20.85 13.787 29.067 29.667 32.806l19.76 4.722c4.573 1.09 5.44 1.675 5.733 4.959.347 3.94-1.24 4.74-5.506 5.113-6.734.59-9.88.534-38.56-5.89l-6.307 33.804c23.667 5.869 32.107 5.957 43.6 4.952 26.933-2.356 47.347-18.535 45.013-45.295M460.46 814.871l-2.381-27.214-17.682 1.547.852 9.739 6.562-.575.877 10.016c-2.439.77-4.148 1.128-5.875 1.279-6.698.587-9.553-1.808-10.732-15.278-1.184-13.537 1.391-15.92 9.266-16.609 3.108-.272 5.77-.087 12.761 1.876l1.573-10.647c-7.733-1.689-11.562-1.702-15.913-1.32-15.541 1.358-21.77 9.698-20.176 27.932 1.517 17.338 8.287 25.514 23.62 24.173 5.043-.442 11.288-2.24 17.248-4.919zm31.095-35.363c.441 5.043-1.495 7.579-5.639 7.94l-5.94.52-1.208-13.813 6.423-.563c4.144-.363 6.001 1.772 6.364 5.916zm15.286 23.579c-.546.117-.885.217-1.506.272-1.52.132-1.89-.114-2.776-1.498l-6.114-9.417c4.9-2.865 7.471-7.684 6.872-14.521-.948-10.844-8.08-14.396-18.164-13.514l-18.717 1.638 4.43 50.628 11.534-1.01-1.644-18.786 5.11-.448 7.091 11.838c3.01 4.957 5.427 6.346 10.47 5.904a33.563 33.563 0 004.321-.725zm45.135-12.51l-2.78-31.772-11.396.998 2.779 31.772c.641 7.321-1.25 9.574-7.12 10.088-5.94.52-7.862-1.539-8.49-8.723l-2.78-31.772-11.81 1.033 2.78 31.772c1.365 15.611 9.722 18.847 21.05 17.855 12.915-1.13 18.97-7.505 17.767-21.25zm44.28 15.127l-1.548-9.748-19.616 1.717-.948-10.844 18.096-1.584-.859-9.808-18.096 1.584-.9-10.292 19.34-1.692-.865-9.877-31.219 2.732 4.43 50.628zm47.053-4.116l-4.429-50.628-10.707.936 2.176 24.865c.158 1.796.488 3.994.86 5.84l-.692.062c-.74-2.094-1.825-4.156-2.793-5.672l-15.16-23.73-12.432 1.088 4.43 50.628 10.774-.942-2.375-27.144c-.169-1.935-.494-4.063-.802-5.986l.69-.06a24.137 24.137 0 002.667 5.822l16.535 25.905zm43.046-3.767l-1.55-9.746-19.616 1.716-.948-10.844 18.096-1.584-.858-9.808-18.096 1.584-.9-10.292 19.338-1.692-.864-9.876-31.218 2.73 4.43 50.628zm18.32-7.17c-.358-4.075-3.29-5.767-7.019-5.442-3.868.34-6.236 2.704-5.897 6.572.344 3.936 3.024 5.93 6.892 5.591 4.213-.368 6.356-2.923 6.024-6.721zm41.968-.958l-3.255-10.154c-5.968 3.376-8.93 4.538-11.553 4.77-6.216.543-9.464-.774-10.727-15.21-1.203-13.744 1.668-15.944 7.815-16.482 2.556-.224 5.24.238 11.236 1.94l1.58-10.578c-7.239-1.594-10.735-1.775-14.464-1.45-12.986 1.138-20.33 8.67-18.656 27.802 1.51 17.268 8.15 25.525 23.62 24.172 3.8-.332 7.682-1.299 14.404-4.81zm45.781-1.152l-4.43-50.628-11.88 1.04 1.722 19.684-14.988 1.312-1.721-19.685-11.88 1.04 4.43 50.628 11.88-1.04-1.833-20.928 14.988-1.31 1.832 20.927zm35.808-58.832l-8.979.786-16.418 62.125 8.978-.785zm53.57-.002l-11.811 1.033-5.43 33.395c-.264 1.762-.394 5.045-.28 6.358l-.62.054c-.116-1.312-.814-4.522-1.38-6.212l-11.146-31.946-12.156 1.064 18.796 49.371 14.09-1.232zm42.709 47.278l-1.55-9.746-19.614 1.716-.95-10.844 18.096-1.584-.857-9.808-18.096 1.584-.901-10.292 19.34-1.692-.864-9.876-31.22 2.73 4.43 50.628zm29.064-37.898c.44 5.042-1.495 7.577-5.639 7.94l-5.94.52-1.21-13.814 6.425-.562c4.144-.363 6.001 1.772 6.364 5.916zm15.285 23.578c-.545.118-.885.218-1.507.272-1.52.132-1.889-.113-2.776-1.497l-6.113-9.419c4.9-2.864 7.47-7.682 6.873-14.52-.949-10.844-8.08-14.396-18.165-13.513l-18.717 1.637 4.43 50.628 11.534-1.009-1.644-18.787 5.112-.448 7.09 11.84c3.008 4.955 5.427 6.344 10.468 5.903a33.477 33.477 0 004.322-.725zm35.621-33.738l-.864-9.878-34.88 3.052.864 9.876 11.466-1.002 3.565 40.75 11.95-1.045-3.566-40.75zm41.07 22.157c-.678-7.736-5.448-11.355-11.858-13.021l-8.334-2.194c-2.923-.789-4.464-1.697-4.67-4.046-.308-3.523 1.712-5.09 4.96-5.375 2.692-.236 5.56-.07 13.598 1.107l1.616-10.164c-7.554-1.218-11.182-1.318-14.843-.998-10.497.92-17.801 7.334-16.943 17.142.66 7.53 5.648 11.268 11.983 12.872l8.33 2.124c2.846.725 4.33 1.778 4.56 4.404.29 3.314-1.486 5.28-4.94 5.582-3.109.272-4.847.284-15.347-1.998l-1.899 10.118c8.699 2.371 12.384 2.327 16.804 1.94 10.36-.906 17.907-6.925 16.983-17.493zm17.646 8.2c-.356-4.075-3.288-5.767-7.018-5.441-3.867.338-6.236 2.704-5.898 6.572.344 3.936 3.024 5.93 6.892 5.59 4.214-.368 6.356-2.922 6.024-6.72zm41.97-.957l-3.255-10.155c-5.97 3.376-8.93 4.539-11.555 4.77-6.216.543-9.462-.774-10.725-15.21-1.203-13.744 1.667-15.944 7.813-16.481 2.556-.224 5.242.237 11.236 1.94l1.58-10.579c-7.237-1.593-10.733-1.775-14.464-1.45-12.984 1.137-20.329 8.67-18.656 27.802 1.511 17.268 8.15 25.525 23.622 24.172 3.798-.332 7.681-1.299 14.404-4.81zm45.78-1.152l-4.43-50.628-11.88 1.04 1.723 19.684-14.988 1.312-1.723-19.686-11.88 1.04 4.43 50.628 11.88-1.04-1.83-20.928 14.987-1.31 1.83 20.928 11.88-1.04"
		style="fill:#fff;fill-opacity:1;fill-rule:nonzero;stroke:none"/>
</svg>
